<?xml version="1.0" standalone="no"?>
<!DOCTYPE svg PUBLIC "-//W3C//DTD SVG 1.1//EN" "http://www.w3.org/Graphics/SVG/1.1/DTD/svg11.dtd" >
<svg xmlns="http://www.w3.org/2000/svg" xmlns:xlink="http://www.w3.org/1999/xlink" version="1.1">
<metadata>
Created by FontForge 20170924 at Wed Oct 12 12:27:57 2016
 By www-data
Please contact us to learn more about license restrictions.
</metadata>
<defs>
<font id="SofiaProLight" horiz-adv-x="598" >
  <font-face 
    font-family="Sofia Pro Light"
    font-weight="300"
    font-stretch="normal"
    units-per-em="1000"
    panose-1="0 0 5 0 0 0 0 0 0 0"
    ascent="800"
    descent="-200"
    x-height="467"
    cap-height="689"
    bbox="-398 -261 1430 1074"
    underline-thickness="50"
    underline-position="-100"
    stemh="55"
    stemv="60"
    unicode-range="U+0020-FB04"
  />
<missing-glyph horiz-adv-x="635" 
d="M80 0v665h475v-665h-475zM268 222h62v33c0 32 18 54 47 62c46 14 85 57 85 124c0 83 -67 135 -141 135s-136 -56 -136 -145h62c0 51 33 83 74 83c40 0 80 -28 80 -73c0 -34 -24 -58 -57 -71c-53 -16 -76 -43 -76 -110v-38zM300 88c24 0 45 18 45 43s-21 43 -45 43
c-25 0 -46 -18 -46 -43s21 -43 46 -43z" />
    <glyph glyph-name="f_f" unicode="ff" horiz-adv-x="643" 
d="M620 669c-88 0 -113 -59 -113 -134v-68h119v-55h-119v-412h-64v412h-264v-412h-64v412h-92v55h92v61c0 117 46 202 168 202h44v-61h-35c-88 0 -113 -59 -113 -134v-68h264v61c0 117 46 202 168 202h44v-61h-35z" />
    <glyph glyph-name="f_f_i" unicode="ffi" horiz-adv-x="874" 
d="M794 467v-467h-64v412h-223v-412h-64v412h-264v-412h-64v412h-92v55h92v61c0 117 46 202 168 202h44v-61h-35c-88 0 -113 -59 -113 -134v-68h264v61c0 117 46 202 168 202h28v-61h-19c-88 0 -113 -59 -113 -134v-68h287zM762 685c28 0 50 -19 50 -46
c0 -26 -22 -45 -50 -45c-26 0 -49 19 -49 45c0 27 23 46 49 46z" />
    <glyph glyph-name="f_f_l" unicode="ffl" horiz-adv-x="875" 
d="M795 730v-730h-64v669h-111c-88 0 -113 -59 -113 -134v-68h119v-55h-119v-412h-64v412h-264v-412h-64v412h-92v55h92v61c0 117 46 202 168 202h44v-61h-35c-88 0 -113 -59 -113 -134v-68h264v61c0 117 46 202 168 202h184z" />
    <glyph glyph-name="fi" unicode="fi" horiz-adv-x="546" 
d="M466 467v-467h-64v412h-223v-412h-64v412h-92v55h92v61c0 117 46 202 168 202h32v-61h-23c-88 0 -113 -59 -113 -134v-68h287zM434 685c28 0 50 -19 50 -46c0 -26 -22 -45 -50 -45c-26 0 -49 19 -49 45c0 27 23 46 49 46z" />
    <glyph glyph-name="fl" unicode="fl" horiz-adv-x="547" 
d="M467 730v-730h-64v669h-111c-88 0 -113 -59 -113 -134v-68h119v-55h-119v-412h-64v412h-92v55h92v61c0 117 46 202 168 202h184z" />
    <glyph glyph-name=".notdef" horiz-adv-x="635" 
d="M80 0v665h475v-665h-475zM268 222h62v33c0 32 18 54 47 62c46 14 85 57 85 124c0 83 -67 135 -141 135s-136 -56 -136 -145h62c0 51 33 83 74 83c40 0 80 -28 80 -73c0 -34 -24 -58 -57 -71c-53 -16 -76 -43 -76 -110v-38zM300 88c24 0 45 18 45 43s-21 43 -45 43
c-25 0 -46 -18 -46 -43s21 -43 46 -43z" />
    <glyph glyph-name="A" unicode="A" horiz-adv-x="609" 
d="M533 0l-69 183h-318l-69 -183h-70l263 689h70l262 -689h-69zM169 242h272l-136 359z" />
    <glyph glyph-name="Aacute" unicode="&#xc1;" horiz-adv-x="609" 
d="M451 911l-112 -153h-62l97 153h77zM533 0l-69 183h-318l-69 -183h-70l263 689h70l262 -689h-69zM169 242h272l-136 359z" />
    <glyph glyph-name="Abreve" unicode="&#x102;" horiz-adv-x="609" 
d="M304 774c-86 0 -121 58 -121 124h54c0 -42 22 -73 67 -73c41 0 66 31 66 73h56c0 -77 -49 -124 -122 -124zM533 0l-69 183h-318l-69 -183h-70l263 689h70l262 -689h-69zM169 242h272l-136 359z" />
    <glyph glyph-name="uni01CD" unicode="&#x1cd;" horiz-adv-x="609" 
d="M339 758h-69l-112 153h59l87 -103l88 103h59zM533 0l-69 183h-318l-69 -183h-70l263 689h70l262 -689h-69zM169 242h272l-136 359z" />
    <glyph glyph-name="Acircumflex" unicode="&#xc2;" horiz-adv-x="609" 
d="M304 862l-87 -104h-59l112 153h69l112 -153h-59zM533 0l-69 183h-318l-69 -183h-70l263 689h70l262 -689h-69zM169 242h272l-136 359z" />
    <glyph glyph-name="Adieresis" unicode="&#xc4;" horiz-adv-x="609" 
d="M219 788c-26 0 -48 19 -48 45c0 27 22 46 48 46c27 0 49 -19 49 -46c0 -26 -22 -45 -49 -45zM388 788c-26 0 -48 19 -48 45c0 27 22 46 48 46c27 0 49 -19 49 -46c0 -26 -22 -45 -49 -45zM533 0l-69 183h-318l-69 -183h-70l263 689h70l262 -689h-69zM169 242h272
l-136 359z" />
    <glyph glyph-name="Agrave" unicode="&#xc0;" horiz-adv-x="609" 
d="M337 758h-62l-111 153h78zM533 0l-69 183h-318l-69 -183h-70l263 689h70l262 -689h-69zM169 242h272l-136 359z" />
    <glyph glyph-name="Amacron" unicode="&#x100;" horiz-adv-x="609" 
d="M426 860v-57h-242v57h242zM533 0l-69 183h-318l-69 -183h-70l263 689h70l262 -689h-69zM169 242h272l-136 359z" />
    <glyph glyph-name="Aogonek" unicode="&#x104;" horiz-adv-x="609" 
d="M627 -96h47c0 -62 -39 -104 -97 -104c-57 0 -96 38 -96 94c0 12 5 29 10 40l35 85l-62 164h-318l-69 -183h-70l263 689h70l262 -689h-37l-32 -84c-2 -7 -4 -15 -4 -21c0 -29 19 -48 48 -48c27 0 48 22 50 57zM169 242h272l-136 359z" />
    <glyph glyph-name="Aring" unicode="&#xc5;" horiz-adv-x="609" 
d="M303 761c-52 0 -94 42 -94 95s42 96 94 96c54 0 97 -43 97 -96s-43 -95 -97 -95zM303 910c-29 0 -52 -24 -52 -54s23 -53 52 -53c31 0 55 23 55 53s-24 54 -55 54zM533 0l-69 183h-318l-69 -183h-70l263 689h70l262 -689h-69zM169 242h272l-136 359z" />
    <glyph glyph-name="Aringacute" unicode="&#x1fa;" horiz-adv-x="609" 
d="M303 761c-52 0 -94 42 -94 95c0 44 29 81 68 92l47 80h77l-61 -83c36 -15 60 -49 60 -89c0 -53 -43 -95 -97 -95zM303 910c-29 0 -52 -24 -52 -54s23 -53 52 -53c31 0 55 23 55 53s-24 54 -55 54zM533 0l-69 183h-318l-69 -183h-70l263 689h70l262 -689h-69zM169 242h272
l-136 359z" />
    <glyph glyph-name="Atilde" unicode="&#xc3;" horiz-adv-x="609" 
d="M257 825c-14 0 -30 -15 -31 -46h-47c3 70 40 99 78 99c47 0 67 -47 94 -47c15 0 31 13 32 45h47c-4 -70 -41 -98 -79 -98c-46 0 -65 47 -94 47zM533 0l-69 183h-318l-69 -183h-70l263 689h70l262 -689h-69zM169 242h272l-136 359z" />
    <glyph glyph-name="AE" unicode="&#xc6;" horiz-adv-x="925" 
d="M535 62h338v-62h-403v183h-298l-113 -183h-75l426 689h451v-62h-326v-258h285v-62h-285v-245zM211 246h259v380h-23z" />
    <glyph glyph-name="AEacute" unicode="&#x1fc;" horiz-adv-x="925" 
d="M608 911l-112 -153h-62l97 153h77zM535 62h338v-62h-403v183h-298l-113 -183h-75l426 689h451v-62h-326v-258h285v-62h-285v-245zM211 246h259v380h-23z" />
    <glyph glyph-name="B" unicode="B" horiz-adv-x="628" 
d="M444 367c88 -23 128 -105 128 -177c0 -98 -73 -190 -195 -190h-275v689h250c111 0 183 -63 183 -170c0 -62 -27 -126 -91 -152zM351 627h-183v-234h196c68 0 105 53 105 121c0 70 -45 113 -118 113zM366 62c89 0 140 62 140 133c0 74 -53 140 -143 140h-195v-273h198z
" />
    <glyph glyph-name="C" unicode="C" horiz-adv-x="678" 
d="M398 -10c-193 0 -346 158 -346 353s153 353 346 353c97 0 184 -40 244 -104l-47 -42c-49 52 -120 84 -197 84c-157 0 -280 -131 -280 -291s123 -291 280 -291c77 0 147 32 197 84l47 -42c-60 -64 -147 -104 -244 -104z" />
    <glyph glyph-name="Cacute" unicode="&#x106;" horiz-adv-x="678" 
d="M308 758l97 153h77l-112 -153h-62zM398 -10c-193 0 -346 158 -346 353s153 353 346 353c97 0 184 -40 244 -104l-47 -42c-49 52 -120 84 -197 84c-157 0 -280 -131 -280 -291s123 -291 280 -291c77 0 147 32 197 84l47 -42c-60 -64 -147 -104 -244 -104z" />
    <glyph glyph-name="Ccaron" unicode="&#x10c;" horiz-adv-x="678" 
d="M345 758l-112 153h59l87 -103l88 103h59l-112 -153h-69zM398 -10c-193 0 -346 158 -346 353s153 353 346 353c97 0 184 -40 244 -104l-47 -42c-49 52 -120 84 -197 84c-157 0 -280 -131 -280 -291s123 -291 280 -291c77 0 147 32 197 84l47 -42
c-60 -64 -147 -104 -244 -104z" />
    <glyph glyph-name="Ccedilla" unicode="&#xc7;" horiz-adv-x="678" 
d="M398 52c77 0 147 32 197 84l47 -42c-56 -60 -136 -99 -225 -103l24 -57c5 -11 9 -28 9 -40c0 -56 -39 -94 -95 -94c-59 0 -97 42 -97 104h47c2 -35 22 -57 50 -57c29 0 47 19 47 48c0 6 -1 14 -4 21l-29 75c-179 15 -317 167 -317 352c0 195 153 353 346 353
c97 0 184 -40 244 -104l-47 -42c-49 52 -120 84 -197 84c-157 0 -280 -131 -280 -291s123 -291 280 -291z" />
    <glyph glyph-name="Cdotaccent" unicode="&#x10a;" horiz-adv-x="678" 
d="M385 783c-27 0 -49 19 -49 45c0 27 22 46 49 46c28 0 49 -19 49 -46c0 -26 -21 -45 -49 -45zM398 -10c-193 0 -346 158 -346 353s153 353 346 353c97 0 184 -40 244 -104l-47 -42c-49 52 -120 84 -197 84c-157 0 -280 -131 -280 -291s123 -291 280 -291
c77 0 147 32 197 84l47 -42c-60 -64 -147 -104 -244 -104z" />
    <glyph glyph-name="D" unicode="D" horiz-adv-x="726" 
d="M102 0v689h261c195 0 308 -150 308 -346c0 -195 -113 -343 -308 -343h-261zM168 62h195c157 0 242 122 242 281c0 160 -85 284 -242 284h-195v-565z" />
    <glyph glyph-name="Eth" unicode="&#xd0;" horiz-adv-x="730" 
d="M367 689c195 0 307 -150 307 -346c0 -195 -112 -343 -307 -343h-262v317h-78v51h78v321h262zM367 62c156 0 241 122 241 281c0 160 -85 284 -241 284h-196v-259h191v-51h-191v-255h196z" />
    <glyph glyph-name="Dcaron" unicode="&#x10e;" horiz-adv-x="726" 
d="M288 758l-112 153h59l87 -103l88 103h59l-112 -153h-69zM102 0v689h261c195 0 308 -150 308 -346c0 -195 -113 -343 -308 -343h-261zM168 62h195c157 0 242 122 242 281c0 160 -85 284 -242 284h-195v-565z" />
    <glyph glyph-name="Dcroat" unicode="&#x110;" horiz-adv-x="730" 
d="M367 689c195 0 307 -150 307 -346c0 -195 -112 -343 -307 -343h-262v317h-78v51h78v321h262zM367 62c156 0 241 122 241 281c0 160 -85 284 -241 284h-196v-259h191v-51h-191v-255h196z" />
    <glyph glyph-name="E" unicode="E" horiz-adv-x="558" 
d="M167 62h339v-62h-404v689h393v-62h-328v-258h286v-62h-286v-245z" />
    <glyph glyph-name="Eacute" unicode="&#xc9;" horiz-adv-x="558" 
d="M427 911l-112 -153h-62l97 153h77zM167 62h339v-62h-404v689h393v-62h-328v-258h286v-62h-286v-245z" />
    <glyph glyph-name="Ecaron" unicode="&#x11a;" horiz-adv-x="558" 
d="M315 758h-69l-112 153h59l87 -103l88 103h59zM167 62h339v-62h-404v689h393v-62h-328v-258h286v-62h-286v-245z" />
    <glyph glyph-name="Ecircumflex" unicode="&#xca;" horiz-adv-x="558" 
d="M280 862l-87 -104h-59l112 153h69l112 -153h-59zM167 62h339v-62h-404v689h393v-62h-328v-258h286v-62h-286v-245z" />
    <glyph glyph-name="Edieresis" unicode="&#xcb;" horiz-adv-x="558" 
d="M195 788c-26 0 -48 19 -48 45c0 27 22 46 48 46c27 0 49 -19 49 -46c0 -26 -22 -45 -49 -45zM364 788c-26 0 -48 19 -48 45c0 27 22 46 48 46c27 0 49 -19 49 -46c0 -26 -22 -45 -49 -45zM167 62h339v-62h-404v689h393v-62h-328v-258h286v-62h-286v-245z" />
    <glyph glyph-name="Edotaccent" unicode="&#x116;" horiz-adv-x="558" 
d="M281 783c-27 0 -49 19 -49 45c0 27 22 46 49 46c28 0 49 -19 49 -46c0 -26 -21 -45 -49 -45zM167 62h339v-62h-404v689h393v-62h-328v-258h286v-62h-286v-245z" />
    <glyph glyph-name="Egrave" unicode="&#xc8;" horiz-adv-x="558" 
d="M313 758h-62l-111 153h78zM167 62h339v-62h-404v689h393v-62h-328v-258h286v-62h-286v-245z" />
    <glyph glyph-name="Emacron" unicode="&#x112;" horiz-adv-x="558" 
d="M402 860v-57h-242v57h242zM167 62h339v-62h-404v689h393v-62h-328v-258h286v-62h-286v-245z" />
    <glyph glyph-name="Eogonek" unicode="&#x118;" horiz-adv-x="558" 
d="M396 0l-32 -84c-3 -7 -4 -15 -4 -21c0 -29 18 -48 48 -48c27 0 48 22 50 57h46c0 -62 -38 -104 -96 -104c-57 0 -96 38 -96 94c0 12 5 29 10 40l27 66h-247v689h393v-62h-328v-258h286v-62h-286v-245h339v-62h-110z" />
    <glyph glyph-name="F" unicode="F" horiz-adv-x="519" 
d="M490 627h-322v-258h255v-62h-255v-307h-66v689h388v-62z" />
    <glyph glyph-name="G" unicode="G" horiz-adv-x="756" 
d="M401 -10c-196 0 -348 158 -348 353c0 196 152 354 348 354c84 0 161 -31 219 -80l-44 -45c-47 38 -109 63 -175 63c-159 0 -282 -132 -282 -292s123 -291 282 -291c130 0 231 74 249 208l1 15h-207v59h279c-3 -233 -135 -344 -322 -344z" />
    <glyph glyph-name="Gbreve" unicode="&#x11e;" horiz-adv-x="756" 
d="M379 774c-86 0 -121 58 -121 124h54c0 -42 22 -73 67 -73c41 0 66 31 66 73h56c0 -77 -49 -124 -122 -124zM401 -10c-196 0 -348 158 -348 353c0 196 152 354 348 354c84 0 161 -31 219 -80l-44 -45c-47 38 -109 63 -175 63c-159 0 -282 -132 -282 -292
s123 -291 282 -291c130 0 231 74 249 208l1 15h-207v59h279c-3 -233 -135 -344 -322 -344z" />
    <glyph glyph-name="Gcommaaccent" unicode="&#x122;" horiz-adv-x="756" 
d="M401 -10c-196 0 -348 158 -348 353c0 196 152 354 348 354c84 0 161 -31 219 -80l-44 -45c-47 38 -109 63 -175 63c-159 0 -282 -132 -282 -292s123 -291 282 -291c130 0 231 74 249 208l1 15h-207v59h279c-3 -233 -135 -344 -322 -344zM337 -226l-40 16
c38 46 57 95 52 171h65c1 -84 -34 -153 -77 -187z" />
    <glyph glyph-name="Gdotaccent" unicode="&#x120;" horiz-adv-x="756" 
d="M380 783c-27 0 -49 19 -49 45c0 27 22 46 49 46c28 0 49 -19 49 -46c0 -26 -21 -45 -49 -45zM401 -10c-196 0 -348 158 -348 353c0 196 152 354 348 354c84 0 161 -31 219 -80l-44 -45c-47 38 -109 63 -175 63c-159 0 -282 -132 -282 -292s123 -291 282 -291
c130 0 231 74 249 208l1 15h-207v59h279c-3 -233 -135 -344 -322 -344z" />
    <glyph glyph-name="H" unicode="H" horiz-adv-x="715" 
d="M547 689h66v-689h-66v313h-379v-313h-66v689h66v-317h379v317z" />
    <glyph glyph-name="Hbar" unicode="&#x126;" horiz-adv-x="717" 
d="M686 559v-46h-72v-513h-66v313h-380v-313h-66v513h-66v46h66v130h66v-130h380v130h66v-130h72zM548 372v141h-380v-141h380z" />
    <glyph glyph-name="I" unicode="I" horiz-adv-x="269" 
d="M102 0v689h66v-689h-66z" />
    <glyph glyph-name="IJ" unicode="&#x132;" horiz-adv-x="546" 
d="M102 0v689h66v-689h-66zM239 -233c-18 0 -42 4 -62 7l7 63c15 -4 45 -6 55 -6c102 0 140 70 140 155v703h66v-703c0 -119 -56 -219 -206 -219z" />
    <glyph glyph-name="Iacute" unicode="&#xcd;" horiz-adv-x="269" 
d="M107 758l97 153h77l-112 -153h-62zM102 0v689h66v-689h-66z" />
    <glyph glyph-name="uni01CF" unicode="&#x1cf;" horiz-adv-x="269" 
d="M100 758l-112 153h59l87 -103l88 103h59l-112 -153h-69zM102 0v689h66v-689h-66z" />
    <glyph glyph-name="Icircumflex" unicode="&#xce;" horiz-adv-x="269" 
d="M-12 758l112 153h69l112 -153h-59l-88 104l-87 -104h-59zM102 0v689h66v-689h-66z" />
    <glyph glyph-name="Idieresis" unicode="&#xcf;" horiz-adv-x="269" 
d="M49 788c-26 0 -48 19 -48 45c0 27 22 46 48 46c27 0 49 -19 49 -46c0 -26 -22 -45 -49 -45zM218 788c-26 0 -48 19 -48 45c0 27 22 46 48 46c27 0 49 -19 49 -46c0 -26 -22 -45 -49 -45zM102 0v689h66v-689h-66z" />
    <glyph glyph-name="Idotaccent" unicode="&#x130;" horiz-adv-x="269" 
d="M135 783c-27 0 -49 19 -49 45c0 27 22 46 49 46c28 0 49 -19 49 -46c0 -26 -21 -45 -49 -45zM102 0v689h66v-689h-66z" />
    <glyph glyph-name="Igrave" unicode="&#xcc;" horiz-adv-x="269" 
d="M105 758l-111 153h78l95 -153h-62zM102 0v689h66v-689h-66z" />
    <glyph glyph-name="Imacron" unicode="&#x12a;" horiz-adv-x="269" 
d="M14 803v57h242v-57h-242zM102 0v689h66v-689h-66z" />
    <glyph glyph-name="Iogonek" unicode="&#x12e;" horiz-adv-x="269" 
d="M204 -96h47c0 -62 -38 -104 -97 -104c-56 0 -95 38 -95 94c0 12 4 29 9 40l34 79v676h66v-689h-25l-32 -84c-3 -7 -4 -15 -4 -21c0 -29 18 -48 47 -48c28 0 48 22 50 57z" />
    <glyph glyph-name="Itilde" unicode="&#x128;" horiz-adv-x="269" 
d="M9 779c3 70 40 99 78 99c47 0 67 -47 94 -47c15 0 31 13 32 45h47c-4 -70 -41 -98 -79 -98c-46 0 -65 47 -94 47c-14 0 -30 -15 -31 -46h-47zM102 0v689h66v-689h-66z" />
    <glyph glyph-name="J" unicode="J" horiz-adv-x="277" 
d="M-30 -233c-18 0 -42 4 -62 7l7 63c15 -4 45 -6 55 -6c102 0 140 70 140 155v703h66v-703c0 -119 -56 -219 -206 -219z" />
    <glyph glyph-name="Jcircumflex" unicode="&#x134;" horiz-adv-x="277" 
d="M-4 758l112 153h69l112 -153h-59l-88 104l-87 -104h-59zM-30 -233c-18 0 -42 4 -62 7l7 63c15 -4 45 -6 55 -6c102 0 140 70 140 155v703h66v-703c0 -119 -56 -219 -206 -219z" />
    <glyph glyph-name="K" unicode="K" horiz-adv-x="547" 
d="M557 0h-89l-301 303v-303h-65v689h65v-324l258 324h82l-282 -353z" />
    <glyph glyph-name="Kcommaaccent" unicode="&#x136;" horiz-adv-x="547" 
d="M225 336l332 -336h-89l-301 303v-303h-65v689h65v-324l258 324h82zM247 -39h65c1 -84 -34 -153 -77 -187l-40 16c38 46 57 95 52 171z" />
    <glyph glyph-name="L" unicode="L" horiz-adv-x="484" 
d="M102 0v689h66v-627h293v-62h-359z" />
    <glyph glyph-name="Lacute" unicode="&#x139;" horiz-adv-x="484" 
d="M104 758l97 153h77l-112 -153h-62zM102 0v689h66v-627h293v-62h-359z" />
    <glyph glyph-name="Lcaron" unicode="&#x13d;" horiz-adv-x="486" 
d="M102 0v689h66v-627h293v-62h-359zM316 513l-44 12c34 50 49 98 43 164h64c0 -89 -28 -137 -63 -176z" />
    <glyph glyph-name="Lcommaaccent" unicode="&#x13b;" horiz-adv-x="484" 
d="M102 0v689h66v-627h293v-62h-359zM204 -226l-40 16c38 46 57 95 52 171h65c1 -84 -34 -153 -77 -187z" />
    <glyph glyph-name="Lslash" unicode="&#x141;" horiz-adv-x="486" 
d="M170 62h293v-62h-359v262l-71 -45v54l71 45v373h66v-332l108 68v-54l-108 -68v-241z" />
    <glyph glyph-name="M" unicode="M" horiz-adv-x="947" 
d="M886 0h-65l-71 571l-245 -500h-61l-247 502l-71 -573h-64l85 689h62l265 -547l265 547h61z" />
    <glyph glyph-name="N" unicode="N" horiz-adv-x="690" 
d="M523 689h66v-689h-68l-353 574v-574h-66v689h69l352 -573v573z" />
    <glyph glyph-name="Nacute" unicode="&#x143;" horiz-adv-x="690" 
d="M491 911l-112 -153h-62l97 153h77zM523 689h66v-689h-68l-353 574v-574h-66v689h69l352 -573v573z" />
    <glyph glyph-name="Ncaron" unicode="&#x147;" horiz-adv-x="690" 
d="M379 758h-69l-112 153h59l87 -103l88 103h59zM523 689h66v-689h-68l-353 574v-574h-66v689h69l352 -573v573z" />
    <glyph glyph-name="Ncommaaccent" unicode="&#x145;" horiz-adv-x="690" 
d="M523 689h66v-689h-68l-353 574v-574h-66v689h69l352 -573v573zM314 -39h65c1 -84 -34 -153 -77 -187l-40 16c38 46 57 95 52 171z" />
    <glyph glyph-name="Eng" unicode="&#x14a;" horiz-adv-x="690" 
d="M523 689h66v-697c0 -119 -56 -219 -206 -219c-18 0 -42 4 -62 8l7 63c15 -4 45 -6 55 -6c102 0 140 70 140 154l-4 12l-351 570v-574h-66v689h69l352 -573v573z" />
    <glyph glyph-name="Ntilde" unicode="&#xd1;" horiz-adv-x="690" 
d="M297 825c-14 0 -30 -15 -31 -46h-47c3 70 40 99 78 99c47 0 67 -47 94 -47c15 0 31 13 32 45h47c-4 -70 -41 -98 -79 -98c-46 0 -65 47 -94 47zM523 689h66v-689h-68l-353 574v-574h-66v689h69l352 -573v573z" />
    <glyph glyph-name="O" unicode="O" horiz-adv-x="801" 
d="M400 -10c-196 0 -348 158 -348 353c0 196 152 354 348 354s348 -158 348 -354c0 -195 -152 -353 -348 -353zM400 52c159 0 282 131 282 291s-123 292 -282 292s-282 -132 -282 -292s123 -291 282 -291z" />
    <glyph glyph-name="Oacute" unicode="&#xd3;" horiz-adv-x="801" 
d="M373 758l97 153h77l-112 -153h-62zM400 -10c-196 0 -348 158 -348 353c0 196 152 354 348 354s348 -158 348 -354c0 -195 -152 -353 -348 -353zM400 52c159 0 282 131 282 291s-123 292 -282 292s-282 -132 -282 -292s123 -291 282 -291z" />
    <glyph glyph-name="uni01D1" unicode="&#x1d1;" horiz-adv-x="801" 
d="M366 758l-112 153h59l87 -103l88 103h59l-112 -153h-69zM400 -10c-196 0 -348 158 -348 353c0 196 152 354 348 354s348 -158 348 -354c0 -195 -152 -353 -348 -353zM400 52c159 0 282 131 282 291s-123 292 -282 292s-282 -132 -282 -292s123 -291 282 -291z" />
    <glyph glyph-name="Ocircumflex" unicode="&#xd4;" horiz-adv-x="801" 
d="M254 758l112 153h69l112 -153h-59l-88 104l-87 -104h-59zM400 -10c-196 0 -348 158 -348 353c0 196 152 354 348 354s348 -158 348 -354c0 -195 -152 -353 -348 -353zM400 52c159 0 282 131 282 291s-123 292 -282 292s-282 -132 -282 -292s123 -291 282 -291z" />
    <glyph glyph-name="Odieresis" unicode="&#xd6;" horiz-adv-x="801" 
d="M315 788c-26 0 -48 19 -48 45c0 27 22 46 48 46c27 0 49 -19 49 -46c0 -26 -22 -45 -49 -45zM484 788c-26 0 -48 19 -48 45c0 27 22 46 48 46c27 0 49 -19 49 -46c0 -26 -22 -45 -49 -45zM400 -10c-196 0 -348 158 -348 353c0 196 152 354 348 354s348 -158 348 -354
c0 -195 -152 -353 -348 -353zM400 52c159 0 282 131 282 291s-123 292 -282 292s-282 -132 -282 -292s123 -291 282 -291z" />
    <glyph glyph-name="Ograve" unicode="&#xd2;" horiz-adv-x="801" 
d="M371 758l-111 153h78l95 -153h-62zM400 -10c-196 0 -348 158 -348 353c0 196 152 354 348 354s348 -158 348 -354c0 -195 -152 -353 -348 -353zM400 52c159 0 282 131 282 291s-123 292 -282 292s-282 -132 -282 -292s123 -291 282 -291z" />
    <glyph glyph-name="Ohungarumlaut" unicode="&#x150;" horiz-adv-x="801" 
d="M312 758l87 153h64l-94 -153h-57zM437 758l92 153h66l-102 -153h-56zM400 -10c-196 0 -348 158 -348 353c0 196 152 354 348 354s348 -158 348 -354c0 -195 -152 -353 -348 -353zM400 52c159 0 282 131 282 291s-123 292 -282 292s-282 -132 -282 -292s123 -291 282 -291
z" />
    <glyph glyph-name="Omacron" unicode="&#x14c;" horiz-adv-x="801" 
d="M280 803v57h242v-57h-242zM400 -10c-196 0 -348 158 -348 353c0 196 152 354 348 354s348 -158 348 -354c0 -195 -152 -353 -348 -353zM400 52c159 0 282 131 282 291s-123 292 -282 292s-282 -132 -282 -292s123 -291 282 -291z" />
    <glyph glyph-name="Oslash" unicode="&#xd8;" horiz-adv-x="806" 
d="M752 664l-86 -88c53 -62 85 -144 85 -233c0 -195 -152 -353 -348 -353c-88 0 -167 32 -227 84l-85 -86l-36 36l85 86c-53 63 -85 144 -85 233c0 196 152 354 348 354c88 0 168 -32 228 -85l85 86zM121 343c0 -71 24 -136 64 -186l401 409c-49 43 -112 69 -183 69
c-159 0 -282 -132 -282 -292zM685 343c0 71 -24 136 -64 187l-401 -410c49 -42 113 -68 183 -68c159 0 282 131 282 291z" />
    <glyph glyph-name="Oslashacute" unicode="&#x1fe;" horiz-adv-x="806" 
d="M549 911l-112 -153h-62l97 153h77zM752 664l-86 -88c53 -62 85 -144 85 -233c0 -195 -152 -353 -348 -353c-88 0 -167 32 -227 84l-85 -86l-36 36l85 86c-53 63 -85 144 -85 233c0 196 152 354 348 354c88 0 168 -32 228 -85l85 86zM121 343c0 -71 24 -136 64 -186
l401 409c-49 43 -112 69 -183 69c-159 0 -282 -132 -282 -292zM685 343c0 71 -24 136 -64 187l-401 -410c49 -42 113 -68 183 -68c159 0 282 131 282 291z" />
    <glyph glyph-name="Otilde" unicode="&#xd5;" horiz-adv-x="801" 
d="M275 779c3 70 40 99 78 99c47 0 67 -47 94 -47c15 0 31 13 32 45h47c-4 -70 -41 -98 -79 -98c-46 0 -65 47 -94 47c-14 0 -30 -15 -31 -46h-47zM400 -10c-196 0 -348 158 -348 353c0 196 152 354 348 354s348 -158 348 -354c0 -195 -152 -353 -348 -353zM400 52
c159 0 282 131 282 291s-123 292 -282 292s-282 -132 -282 -292s123 -291 282 -291z" />
    <glyph glyph-name="OE" unicode="&#x152;" horiz-adv-x="1140" 
d="M749 62h338v-62h-404v140c-61 -91 -164 -150 -283 -150c-196 0 -348 158 -348 353c0 196 152 354 348 354c119 0 222 -59 283 -150v142h393v-62h-327v-258h286v-62h-286v-245zM400 52c159 0 282 131 282 291s-123 292 -282 292s-282 -132 -282 -292s123 -291 282 -291z
" />
    <glyph glyph-name="P" unicode="P" horiz-adv-x="607" 
d="M373 689c141 0 197 -104 197 -210c0 -107 -56 -210 -200 -210h-202v-269h-66v689h271zM367 331c99 0 137 73 137 148c0 74 -37 148 -132 148h-204v-296h199z" />
    <glyph glyph-name="Thorn" unicode="&#xde;" horiz-adv-x="581" 
d="M330 553c114 0 205 -80 205 -206c0 -127 -91 -210 -205 -210h-162v-137h-66v689h66v-136h162zM331 199c78 0 140 60 140 148c0 89 -65 144 -144 144h-159v-292h163z" />
    <glyph glyph-name="Q" unicode="Q" horiz-adv-x="801" 
d="M748 343c0 -130 -68 -244 -172 -305l77 -122l-52 -31l-79 127c-38 -14 -79 -22 -122 -22c-196 0 -348 158 -348 353c0 196 152 354 348 354s348 -158 348 -354zM400 52c31 0 60 5 87 14l-78 125l51 32l83 -132c84 51 139 145 139 252c0 160 -123 292 -282 292
s-282 -132 -282 -292s123 -291 282 -291z" />
    <glyph glyph-name="R" unicode="R" horiz-adv-x="614" 
d="M557 479c0 -105 -54 -206 -196 -209l191 -270h-80l-189 270h-115v-270h-66v689h256c144 0 199 -104 199 -210zM168 627v-296h174c108 0 149 66 149 148s-44 148 -132 148h-191z" />
    <glyph glyph-name="Racute" unicode="&#x154;" horiz-adv-x="614" 
d="M454 911l-112 -153h-62l97 153h77zM557 479c0 -105 -54 -206 -196 -209l191 -270h-80l-189 270h-115v-270h-66v689h256c144 0 199 -104 199 -210zM168 627v-296h174c108 0 149 66 149 148s-44 148 -132 148h-191z" />
    <glyph glyph-name="Rcaron" unicode="&#x158;" horiz-adv-x="614" 
d="M342 758h-69l-112 153h59l87 -103l88 103h59zM557 479c0 -105 -54 -206 -196 -209l191 -270h-80l-189 270h-115v-270h-66v689h256c144 0 199 -104 199 -210zM168 627v-296h174c108 0 149 66 149 148s-44 148 -132 148h-191z" />
    <glyph glyph-name="Rcommaaccent" unicode="&#x156;" horiz-adv-x="614" 
d="M557 479c0 -105 -54 -206 -196 -209l191 -270h-80l-189 270h-115v-270h-66v689h256c144 0 199 -104 199 -210zM168 627v-296h174c108 0 149 66 149 148s-44 148 -132 148h-191zM277 -39h65c1 -84 -34 -153 -77 -187l-40 16c38 46 57 95 52 171z" />
    <glyph glyph-name="S" unicode="S" horiz-adv-x="566" 
d="M286 -10c-135 0 -226 95 -231 195h65c7 -68 69 -133 166 -133c110 0 165 70 165 135c0 75 -67 111 -135 128l-93 22c-142 34 -163 117 -163 172c0 114 105 188 219 188c117 0 210 -72 214 -187h-66c-4 76 -67 125 -150 125c-78 0 -151 -49 -151 -126
c0 -32 10 -87 113 -111l93 -22c109 -27 185 -86 185 -186c0 -97 -80 -200 -231 -200z" />
    <glyph glyph-name="Sacute" unicode="&#x15a;" horiz-adv-x="566" 
d="M255 758l97 153h77l-112 -153h-62zM286 -10c-135 0 -226 95 -231 195h65c7 -68 69 -133 166 -133c110 0 165 70 165 135c0 75 -67 111 -135 128l-93 22c-142 34 -163 117 -163 172c0 114 105 188 219 188c117 0 210 -72 214 -187h-66c-4 76 -67 125 -150 125
c-78 0 -151 -49 -151 -126c0 -32 10 -87 113 -111l93 -22c109 -27 185 -86 185 -186c0 -97 -80 -200 -231 -200z" />
    <glyph glyph-name="Scaron" unicode="&#x160;" horiz-adv-x="566" 
d="M248 758l-112 153h59l87 -103l88 103h59l-112 -153h-69zM286 -10c-135 0 -226 95 -231 195h65c7 -68 69 -133 166 -133c110 0 165 70 165 135c0 75 -67 111 -135 128l-93 22c-142 34 -163 117 -163 172c0 114 105 188 219 188c117 0 210 -72 214 -187h-66
c-4 76 -67 125 -150 125c-78 0 -151 -49 -151 -126c0 -32 10 -87 113 -111l93 -22c109 -27 185 -86 185 -186c0 -97 -80 -200 -231 -200z" />
    <glyph glyph-name="Scedilla" unicode="&#x15e;" horiz-adv-x="566" 
d="M517 190c0 -88 -66 -181 -191 -197l25 -59c5 -11 9 -28 9 -40c0 -56 -39 -94 -95 -94c-59 0 -97 42 -97 104h47c2 -35 22 -57 50 -57c29 0 47 19 47 48c0 6 -1 14 -4 21l-28 74c-132 3 -220 97 -225 195h65c7 -68 69 -133 166 -133c110 0 165 70 165 135
c0 75 -67 111 -135 128l-93 22c-142 34 -163 117 -163 172c0 114 105 188 219 188c117 0 210 -72 214 -187h-66c-4 76 -67 125 -150 125c-78 0 -151 -49 -151 -126c0 -32 10 -87 113 -111l93 -22c109 -27 185 -86 185 -186z" />
    <glyph glyph-name="Scommaaccent" unicode="&#x218;" horiz-adv-x="566" 
d="M286 -10c-135 0 -226 95 -231 195h65c7 -68 69 -133 166 -133c110 0 165 70 165 135c0 75 -67 111 -135 128l-93 22c-142 34 -163 117 -163 172c0 114 105 188 219 188c117 0 210 -72 214 -187h-66c-4 76 -67 125 -150 125c-78 0 -151 -49 -151 -126
c0 -32 10 -87 113 -111l93 -22c109 -27 185 -86 185 -186c0 -97 -80 -200 -231 -200zM240 -226l-40 16c38 46 57 95 52 171h65c1 -84 -34 -153 -77 -187z" />
    <glyph glyph-name="uni1E9E" unicode="&#x1e9e;" horiz-adv-x="670" 
d="M425 415c124 -21 197 -107 197 -207c0 -134 -97 -218 -243 -218c-31 -1 -73 4 -105 14l14 57c23 -7 59 -11 91 -11c106 0 177 61 177 160c0 81 -70 143 -174 149l-24 1l-11 52l128 206c-39 12 -96 17 -127 17c-128 0 -188 -61 -188 -198v-437h-66v438
c0 173 87 259 255 259c64 0 165 -17 217 -41v-12z" />
    <glyph glyph-name="T" unicode="T" horiz-adv-x="547" 
d="M526 689v-62h-220v-627h-66v627h-219v62h505z" />
    <glyph glyph-name="Tbar" unicode="&#x166;" horiz-adv-x="564" 
d="M535 627h-220v-242h129v-49h-129v-336h-66v336h-129v49h129v242h-219v62h505v-62z" />
    <glyph glyph-name="Tcaron" unicode="&#x164;" horiz-adv-x="547" 
d="M308 758h-69l-112 153h59l87 -103l88 103h59zM526 689v-62h-220v-627h-66v627h-219v62h505z" />
    <glyph glyph-name="uni0162" unicode="&#x162;" horiz-adv-x="547" 
d="M526 627h-220v-606l37 -87c5 -11 10 -28 10 -40c0 -56 -39 -94 -96 -94c-58 0 -97 42 -97 104h47c2 -35 23 -57 50 -57c29 0 48 19 48 48c0 6 -2 14 -5 21l-31 84h-29v627h-219v62h505v-62z" />
    <glyph glyph-name="uni021A" unicode="&#x21a;" horiz-adv-x="547" 
d="M21 689h505v-62h-220v-627h-66v627h-219v62zM243 -39h65c1 -84 -34 -153 -77 -187l-40 16c38 46 57 95 52 171z" />
    <glyph glyph-name="U" unicode="U" horiz-adv-x="678" 
d="M339 -10c-133 0 -246 91 -246 242v457h66v-457c0 -115 82 -179 180 -179s180 64 180 179v457h66v-457c0 -151 -113 -242 -246 -242z" />
    <glyph glyph-name="Uacute" unicode="&#xda;" horiz-adv-x="678" 
d="M311 758l97 153h77l-112 -153h-62zM339 -10c-133 0 -246 91 -246 242v457h66v-457c0 -115 82 -179 180 -179s180 64 180 179v457h66v-457c0 -151 -113 -242 -246 -242z" />
    <glyph glyph-name="uni01D3" unicode="&#x1d3;" horiz-adv-x="678" 
d="M304 758l-112 153h59l87 -103l88 103h59l-112 -153h-69zM339 -10c-133 0 -246 91 -246 242v457h66v-457c0 -115 82 -179 180 -179s180 64 180 179v457h66v-457c0 -151 -113 -242 -246 -242z" />
    <glyph glyph-name="Ucircumflex" unicode="&#xdb;" horiz-adv-x="678" 
d="M192 758l112 153h69l112 -153h-59l-88 104l-87 -104h-59zM339 -10c-133 0 -246 91 -246 242v457h66v-457c0 -115 82 -179 180 -179s180 64 180 179v457h66v-457c0 -151 -113 -242 -246 -242z" />
    <glyph glyph-name="Udieresis" unicode="&#xdc;" horiz-adv-x="678" 
d="M253 788c-26 0 -48 19 -48 45c0 27 22 46 48 46c27 0 49 -19 49 -46c0 -26 -22 -45 -49 -45zM422 788c-26 0 -48 19 -48 45c0 27 22 46 48 46c27 0 49 -19 49 -46c0 -26 -22 -45 -49 -45zM339 -10c-133 0 -246 91 -246 242v457h66v-457c0 -115 82 -179 180 -179
s180 64 180 179v457h66v-457c0 -151 -113 -242 -246 -242z" />
    <glyph glyph-name="uni01D7" unicode="&#x1d7;" horiz-adv-x="678" 
d="M311 921l97 153h77l-112 -153h-62zM253 788c-26 0 -48 19 -48 45c0 27 22 46 48 46c27 0 49 -19 49 -46c0 -26 -22 -45 -49 -45zM422 788c-26 0 -48 19 -48 45c0 27 22 46 48 46c27 0 49 -19 49 -46c0 -26 -22 -45 -49 -45zM339 -10c-133 0 -246 91 -246 242v457h66v-457
c0 -115 82 -179 180 -179s180 64 180 179v457h66v-457c0 -151 -113 -242 -246 -242z" />
    <glyph glyph-name="uni01D9" unicode="&#x1d9;" horiz-adv-x="678" 
d="M304 921l-112 153h59l87 -103l88 103h59l-112 -153h-69zM253 788c-26 0 -48 19 -48 45c0 27 22 46 48 46c27 0 49 -19 49 -46c0 -26 -22 -45 -49 -45zM422 788c-26 0 -48 19 -48 45c0 27 22 46 48 46c27 0 49 -19 49 -46c0 -26 -22 -45 -49 -45zM339 -10
c-133 0 -246 91 -246 242v457h66v-457c0 -115 82 -179 180 -179s180 64 180 179v457h66v-457c0 -151 -113 -242 -246 -242z" />
    <glyph glyph-name="uni01DB" unicode="&#x1db;" horiz-adv-x="678" 
d="M309 921l-111 153h78l95 -153h-62zM253 788c-26 0 -48 19 -48 45c0 27 22 46 48 46c27 0 49 -19 49 -46c0 -26 -22 -45 -49 -45zM422 788c-26 0 -48 19 -48 45c0 27 22 46 48 46c27 0 49 -19 49 -46c0 -26 -22 -45 -49 -45zM339 -10c-133 0 -246 91 -246 242v457h66v-457
c0 -115 82 -179 180 -179s180 64 180 179v457h66v-457c0 -151 -113 -242 -246 -242z" />
    <glyph glyph-name="uni01D5" unicode="&#x1d5;" horiz-adv-x="678" 
d="M218 954v57h242v-57h-242zM253 788c-26 0 -48 19 -48 45c0 27 22 46 48 46c27 0 49 -19 49 -46c0 -26 -22 -45 -49 -45zM422 788c-26 0 -48 19 -48 45c0 27 22 46 48 46c27 0 49 -19 49 -46c0 -26 -22 -45 -49 -45zM339 -10c-133 0 -246 91 -246 242v457h66v-457
c0 -115 82 -179 180 -179s180 64 180 179v457h66v-457c0 -151 -113 -242 -246 -242z" />
    <glyph glyph-name="Ugrave" unicode="&#xd9;" horiz-adv-x="678" 
d="M309 758l-111 153h78l95 -153h-62zM339 -10c-133 0 -246 91 -246 242v457h66v-457c0 -115 82 -179 180 -179s180 64 180 179v457h66v-457c0 -151 -113 -242 -246 -242z" />
    <glyph glyph-name="Uhungarumlaut" unicode="&#x170;" horiz-adv-x="678" 
d="M250 758l87 153h64l-94 -153h-57zM375 758l92 153h66l-102 -153h-56zM339 -10c-133 0 -246 91 -246 242v457h66v-457c0 -115 82 -179 180 -179s180 64 180 179v457h66v-457c0 -151 -113 -242 -246 -242z" />
    <glyph glyph-name="Umacron" unicode="&#x16a;" horiz-adv-x="678" 
d="M218 803v57h242v-57h-242zM339 -10c-133 0 -246 91 -246 242v457h66v-457c0 -115 82 -179 180 -179s180 64 180 179v457h66v-457c0 -151 -113 -242 -246 -242z" />
    <glyph glyph-name="Uogonek" unicode="&#x172;" horiz-adv-x="678" 
d="M519 689h66v-457c0 -144 -103 -234 -229 -241l-28 -75c-3 -7 -4 -15 -4 -21c0 -29 18 -48 48 -48c27 0 48 22 50 57h46c0 -62 -38 -104 -96 -104c-57 0 -96 38 -96 94c0 12 5 29 10 40l24 57c-120 13 -217 101 -217 241v457h66v-457c0 -115 82 -179 180 -179
s180 64 180 179v457z" />
    <glyph glyph-name="Uring" unicode="&#x16e;" horiz-adv-x="678" 
d="M337 761c-52 0 -94 42 -94 95s42 96 94 96c54 0 97 -43 97 -96s-43 -95 -97 -95zM337 803c31 0 55 23 55 53s-24 54 -55 54c-29 0 -52 -24 -52 -54s23 -53 52 -53zM339 -10c-133 0 -246 91 -246 242v457h66v-457c0 -115 82 -179 180 -179s180 64 180 179v457h66v-457
c0 -151 -113 -242 -246 -242z" />
    <glyph glyph-name="V" unicode="V" horiz-adv-x="544" 
d="M445 689h68l-206 -689h-69l-209 689h69l174 -585z" />
    <glyph glyph-name="W" unicode="W" horiz-adv-x="905" 
d="M815 689h70l-233 -689h-62l-138 478l-137 -478h-62l-233 689h70l193 -586l141 486h57l141 -489z" />
    <glyph glyph-name="Wacute" unicode="&#x1e82;" horiz-adv-x="905" 
d="M599 911l-112 -153h-62l97 153h77zM815 689h70l-233 -689h-62l-138 478l-137 -478h-62l-233 689h70l193 -586l141 486h57l141 -489z" />
    <glyph glyph-name="Wcircumflex" unicode="&#x174;" horiz-adv-x="905" 
d="M452 862l-87 -104h-59l112 153h69l112 -153h-59zM815 689h70l-233 -689h-62l-138 478l-137 -478h-62l-233 689h70l193 -586l141 486h57l141 -489z" />
    <glyph glyph-name="Wdieresis" unicode="&#x1e84;" horiz-adv-x="905" 
d="M367 788c-26 0 -48 19 -48 45c0 27 22 46 48 46c27 0 49 -19 49 -46c0 -26 -22 -45 -49 -45zM536 788c-26 0 -48 19 -48 45c0 27 22 46 48 46c27 0 49 -19 49 -46c0 -26 -22 -45 -49 -45zM815 689h70l-233 -689h-62l-138 478l-137 -478h-62l-233 689h70l193 -586l141 486
h57l141 -489z" />
    <glyph glyph-name="Wgrave" unicode="&#x1e80;" horiz-adv-x="905" 
d="M485 758h-62l-111 153h78zM815 689h70l-233 -689h-62l-138 478l-137 -478h-62l-233 689h70l193 -586l141 486h57l141 -489z" />
    <glyph glyph-name="X" unicode="X" horiz-adv-x="588" 
d="M579 0h-79l-206 317l-206 -317h-78l245 371l-214 318h79l174 -265l174 265h79l-214 -318z" />
    <glyph glyph-name="Y" unicode="Y" horiz-adv-x="602" 
d="M517 689h79l-263 -366v-323h-66v323l-259 366h78l215 -302z" />
    <glyph glyph-name="Yacute" unicode="&#xdd;" horiz-adv-x="602" 
d="M447 911l-112 -153h-62l97 153h77zM517 689h79l-263 -366v-323h-66v323l-259 366h78l215 -302z" />
    <glyph glyph-name="Ycircumflex" unicode="&#x176;" horiz-adv-x="602" 
d="M300 862l-87 -104h-59l112 153h69l112 -153h-59zM517 689h79l-263 -366v-323h-66v323l-259 366h78l215 -302z" />
    <glyph glyph-name="Ydieresis" unicode="&#x178;" horiz-adv-x="602" 
d="M215 788c-26 0 -48 19 -48 45c0 27 22 46 48 46c27 0 49 -19 49 -46c0 -26 -22 -45 -49 -45zM384 788c-26 0 -48 19 -48 45c0 27 22 46 48 46c27 0 49 -19 49 -46c0 -26 -22 -45 -49 -45zM517 689h79l-263 -366v-323h-66v323l-259 366h78l215 -302z" />
    <glyph glyph-name="Ygrave" unicode="&#x1ef2;" horiz-adv-x="602" 
d="M333 758h-62l-111 153h78zM517 689h79l-263 -366v-323h-66v323l-259 366h78l215 -302z" />
    <glyph glyph-name="Z" unicode="Z" horiz-adv-x="548" 
d="M505 689v-54l-380 -573h380v-62h-465v53l380 574h-372v62h457z" />
    <glyph glyph-name="Zacute" unicode="&#x179;" horiz-adv-x="548" 
d="M421 911l-112 -153h-62l97 153h77zM505 689v-54l-380 -573h380v-62h-465v53l380 574h-372v62h457z" />
    <glyph glyph-name="Zcaron" unicode="&#x17d;" horiz-adv-x="548" 
d="M309 758h-69l-112 153h59l87 -103l88 103h59zM505 689v-54l-380 -573h380v-62h-465v53l380 574h-372v62h457z" />
    <glyph glyph-name="Zdotaccent" unicode="&#x17b;" horiz-adv-x="548" 
d="M275 783c-27 0 -49 19 -49 45c0 27 22 46 49 46c28 0 49 -19 49 -46c0 -26 -21 -45 -49 -45zM505 689v-54l-380 -573h380v-62h-465v53l380 574h-372v62h457z" />
    <glyph glyph-name="IJ.alt" horiz-adv-x="665" 
d="M102 0v689h66v-689h-66zM364 -10c-17 0 -41 3 -61 7l7 63c15 -4 44 -6 54 -6c102 0 140 70 140 154v481h66v-481c0 -118 -56 -218 -206 -218z" />
    <glyph glyph-name="J.alt" horiz-adv-x="378" 
d="M78 -10c-17 0 -41 3 -62 7l7 63c15 -4 45 -6 55 -6c102 0 140 70 140 154v481h66v-481c0 -118 -56 -218 -206 -218z" />
    <glyph glyph-name="Jcircumflex.alt" horiz-adv-x="378" 
d="M104 758l112 153h69l112 -153h-59l-88 104l-87 -104h-59zM78 -10c-17 0 -41 3 -62 7l7 63c15 -4 45 -6 55 -6c102 0 140 70 140 154v481h66v-481c0 -118 -56 -218 -206 -218z" />
    <glyph glyph-name="W.alt" horiz-adv-x="907" 
d="M811 689h71l-212 -689h-62l-154 553l-155 -553h-62l-212 689h71l171 -582l157 557h59l157 -557z" />
    <glyph glyph-name="Wacute.alt" horiz-adv-x="907" 
d="M604 911l-112 -153h-62l97 153h77zM811 689h71l-212 -689h-62l-154 553l-155 -553h-62l-212 689h71l171 -582l157 557h59l157 -557z" />
    <glyph glyph-name="Wcircumflex.alt" horiz-adv-x="907" 
d="M457 862l-87 -104h-59l112 153h69l112 -153h-59zM811 689h71l-212 -689h-62l-154 553l-155 -553h-62l-212 689h71l171 -582l157 557h59l157 -557z" />
    <glyph glyph-name="Wdieresis.alt" horiz-adv-x="907" 
d="M373 788c-27 0 -49 19 -49 45c0 27 22 46 49 46c26 0 48 -19 48 -46c0 -26 -22 -45 -48 -45zM542 788c-27 0 -49 19 -49 45c0 27 22 46 49 46s48 -19 48 -46c0 -26 -21 -45 -48 -45zM811 689h71l-212 -689h-62l-154 553l-155 -553h-62l-212 689h71l171 -582l157 557h59
l157 -557z" />
    <glyph glyph-name="Wgrave.alt" horiz-adv-x="907" 
d="M490 758h-62l-110 153h77zM811 689h71l-212 -689h-62l-154 553l-155 -553h-62l-212 689h71l171 -582l157 557h59l157 -557z" />
    <glyph glyph-name="A.c2sc" horiz-adv-x="544" 
d="M461 0l-57 146h-264l-57 -146h-69l223 559h70l222 -559h-68zM163 203h218l-109 278z" />
    <glyph glyph-name="Aacute.c2sc" horiz-adv-x="544" 
d="M399 744l-97 -127h-56l82 127h71zM461 0l-57 146h-264l-57 -146h-69l223 559h70l222 -559h-68zM163 203h218l-109 278z" />
    <glyph glyph-name="Abreve.c2sc" horiz-adv-x="544" 
d="M272 630c-74 0 -105 48 -105 101h49c0 -33 18 -57 56 -57c34 0 54 24 54 57h50c0 -63 -42 -101 -104 -101zM461 0l-57 146h-264l-57 -146h-69l223 559h70l222 -559h-68zM163 203h218l-109 278z" />
    <glyph glyph-name="uni01CD.c2sc" horiz-adv-x="544" 
d="M305 617h-66l-96 127h54l74 -83l75 83h54zM461 0l-57 146h-264l-57 -146h-69l223 559h70l222 -559h-68zM163 203h218l-109 278z" />
    <glyph glyph-name="Acircumflex.c2sc" horiz-adv-x="544" 
d="M271 700l-74 -83h-54l96 127h66l95 -127h-54zM461 0l-57 146h-264l-57 -146h-69l223 559h70l222 -559h-68zM163 203h218l-109 278z" />
    <glyph glyph-name="Adieresis.c2sc" horiz-adv-x="544" 
d="M198 641c-24 0 -44 17 -44 40c0 22 20 39 44 39c23 0 43 -17 43 -39c0 -23 -20 -40 -43 -40zM345 641c-23 0 -43 17 -43 40c0 22 20 39 43 39c24 0 44 -17 44 -39c0 -23 -20 -40 -44 -40zM461 0l-57 146h-264l-57 -146h-69l223 559h70l222 -559h-68zM163 203h218
l-109 278z" />
    <glyph glyph-name="Agrave.c2sc" horiz-adv-x="544" 
d="M302 617h-56l-97 127h72zM461 0l-57 146h-264l-57 -146h-69l223 559h70l222 -559h-68zM163 203h218l-109 278z" />
    <glyph glyph-name="Amacron.c2sc" horiz-adv-x="544" 
d="M376 701v-48h-209v48h209zM461 0l-57 146h-264l-57 -146h-69l223 559h70l222 -559h-68zM163 203h218l-109 278z" />
    <glyph glyph-name="Aogonek.c2sc" horiz-adv-x="544" 
d="M540 -78h42c0 -53 -35 -86 -84 -86c-48 0 -82 31 -82 77c0 10 3 24 8 34l31 68l-51 131h-264l-57 -146h-69l223 559h70l222 -559h-38l-29 -68c-2 -6 -3 -13 -3 -18c0 -23 16 -38 39 -38c24 0 40 18 42 46zM163 203h218l-109 278z" />
    <glyph glyph-name="Aring.c2sc" horiz-adv-x="544" 
d="M271 617c-47 0 -83 36 -83 81s36 81 83 81s84 -36 84 -81s-37 -81 -84 -81zM271 744c-26 0 -47 -21 -47 -46s21 -45 47 -45c27 0 48 20 48 45s-21 46 -48 46zM461 0l-57 146h-264l-57 -146h-69l223 559h70l222 -559h-68zM163 203h218l-109 278z" />
    <glyph glyph-name="Aringacute.c2sc" horiz-adv-x="544" 
d="M271 617c-47 0 -83 36 -83 81c0 37 24 67 58 77l42 68h71l-55 -70c30 -12 51 -41 51 -75c0 -45 -37 -81 -84 -81zM271 744c-26 0 -47 -21 -47 -46s21 -45 47 -45c27 0 48 20 48 45s-21 46 -48 46zM461 0l-57 146h-264l-57 -146h-69l223 559h70l222 -559h-68zM163 203h218
l-109 278z" />
    <glyph glyph-name="Atilde.c2sc" horiz-adv-x="544" 
d="M232 671c-12 0 -26 -12 -26 -37h-43c3 59 36 83 69 83c39 0 56 -38 79 -38c12 0 26 11 27 36h42c-3 -59 -37 -82 -69 -82c-38 0 -55 38 -79 38zM461 0l-57 146h-264l-57 -146h-69l223 559h70l222 -559h-68zM163 203h218l-109 278z" />
    <glyph glyph-name="AE.c2sc" horiz-adv-x="808" 
d="M471 59h283v-59h-348v145h-244l-93 -145h-75l357 559h394v-59h-274v-196h239v-59h-239v-186zM200 205h206v294h-18z" />
    <glyph glyph-name="AEacute.c2sc" horiz-adv-x="808" 
d="M531 744l-97 -127h-56l82 127h71zM471 59h283v-59h-348v145h-244l-93 -145h-75l357 559h394v-59h-274v-196h239v-59h-239v-186zM200 205h206v294h-18z" />
    <glyph glyph-name="B.c2sc" horiz-adv-x="556" 
d="M389 298c77 -18 111 -84 111 -143c0 -79 -61 -155 -169 -155h-237v559h216c96 0 158 -52 158 -139c0 -49 -22 -102 -79 -122zM308 500h-149v-178h159c55 0 85 40 85 92s-35 86 -95 86zM321 59c73 0 114 48 114 101c0 56 -44 106 -117 106h-159v-207h162z" />
    <glyph glyph-name="C.c2sc" 
d="M347 -8c-165 0 -295 128 -295 287c0 158 130 286 295 286c85 0 161 -35 212 -90l-47 -40c-41 43 -99 69 -165 69c-130 0 -230 -101 -230 -225s100 -226 230 -226c66 0 124 27 164 69l48 -39c-52 -56 -127 -91 -212 -91z" />
    <glyph glyph-name="Cacute.c2sc" 
d="M271 617l82 127h71l-98 -127h-55zM347 -8c-165 0 -295 128 -295 287c0 158 130 286 295 286c85 0 161 -35 212 -90l-47 -40c-41 43 -99 69 -165 69c-130 0 -230 -101 -230 -225s100 -226 230 -226c66 0 124 27 164 69l48 -39c-52 -56 -127 -91 -212 -91z" />
    <glyph glyph-name="Ccaron.c2sc" 
d="M299 617l-95 127h54l74 -83l74 83h55l-96 -127h-66zM347 -8c-165 0 -295 128 -295 287c0 158 130 286 295 286c85 0 161 -35 212 -90l-47 -40c-41 43 -99 69 -165 69c-130 0 -230 -101 -230 -225s100 -226 230 -226c66 0 124 27 164 69l48 -39c-52 -56 -127 -91 -212 -91
z" />
    <glyph glyph-name="Ccedilla.c2sc" 
d="M347 53c66 0 124 27 164 69l48 -39c-48 -52 -117 -86 -195 -91l21 -45c5 -10 8 -24 8 -34c0 -46 -34 -77 -82 -77c-49 0 -84 33 -84 86h42c2 -28 18 -46 42 -46s39 15 39 38c0 5 -1 12 -3 18l-25 61c-153 12 -270 135 -270 286c0 158 130 286 295 286
c85 0 161 -35 212 -90l-47 -40c-41 43 -99 69 -165 69c-130 0 -230 -101 -230 -225s100 -226 230 -226z" />
    <glyph glyph-name="Cdotaccent.c2sc" 
d="M336 636c-24 0 -44 17 -44 40c0 24 20 41 44 41c25 0 45 -17 45 -41c0 -23 -20 -40 -45 -40zM347 -8c-165 0 -295 128 -295 287c0 158 130 286 295 286c85 0 161 -35 212 -90l-47 -40c-41 43 -99 69 -165 69c-130 0 -230 -101 -230 -225s100 -226 230 -226
c66 0 124 27 164 69l48 -39c-52 -56 -127 -91 -212 -91z" />
    <glyph glyph-name="D.c2sc" horiz-adv-x="635" 
d="M94 0v559h224c166 0 261 -122 261 -281c0 -158 -95 -278 -261 -278h-224zM159 59h159c127 0 197 97 197 219c0 123 -70 222 -197 222h-159v-441z" />
    <glyph glyph-name="Eth.c2sc" horiz-adv-x="639" 
d="M322 559c166 0 262 -122 262 -281c0 -158 -96 -278 -262 -278h-224v253h-66v49h66v257h224zM322 59c128 0 197 97 197 219c0 123 -69 222 -197 222h-159v-198h156v-49h-156v-194h159z" />
    <glyph glyph-name="Dcaron.c2sc" horiz-adv-x="635" 
d="M251 617l-95 127h54l74 -83l74 83h55l-96 -127h-66zM94 0v559h224c166 0 261 -122 261 -281c0 -158 -95 -278 -261 -278h-224zM159 59h159c127 0 197 97 197 219c0 123 -70 222 -197 222h-159v-441z" />
    <glyph glyph-name="Dcroat.c2sc" horiz-adv-x="639" 
d="M322 559c166 0 262 -122 262 -281c0 -158 -96 -278 -262 -278h-224v253h-66v49h66v257h224zM322 59c128 0 197 97 197 219c0 123 -69 222 -197 222h-159v-198h156v-49h-156v-194h159z" />
    <glyph glyph-name="E.c2sc" horiz-adv-x="497" 
d="M158 59h285v-59h-349v559h340v-59h-276v-195h241v-60h-241v-186z" />
    <glyph glyph-name="Eacute.c2sc" horiz-adv-x="497" 
d="M378 744l-98 -127h-56l82 127h72zM158 59h285v-59h-349v559h340v-59h-276v-195h241v-60h-241v-186z" />
    <glyph glyph-name="Ecaron.c2sc" horiz-adv-x="497" 
d="M283 617h-66l-95 127h54l74 -83l74 83h54zM158 59h285v-59h-349v559h340v-59h-276v-195h241v-60h-241v-186z" />
    <glyph glyph-name="Ecircumflex.c2sc" horiz-adv-x="497" 
d="M250 700l-74 -83h-54l95 127h66l95 -127h-54zM158 59h285v-59h-349v559h340v-59h-276v-195h241v-60h-241v-186z" />
    <glyph glyph-name="Edieresis.c2sc" horiz-adv-x="497" 
d="M176 641c-24 0 -43 17 -43 40c0 22 19 39 43 39s43 -17 43 -39c0 -23 -19 -40 -43 -40zM324 641c-24 0 -44 17 -44 40c0 22 20 39 44 39c23 0 43 -17 43 -39c0 -23 -20 -40 -43 -40zM158 59h285v-59h-349v559h340v-59h-276v-195h241v-60h-241v-186z" />
    <glyph glyph-name="Edotaccent.c2sc" horiz-adv-x="497" 
d="M250 636c-25 0 -45 17 -45 40c0 24 20 41 45 41s44 -17 44 -41c0 -23 -19 -40 -44 -40zM158 59h285v-59h-349v559h340v-59h-276v-195h241v-60h-241v-186z" />
    <glyph glyph-name="Egrave.c2sc" horiz-adv-x="497" 
d="M280 617h-55l-97 127h71zM158 59h285v-59h-349v559h340v-59h-276v-195h241v-60h-241v-186z" />
    <glyph glyph-name="Emacron.c2sc" horiz-adv-x="497" 
d="M355 701v-48h-210v48h210zM158 59h285v-59h-349v559h340v-59h-276v-195h241v-60h-241v-186z" />
    <glyph glyph-name="Eogonek.c2sc" horiz-adv-x="497" 
d="M349 0l-28 -68c-3 -6 -3 -13 -3 -18c0 -23 15 -38 38 -38c25 0 41 18 43 46h41c0 -53 -34 -86 -84 -86c-47 0 -82 31 -82 77c0 10 4 24 9 34l24 53h-213v559h340v-59h-276v-195h241v-60h-241v-186h285v-59h-94z" />
    <glyph glyph-name="F.c2sc" horiz-adv-x="465" 
d="M429 500h-270v-196h214v-59h-214v-245h-65v559h335v-59z" />
    <glyph glyph-name="G.c2sc" horiz-adv-x="662" 
d="M349 -8c-167 0 -297 128 -297 286c0 159 130 288 297 288c75 0 141 -27 192 -70l-45 -43c-39 32 -91 51 -147 51c-131 0 -232 -101 -232 -226c0 -124 101 -226 232 -226c106 0 188 54 204 154c1 3 1 9 1 12h-175v56h246c-2 -192 -116 -282 -276 -282z" />
    <glyph glyph-name="Gbreve.c2sc" horiz-adv-x="662" 
d="M332 630c-74 0 -105 48 -105 101h49c0 -33 18 -57 56 -57c35 0 54 24 54 57h50c0 -63 -42 -101 -104 -101zM349 -8c-167 0 -297 128 -297 286c0 159 130 288 297 288c75 0 141 -27 192 -70l-45 -43c-39 32 -91 51 -147 51c-131 0 -232 -101 -232 -226
c0 -124 101 -226 232 -226c106 0 188 54 204 154c1 3 1 9 1 12h-175v56h246c-2 -192 -116 -282 -276 -282z" />
    <glyph glyph-name="Gcommaaccent.c2sc" horiz-adv-x="662" 
d="M349 -8c-167 0 -297 128 -297 286c0 159 130 288 297 288c75 0 141 -27 192 -70l-45 -43c-39 32 -91 51 -147 51c-131 0 -232 -101 -232 -226c0 -124 101 -226 232 -226c106 0 188 54 204 154c1 3 1 9 1 12h-175v56h246c-2 -192 -116 -282 -276 -282zM295 -184l-37 15
c32 36 47 79 45 137h61c1 -65 -31 -124 -69 -152z" />
    <glyph glyph-name="Gdotaccent.c2sc" horiz-adv-x="662" 
d="M332 636c-25 0 -45 17 -45 40c0 24 20 41 45 41s44 -17 44 -41c0 -23 -19 -40 -44 -40zM349 -8c-167 0 -297 128 -297 286c0 159 130 288 297 288c75 0 141 -27 192 -70l-45 -43c-39 32 -91 51 -147 51c-131 0 -232 -101 -232 -226c0 -124 101 -226 232 -226
c106 0 188 54 204 154c1 3 1 9 1 12h-175v56h246c-2 -192 -116 -282 -276 -282z" />
    <glyph glyph-name="H.c2sc" horiz-adv-x="627" 
d="M468 559h65v-559h-65v248h-309v-248h-65v559h65v-252h309v252z" />
    <glyph glyph-name="Hbar.c2sc" horiz-adv-x="629" 
d="M595 457v-41h-61v-416h-65v248h-309v-248h-65v416h-57v41h57v102h65v-102h309v102h65v-102h61zM469 307v109h-309v-109h309z" />
    <glyph glyph-name="I.c2sc" horiz-adv-x="253" 
d="M94 0v559h65v-559h-65z" />
    <glyph glyph-name="IJ.c2sc" horiz-adv-x="483" 
d="M94 0v559h65v-559h-65zM211 -189c-14 0 -37 3 -56 7l6 60c15 -4 42 -5 50 -5c82 0 113 53 113 117v569h65v-569c0 -97 -49 -179 -178 -179z" />
    <glyph glyph-name="Iacute.c2sc" horiz-adv-x="253" 
d="M101 617l82 127h71l-98 -127h-55zM94 0v559h65v-559h-65z" />
    <glyph glyph-name="uni01CF.c2sc" horiz-adv-x="253" 
d="M93 617l-95 127h54l74 -83l74 83h55l-96 -127h-66zM94 0v559h65v-559h-65z" />
    <glyph glyph-name="Icircumflex.c2sc" horiz-adv-x="253" 
d="M-2 617l95 127h66l96 -127h-55l-74 83l-74 -83h-54zM94 0v559h65v-559h-65z" />
    <glyph glyph-name="Idieresis.c2sc" horiz-adv-x="253" 
d="M52 641c-23 0 -43 17 -43 40c0 22 20 39 43 39c25 0 43 -17 43 -39c0 -23 -18 -40 -43 -40zM200 641c-24 0 -44 17 -44 40c0 22 20 39 44 39s43 -17 43 -39c0 -23 -19 -40 -43 -40zM94 0v559h65v-559h-65z" />
    <glyph glyph-name="Idotaccent.c2sc" horiz-adv-x="253" 
d="M126 636c-24 0 -44 17 -44 40c0 24 20 41 44 41c25 0 45 -17 45 -41c0 -23 -20 -40 -45 -40zM94 0v559h65v-559h-65z" />
    <glyph glyph-name="Igrave.c2sc" horiz-adv-x="253" 
d="M100 617l-96 127h71l81 -127h-56zM94 0v559h65v-559h-65z" />
    <glyph glyph-name="Imacron.c2sc" horiz-adv-x="253" 
d="M22 653v48h209v-48h-209zM94 0v559h65v-559h-65z" />
    <glyph glyph-name="Iogonek.c2sc" horiz-adv-x="253" 
d="M181 -78h42c0 -53 -34 -86 -84 -86c-48 0 -82 31 -82 77c0 10 3 24 9 34l28 62v550h65v-559h-27l-29 -68c-2 -6 -3 -13 -3 -18c0 -23 15 -38 39 -38s40 18 42 46z" />
    <glyph glyph-name="Itilde.c2sc" horiz-adv-x="253" 
d="M18 634c3 59 36 83 69 83c39 0 56 -38 79 -38c12 0 26 11 27 36h42c-3 -59 -37 -82 -69 -82c-38 0 -56 38 -79 38c-12 0 -26 -12 -26 -37h-43zM94 0v559h65v-559h-65z" />
    <glyph glyph-name="J.c2sc" horiz-adv-x="261" 
d="M-11 -189c-14 0 -38 3 -56 7l7 60c14 -4 42 -5 49 -5c82 0 113 53 113 117v569h65v-569c0 -97 -48 -179 -178 -179z" />
    <glyph glyph-name="Jcircumflex.c2sc" horiz-adv-x="261" 
d="M6 617l95 127h66l96 -127h-54l-75 83l-74 -83h-54zM-11 -189c-14 0 -38 3 -56 7l7 60c14 -4 42 -5 49 -5c82 0 113 53 113 117v569h65v-569c0 -97 -48 -179 -178 -179z" />
    <glyph glyph-name="K.c2sc" horiz-adv-x="492" 
d="M492 0h-89l-245 236v-236h-64v559h64v-249l209 249h81l-238 -285z" />
    <glyph glyph-name="Kcommaaccent.c2sc" horiz-adv-x="492" 
d="M210 274l282 -274h-89l-245 236v-236h-64v559h64v-249l209 249h81zM220 -32h62c1 -65 -31 -124 -70 -152l-36 15c32 36 47 79 44 137z" />
    <glyph glyph-name="L.c2sc" horiz-adv-x="434" 
d="M94 0v559h65v-500h246v-59h-311z" />
    <glyph glyph-name="Lacute.c2sc" horiz-adv-x="434" 
d="M96 617l82 127h71l-97 -127h-56zM94 0v559h65v-500h246v-59h-311z" />
    <glyph glyph-name="Lcaron.c2sc" horiz-adv-x="436" 
d="M94 0v559h65v-500h246v-59h-311zM287 408l-39 13c30 42 43 82 38 138h60c-2 -78 -28 -118 -59 -151z" />
    <glyph glyph-name="Lcommaaccent.c2sc" horiz-adv-x="434" 
d="M94 0v559h65v-500h246v-59h-311zM183 -184l-36 15c32 36 47 79 44 137h62c0 -65 -32 -124 -70 -152z" />
    <glyph glyph-name="Lslash.c2sc" horiz-adv-x="437" 
d="M162 59h246v-59h-311v212l-62 -38v48l62 38v299h65v-260l91 55v-47l-91 -56v-192z" />
    <glyph glyph-name="M.c2sc" horiz-adv-x="824" 
d="M763 0h-64l-58 441l-200 -382h-57l-201 385l-58 -444h-64l73 559h59l219 -431l219 431h59z" />
    <glyph glyph-name="N.c2sc" horiz-adv-x="606" 
d="M447 559h65v-559h-64l-289 445v-445h-65v559h66l287 -442v442z" />
    <glyph glyph-name="Nacute.c2sc" horiz-adv-x="606" 
d="M430 744l-97 -127h-55l81 127h71zM447 559h65v-559h-64l-289 445v-445h-65v559h66l287 -442v442z" />
    <glyph glyph-name="Ncaron.c2sc" horiz-adv-x="606" 
d="M336 617h-66l-95 127h54l74 -83l74 83h54zM447 559h65v-559h-64l-289 445v-445h-65v559h66l287 -442v442z" />
    <glyph glyph-name="Ncommaaccent.c2sc" horiz-adv-x="606" 
d="M447 559h65v-559h-64l-289 445v-445h-65v559h66l287 -442v442zM230 -169c31 36 46 79 43 137h62c0 -65 -31 -124 -69 -152z" />
    <glyph glyph-name="Eng.c2sc" horiz-adv-x="606" 
d="M447 559h65v-565c0 -97 -48 -179 -178 -179c-14 0 -37 3 -56 7l6 61c15 -4 43 -5 50 -5c83 0 120 55 112 116l-1 13l-286 437v-444h-65v559h66l287 -442v442z" />
    <glyph glyph-name="Ntilde.c2sc" horiz-adv-x="606" 
d="M263 671c-12 0 -25 -12 -26 -37h-42c2 59 35 83 68 83c39 0 57 -38 79 -38c13 0 26 11 27 36h43c-3 -59 -37 -82 -70 -82c-38 0 -55 38 -79 38zM447 559h65v-559h-64l-289 445v-445h-65v559h66l287 -442v442z" />
    <glyph glyph-name="O.c2sc" horiz-adv-x="699" 
d="M349 -8c-166 0 -296 128 -296 287c0 158 130 287 296 287c167 0 297 -129 297 -287c0 -159 -130 -287 -297 -287zM349 53c131 0 232 101 232 226c0 124 -101 225 -232 225s-231 -101 -231 -225c0 -125 100 -226 231 -226z" />
    <glyph glyph-name="Oacute.c2sc" horiz-adv-x="699" 
d="M324 617l82 127h71l-97 -127h-56zM349 -8c-166 0 -296 128 -296 287c0 158 130 287 296 287c167 0 297 -129 297 -287c0 -159 -130 -287 -297 -287zM349 53c131 0 232 101 232 226c0 124 -101 225 -232 225s-231 -101 -231 -225c0 -125 100 -226 231 -226z" />
    <glyph glyph-name="uni01D1.c2sc" horiz-adv-x="699" 
d="M316 617l-95 127h54l74 -83l75 83h54l-95 -127h-67zM349 -8c-166 0 -296 128 -296 287c0 158 130 287 296 287c167 0 297 -129 297 -287c0 -159 -130 -287 -297 -287zM349 53c131 0 232 101 232 226c0 124 -101 225 -232 225s-231 -101 -231 -225
c0 -125 100 -226 231 -226z" />
    <glyph glyph-name="Ocircumflex.c2sc" horiz-adv-x="699" 
d="M221 617l95 127h67l95 -127h-54l-75 83l-74 -83h-54zM349 -8c-166 0 -296 128 -296 287c0 158 130 287 296 287c167 0 297 -129 297 -287c0 -159 -130 -287 -297 -287zM349 53c131 0 232 101 232 226c0 124 -101 225 -232 225s-231 -101 -231 -225
c0 -125 100 -226 231 -226z" />
    <glyph glyph-name="Odieresis.c2sc" horiz-adv-x="699" 
d="M276 641c-24 0 -44 17 -44 40c0 22 20 39 44 39c23 0 43 -17 43 -39c0 -23 -20 -40 -43 -40zM423 641c-24 0 -44 17 -44 40c0 22 20 39 44 39s44 -17 44 -39c0 -23 -20 -40 -44 -40zM349 -8c-166 0 -296 128 -296 287c0 158 130 287 296 287c167 0 297 -129 297 -287
c0 -159 -130 -287 -297 -287zM349 53c131 0 232 101 232 226c0 124 -101 225 -232 225s-231 -101 -231 -225c0 -125 100 -226 231 -226z" />
    <glyph glyph-name="Ograve.c2sc" horiz-adv-x="699" 
d="M324 617l-97 127h71l81 -127h-55zM349 -8c-166 0 -296 128 -296 287c0 158 130 287 296 287c167 0 297 -129 297 -287c0 -159 -130 -287 -297 -287zM349 53c131 0 232 101 232 226c0 124 -101 225 -232 225s-231 -101 -231 -225c0 -125 100 -226 231 -226z" />
    <glyph glyph-name="Ohungarumlaut.c2sc" horiz-adv-x="699" 
d="M273 617l75 127h57l-81 -127h-51zM381 617l79 127h59l-87 -127h-51zM349 -8c-166 0 -296 128 -296 287c0 158 130 287 296 287c167 0 297 -129 297 -287c0 -159 -130 -287 -297 -287zM349 53c131 0 232 101 232 226c0 124 -101 225 -232 225s-231 -101 -231 -225
c0 -125 100 -226 231 -226z" />
    <glyph glyph-name="Omacron.c2sc" horiz-adv-x="699" 
d="M245 653v48h209v-48h-209zM349 -8c-166 0 -296 128 -296 287c0 158 130 287 296 287c167 0 297 -129 297 -287c0 -159 -130 -287 -297 -287zM349 53c131 0 232 101 232 226c0 124 -101 225 -232 225s-231 -101 -231 -225c0 -125 100 -226 231 -226z" />
    <glyph glyph-name="Oslash.c2sc" horiz-adv-x="703" 
d="M649 538l-73 -71c46 -50 73 -116 73 -188c0 -159 -131 -287 -298 -287c-74 0 -141 25 -192 68l-72 -70l-31 30l72 70c-46 50 -73 116 -73 189c0 158 130 286 296 286c75 0 143 -26 195 -69l72 71zM120 279c0 -55 20 -106 53 -145l327 319c-40 32 -91 51 -149 51
c-130 0 -231 -101 -231 -225zM584 279c0 55 -20 105 -53 144l-327 -319c39 -32 90 -51 147 -51c132 0 233 101 233 226z" />
    <glyph glyph-name="Oslashacute.c2sc" horiz-adv-x="703" 
d="M479 744l-98 -127h-55l82 127h71zM649 538l-73 -71c46 -50 73 -116 73 -188c0 -159 -131 -287 -298 -287c-74 0 -141 25 -192 68l-72 -70l-31 30l72 70c-46 50 -73 116 -73 189c0 158 130 286 296 286c75 0 143 -26 195 -69l72 71zM120 279c0 -55 20 -106 53 -145
l327 319c-40 32 -91 51 -149 51c-130 0 -231 -101 -231 -225zM584 279c0 55 -20 105 -53 144l-327 -319c39 -32 90 -51 147 -51c132 0 233 101 233 226z" />
    <glyph glyph-name="Otilde.c2sc" horiz-adv-x="699" 
d="M241 634c3 59 36 83 69 83c39 0 56 -38 78 -38c13 0 27 11 27 36h43c-4 -59 -37 -82 -70 -82c-38 0 -55 38 -78 38c-12 0 -26 -12 -26 -37h-43zM349 -8c-166 0 -296 128 -296 287c0 158 130 287 296 287c167 0 297 -129 297 -287c0 -159 -130 -287 -297 -287zM349 53
c131 0 232 101 232 226c0 124 -101 225 -232 225s-231 -101 -231 -225c0 -125 100 -226 231 -226z" />
    <glyph glyph-name="OE.c2sc" horiz-adv-x="984" 
d="M646 59h284v-59h-348v106c-50 -70 -136 -114 -233 -114c-166 0 -296 128 -296 287c0 158 130 287 296 287c97 0 182 -44 233 -114v107h339v-59h-275v-195h241v-60h-241v-186zM349 53c131 0 232 101 232 226c0 124 -101 225 -232 225s-231 -101 -231 -225
c0 -125 100 -226 231 -226z" />
    <glyph glyph-name="P.c2sc" horiz-adv-x="537" 
d="M326 559c122 0 172 -86 172 -173s-50 -172 -174 -172h-165v-214h-65v559h232zM321 274c81 0 112 55 112 112s-31 114 -108 114h-166v-226h162z" />
    <glyph glyph-name="Thorn.c2sc" horiz-adv-x="519" 
d="M294 452c99 0 177 -67 177 -170c0 -105 -78 -174 -177 -174h-135v-108h-65v559h65v-107h135zM294 168c63 0 114 46 114 113c0 69 -53 111 -118 111h-131v-224h135z" />
    <glyph glyph-name="Q.c2sc" horiz-adv-x="699" 
d="M646 278c0 -104 -57 -195 -143 -245l63 -97l-49 -30l-67 102c-32 -10 -65 -16 -101 -16c-166 0 -296 128 -296 286c0 159 130 288 296 288c167 0 297 -129 297 -288zM349 53c23 0 45 3 66 9l-64 97l50 30l68 -104c68 39 112 111 112 193c0 125 -101 226 -232 226
s-231 -101 -231 -226c0 -124 100 -225 231 -225z" />
    <glyph glyph-name="R.c2sc" horiz-adv-x="545" 
d="M488 386c0 -84 -46 -165 -164 -170l161 -216h-78l-158 216h-90v-216h-65v559h221c124 0 173 -86 173 -173zM159 500v-227h142c88 0 122 51 122 113c0 61 -36 114 -110 114h-154z" />
    <glyph glyph-name="Racute.c2sc" horiz-adv-x="545" 
d="M400 744l-97 -127h-55l82 127h70zM488 386c0 -84 -46 -165 -164 -170l161 -216h-78l-158 216h-90v-216h-65v559h221c124 0 173 -86 173 -173zM159 500v-227h142c88 0 122 51 122 113c0 61 -36 114 -110 114h-154z" />
    <glyph glyph-name="Rcaron.c2sc" horiz-adv-x="545" 
d="M306 617h-66l-95 127h54l74 -83l75 83h54zM488 386c0 -84 -46 -165 -164 -170l161 -216h-78l-158 216h-90v-216h-65v559h221c124 0 173 -86 173 -173zM159 500v-227h142c88 0 122 51 122 113c0 61 -36 114 -110 114h-154z" />
    <glyph glyph-name="Rcommaaccent.c2sc" horiz-adv-x="545" 
d="M488 386c0 -84 -46 -165 -164 -170l161 -216h-78l-158 216h-90v-216h-65v559h221c124 0 173 -86 173 -173zM159 500v-227h142c88 0 122 51 122 113c0 61 -36 114 -110 114h-154zM200 -169c32 36 47 79 44 137h62c0 -65 -32 -124 -70 -152z" />
    <glyph glyph-name="S.c2sc" horiz-adv-x="503" 
d="M254 -8c-117 0 -195 75 -198 160h64c5 -52 57 -101 134 -101c89 0 134 52 134 101c0 55 -52 83 -109 97l-78 19c-122 28 -141 96 -141 143c0 93 89 155 188 155c102 0 181 -59 184 -155h-64c-3 57 -54 95 -121 95c-64 0 -122 -37 -122 -94c0 -25 9 -66 92 -85l77 -18
c91 -22 159 -68 159 -154s-74 -163 -199 -163z" />
    <glyph glyph-name="Sacute.c2sc" horiz-adv-x="503" 
d="M227 617l81 127h71l-97 -127h-55zM254 -8c-117 0 -195 75 -198 160h64c5 -52 57 -101 134 -101c89 0 134 52 134 101c0 55 -52 83 -109 97l-78 19c-122 28 -141 96 -141 143c0 93 89 155 188 155c102 0 181 -59 184 -155h-64c-3 57 -54 95 -121 95
c-64 0 -122 -37 -122 -94c0 -25 9 -66 92 -85l77 -18c91 -22 159 -68 159 -154s-74 -163 -199 -163z" />
    <glyph glyph-name="Scaron.c2sc" horiz-adv-x="503" 
d="M219 617l-95 127h53l75 -83l74 83h54l-95 -127h-66zM254 -8c-117 0 -195 75 -198 160h64c5 -52 57 -101 134 -101c89 0 134 52 134 101c0 55 -52 83 -109 97l-78 19c-122 28 -141 96 -141 143c0 93 89 155 188 155c102 0 181 -59 184 -155h-64c-3 57 -54 95 -121 95
c-64 0 -122 -37 -122 -94c0 -25 9 -66 92 -85l77 -18c91 -22 159 -68 159 -154s-74 -163 -199 -163z" />
    <glyph glyph-name="Scedilla.c2sc" horiz-adv-x="503" 
d="M453 155c0 -78 -61 -149 -165 -161l21 -47c5 -10 8 -24 8 -34c0 -46 -34 -77 -82 -77c-49 0 -84 33 -84 86h43c1 -28 17 -46 41 -46s40 15 40 38c0 5 -2 12 -4 18l-25 60c-113 4 -187 77 -190 160h64c5 -52 57 -101 134 -101c89 0 134 52 134 101c0 55 -52 83 -109 97
l-78 19c-122 28 -141 96 -141 143c0 93 89 155 188 155c102 0 181 -59 184 -155h-64c-3 57 -54 95 -121 95c-64 0 -122 -37 -122 -94c0 -25 9 -66 92 -85l77 -18c91 -22 159 -68 159 -154z" />
    <glyph glyph-name="Scommaaccent.c2sc" horiz-adv-x="503" 
d="M254 -8c-117 0 -195 75 -198 160h64c5 -52 57 -101 134 -101c89 0 134 52 134 101c0 55 -52 83 -109 97l-78 19c-122 28 -141 96 -141 143c0 93 89 155 188 155c102 0 181 -59 184 -155h-64c-3 57 -54 95 -121 95c-64 0 -122 -37 -122 -94c0 -25 9 -66 92 -85l77 -18
c91 -22 159 -68 159 -154s-74 -163 -199 -163zM215 -184l-37 15c32 36 47 79 44 137h63c0 -65 -33 -124 -70 -152z" />
    <glyph glyph-name="uni1E9E.c2sc" horiz-adv-x="593" 
d="M377 337c103 -16 166 -83 166 -166c0 -108 -83 -179 -207 -179c-28 -1 -64 3 -91 12l12 56c19 -7 49 -10 76 -10c87 0 145 48 145 124c0 64 -58 113 -144 117l-22 1l-8 40l103 161c-31 9 -74 13 -99 13c-103 0 -155 -48 -155 -156v-350h-65v350c0 146 78 216 221 216
c56 0 142 -16 187 -37v-10z" />
    <glyph glyph-name="T.c2sc" horiz-adv-x="488" 
d="M460 559v-59h-184v-500h-65v500h-183v59h432z" />
    <glyph glyph-name="Tbar.c2sc" horiz-adv-x="500" 
d="M466 500h-184v-191h106v-42h-106v-267h-65v267h-106v42h106v191h-183v59h432v-59z" />
    <glyph glyph-name="Tcaron.c2sc" horiz-adv-x="488" 
d="M277 617h-66l-96 127h55l74 -83l74 83h54zM460 559v-59h-184v-500h-65v500h-183v59h432z" />
    <glyph glyph-name="uni0162.c2sc" horiz-adv-x="488" 
d="M460 500h-184v-484l31 -69c5 -10 8 -24 8 -34c0 -46 -34 -77 -82 -77c-49 0 -83 33 -83 86h42c1 -28 17 -46 41 -46s40 15 40 38c0 5 -2 12 -4 18l-28 68h-30v500h-183v59h432v-59z" />
    <glyph glyph-name="uni021A.c2sc" horiz-adv-x="488" 
d="M460 559v-59h-184v-500h-65v500h-183v59h432zM170 -169c32 36 47 79 44 137h62c0 -65 -32 -124 -69 -152z" />
    <glyph glyph-name="U.c2sc" 
d="M299 -8c-114 0 -211 75 -211 198v369h65v-367c0 -90 67 -138 146 -138c80 0 147 48 147 138v367h65v-369c0 -123 -97 -198 -212 -198z" />
    <glyph glyph-name="Uacute.c2sc" 
d="M274 617l81 127h71l-97 -127h-55zM299 -8c-114 0 -211 75 -211 198v369h65v-367c0 -90 67 -138 146 -138c80 0 147 48 147 138v367h65v-369c0 -123 -97 -198 -212 -198z" />
    <glyph glyph-name="uni01D3.c2sc" 
d="M266 617l-95 127h54l74 -83l74 83h54l-95 -127h-66zM299 -8c-114 0 -211 75 -211 198v369h65v-367c0 -90 67 -138 146 -138c80 0 147 48 147 138v367h65v-369c0 -123 -97 -198 -212 -198z" />
    <glyph glyph-name="Ucircumflex.c2sc" 
d="M171 617l95 127h66l95 -127h-54l-74 83l-74 -83h-54zM299 -8c-114 0 -211 75 -211 198v369h65v-367c0 -90 67 -138 146 -138c80 0 147 48 147 138v367h65v-369c0 -123 -97 -198 -212 -198z" />
    <glyph glyph-name="Udieresis.c2sc" 
d="M225 641c-23 0 -43 17 -43 40c0 22 20 39 43 39c24 0 44 -17 44 -39c0 -23 -20 -40 -44 -40zM372 641c-24 0 -43 17 -43 40c0 22 19 39 43 39s44 -17 44 -39c0 -23 -20 -40 -44 -40zM299 -8c-114 0 -211 75 -211 198v369h65v-367c0 -90 67 -138 146 -138
c80 0 147 48 147 138v367h65v-369c0 -123 -97 -198 -212 -198z" />
    <glyph glyph-name="uni01D7.c2sc" 
d="M274 753l81 127h71l-97 -127h-55zM225 641c-23 0 -43 17 -43 40c0 22 20 39 43 39c24 0 44 -17 44 -39c0 -23 -20 -40 -44 -40zM372 641c-24 0 -43 17 -43 40c0 22 19 39 43 39s44 -17 44 -39c0 -23 -20 -40 -44 -40zM299 -8c-114 0 -211 75 -211 198v369h65v-367
c0 -90 67 -138 146 -138c80 0 147 48 147 138v367h65v-369c0 -123 -97 -198 -212 -198z" />
    <glyph glyph-name="uni01D9.c2sc" 
d="M266 753l-95 127h54l74 -83l74 83h54l-95 -127h-66zM225 641c-23 0 -43 17 -43 40c0 22 20 39 43 39c24 0 44 -17 44 -39c0 -23 -20 -40 -44 -40zM372 641c-24 0 -43 17 -43 40c0 22 19 39 43 39s44 -17 44 -39c0 -23 -20 -40 -44 -40zM299 -8c-114 0 -211 75 -211 198
v369h65v-367c0 -90 67 -138 146 -138c80 0 147 48 147 138v367h65v-369c0 -123 -97 -198 -212 -198z" />
    <glyph glyph-name="uni01DB.c2sc" 
d="M273 753l-96 127h71l81 -127h-56zM225 641c-23 0 -43 17 -43 40c0 22 20 39 43 39c24 0 44 -17 44 -39c0 -23 -20 -40 -44 -40zM372 641c-24 0 -43 17 -43 40c0 22 19 39 43 39s44 -17 44 -39c0 -23 -20 -40 -44 -40zM299 -8c-114 0 -211 75 -211 198v369h65v-367
c0 -90 67 -138 146 -138c80 0 147 48 147 138v367h65v-369c0 -123 -97 -198 -212 -198z" />
    <glyph glyph-name="uni01D5.c2sc" 
d="M194 781v48h210v-48h-210zM225 641c-23 0 -43 17 -43 40c0 22 20 39 43 39c24 0 44 -17 44 -39c0 -23 -20 -40 -44 -40zM372 641c-24 0 -43 17 -43 40c0 22 19 39 43 39s44 -17 44 -39c0 -23 -20 -40 -44 -40zM299 -8c-114 0 -211 75 -211 198v369h65v-367
c0 -90 67 -138 146 -138c80 0 147 48 147 138v367h65v-369c0 -123 -97 -198 -212 -198z" />
    <glyph glyph-name="Ugrave.c2sc" 
d="M273 617l-96 127h71l81 -127h-56zM299 -8c-114 0 -211 75 -211 198v369h65v-367c0 -90 67 -138 146 -138c80 0 147 48 147 138v367h65v-369c0 -123 -97 -198 -212 -198z" />
    <glyph glyph-name="Uhungarumlaut.c2sc" 
d="M222 617l75 127h58l-81 -127h-52zM330 617l80 127h59l-88 -127h-51zM299 -8c-114 0 -211 75 -211 198v369h65v-367c0 -90 67 -138 146 -138c80 0 147 48 147 138v367h65v-369c0 -123 -97 -198 -212 -198z" />
    <glyph glyph-name="Umacron.c2sc" 
d="M194 653v48h210v-48h-210zM299 -8c-114 0 -211 75 -211 198v369h65v-367c0 -90 67 -138 146 -138c80 0 147 48 147 138v367h65v-369c0 -123 -97 -198 -212 -198z" />
    <glyph glyph-name="Uogonek.c2sc" 
d="M446 559h65v-369c0 -117 -88 -190 -195 -197l-25 -61c-3 -6 -4 -13 -4 -18c0 -23 16 -38 40 -38s40 18 41 46h43c0 -53 -35 -86 -84 -86c-48 0 -82 31 -82 77c0 10 3 24 8 34l20 46c-102 11 -185 83 -185 197v369h65v-367c0 -90 67 -138 146 -138c80 0 147 48 147 138
v367z" />
    <glyph glyph-name="Uring.c2sc" 
d="M297 617c-45 0 -82 36 -82 81s37 81 82 81c49 0 86 -36 86 -81s-37 -81 -86 -81zM297 653c27 0 50 20 50 45s-23 46 -50 46c-25 0 -46 -21 -46 -46s21 -45 46 -45zM299 -8c-114 0 -211 75 -211 198v369h65v-367c0 -90 67 -138 146 -138c80 0 147 48 147 138v367h65v-369
c0 -123 -97 -198 -212 -198z" />
    <glyph glyph-name="V.c2sc" horiz-adv-x="485" 
d="M385 559h67l-176 -559h-66l-177 559h67l143 -459z" />
    <glyph glyph-name="W.c2sc" horiz-adv-x="790" 
d="M696 559h69l-199 -559h-58l-113 374l-113 -374h-58l-199 559h69l159 -454l114 372h57l113 -372z" />
    <glyph glyph-name="Wacute.c2sc" horiz-adv-x="790" 
d="M522 744l-97 -127h-56l83 127h70zM696 559h69l-199 -559h-58l-113 374l-113 -374h-58l-199 559h69l159 -454l114 372h57l113 -372z" />
    <glyph glyph-name="Wcircumflex.c2sc" horiz-adv-x="790" 
d="M395 700l-74 -83h-54l95 127h66l95 -127h-54zM696 559h69l-199 -559h-58l-113 374l-113 -374h-58l-199 559h69l159 -454l114 372h57l113 -372z" />
    <glyph glyph-name="Wdieresis.c2sc" horiz-adv-x="790" 
d="M321 641c-23 0 -43 17 -43 40c0 22 20 39 43 39c24 0 43 -17 43 -39c0 -23 -19 -40 -43 -40zM468 641c-24 0 -43 17 -43 40c0 22 19 39 43 39s44 -17 44 -39c0 -23 -20 -40 -44 -40zM696 559h69l-199 -559h-58l-113 374l-113 -374h-58l-199 559h69l159 -454l114 372h57
l113 -372z" />
    <glyph glyph-name="Wgrave.c2sc" horiz-adv-x="790" 
d="M425 617h-56l-96 127h71zM696 559h69l-199 -559h-58l-113 374l-113 -374h-58l-199 559h69l159 -454l114 372h57l113 -372z" />
    <glyph glyph-name="X.c2sc" horiz-adv-x="529" 
d="M511 0h-77l-169 249l-170 -249h-77l207 301l-181 258h78l142 -207l144 207h78l-183 -258z" />
    <glyph glyph-name="Y.c2sc" horiz-adv-x="538" 
d="M448 559h77l-224 -299v-260h-65v261l-222 298h77l178 -240z" />
    <glyph glyph-name="Yacute.c2sc" horiz-adv-x="538" 
d="M396 744l-97 -127h-56l82 127h71zM448 559h77l-224 -299v-260h-65v261l-222 298h77l178 -240z" />
    <glyph glyph-name="Ycircumflex.c2sc" horiz-adv-x="538" 
d="M268 700l-74 -83h-54l95 127h67l95 -127h-54zM448 559h77l-224 -299v-260h-65v261l-222 298h77l178 -240z" />
    <glyph glyph-name="Ydieresis.c2sc" horiz-adv-x="538" 
d="M195 641c-24 0 -44 17 -44 40c0 22 20 39 44 39c23 0 43 -17 43 -39c0 -23 -20 -40 -43 -40zM342 641c-24 0 -43 17 -43 40c0 22 19 39 43 39s44 -17 44 -39c0 -23 -20 -40 -44 -40zM448 559h77l-224 -299v-260h-65v261l-222 298h77l178 -240z" />
    <glyph glyph-name="Ygrave.c2sc" horiz-adv-x="538" 
d="M298 617h-55l-97 127h71zM448 559h77l-224 -299v-260h-65v261l-222 298h77l178 -240z" />
    <glyph glyph-name="Z.c2sc" horiz-adv-x="493" 
d="M444 559v-51l-317 -449h317v-59h-399v50l316 450h-310v59h393z" />
    <glyph glyph-name="Zacute.c2sc" horiz-adv-x="493" 
d="M374 744l-97 -127h-56l82 127h71zM444 559v-51l-317 -449h317v-59h-399v50l316 450h-310v59h393z" />
    <glyph glyph-name="Zcaron.c2sc" horiz-adv-x="493" 
d="M279 617h-66l-95 127h54l74 -83l74 83h55zM444 559v-51l-317 -449h317v-59h-399v50l316 450h-310v59h393z" />
    <glyph glyph-name="Zdotaccent.c2sc" horiz-adv-x="493" 
d="M246 636c-24 0 -44 17 -44 40c0 24 20 41 44 41c25 0 45 -17 45 -41c0 -23 -20 -40 -45 -40zM444 559v-51l-317 -449h317v-59h-399v50l316 450h-310v59h393z" />
    <glyph glyph-name="IJ.alt.c2sc" horiz-adv-x="595" 
d="M94 0v559h65v-559h-65zM329 -8c-15 0 -38 3 -57 7l7 60c15 -3 42 -5 50 -5c82 0 113 54 113 117v388h65v-388c0 -97 -49 -179 -178 -179z" />
    <glyph glyph-name="J.alt.c2sc" horiz-adv-x="346" 
d="M80 -8c-15 0 -38 3 -57 7l7 60c14 -3 42 -5 50 -5c82 0 113 54 113 117v388h64v-388c0 -97 -47 -179 -177 -179z" />
    <glyph glyph-name="Jcircumflex.alt.c2sc" horiz-adv-x="346" 
d="M96 617l96 127h66l95 -127h-54l-75 83l-73 -83h-55zM80 -8c-15 0 -38 3 -57 7l7 60c14 -3 42 -5 50 -5c82 0 113 54 113 117v388h64v-388c0 -97 -47 -179 -177 -179z" />
    <glyph glyph-name="W.alt.c2sc" horiz-adv-x="720" 
d="M616 559h71l-160 -554h-57l-110 424l-110 -424h-57l-160 554h71l118 -444l110 419h56l110 -419z" />
    <glyph glyph-name="Wacute.alt.c2sc" horiz-adv-x="720" 
d="M491 744l-97 -127h-56l81 127h72zM616 559h71l-160 -554h-57l-110 424l-110 -424h-57l-160 554h71l118 -444l110 419h56l110 -419z" />
    <glyph glyph-name="Wcircumflex.alt.c2sc" horiz-adv-x="720" 
d="M363 700l-74 -83h-54l95 127h66l96 -127h-54zM616 559h71l-160 -554h-57l-110 424l-110 -424h-57l-160 554h71l118 -444l110 419h56l110 -419z" />
    <glyph glyph-name="Wdieresis.alt.c2sc" horiz-adv-x="720" 
d="M290 641c-24 0 -44 17 -44 40c0 22 20 39 44 39c23 0 43 -17 43 -39c0 -23 -20 -40 -43 -40zM437 641c-24 0 -43 17 -43 40c0 22 19 39 43 39s43 -17 43 -39c0 -23 -19 -40 -43 -40zM616 559h71l-160 -554h-57l-110 424l-110 -424h-57l-160 554h71l118 -444l110 419h56
l110 -419z" />
    <glyph glyph-name="Wgrave.alt.c2sc" horiz-adv-x="720" 
d="M393 617h-55l-96 127h70zM616 559h71l-160 -554h-57l-110 424l-110 -424h-57l-160 554h71l118 -444l110 419h56l110 -419z" />
    <glyph glyph-name="a" unicode="a" horiz-adv-x="615" 
d="M471 467h64v-467h-64v91c-35 -64 -108 -101 -186 -101c-130 0 -237 102 -237 244s106 243 237 243c79 0 151 -37 186 -100v90zM290 51c97 0 181 73 181 181c0 113 -88 184 -181 184c-98 0 -178 -78 -178 -181c0 -104 80 -184 178 -184z" />
    <glyph glyph-name="aacute" unicode="&#xe1;" horiz-adv-x="615" 
d="M453 689l-112 -153h-62l97 153h77zM471 467h64v-467h-64v91c-35 -64 -108 -101 -186 -101c-130 0 -237 102 -237 244s106 243 237 243c79 0 151 -37 186 -100v90zM290 51c97 0 181 73 181 181c0 113 -88 184 -181 184c-98 0 -178 -78 -178 -181c0 -104 80 -184 178 -184z
" />
    <glyph glyph-name="abreve" unicode="&#x103;" horiz-adv-x="615" 
d="M306 552c-86 0 -121 58 -121 124h54c0 -42 22 -73 67 -73c41 0 66 31 66 73h56c0 -77 -49 -124 -122 -124zM471 467h64v-467h-64v91c-35 -64 -108 -101 -186 -101c-130 0 -237 102 -237 244s106 243 237 243c79 0 151 -37 186 -100v90zM290 51c97 0 181 73 181 181
c0 113 -88 184 -181 184c-98 0 -178 -78 -178 -181c0 -104 80 -184 178 -184z" />
    <glyph glyph-name="uni01CE" unicode="&#x1ce;" horiz-adv-x="615" 
d="M341 536h-69l-112 153h59l87 -103l88 103h59zM471 467h64v-467h-64v91c-35 -64 -108 -101 -186 -101c-130 0 -237 102 -237 244s106 243 237 243c79 0 151 -37 186 -100v90zM290 51c97 0 181 73 181 181c0 113 -88 184 -181 184c-98 0 -178 -78 -178 -181
c0 -104 80 -184 178 -184z" />
    <glyph glyph-name="acircumflex" unicode="&#xe2;" horiz-adv-x="615" 
d="M306 640l-87 -104h-59l112 153h69l112 -153h-59zM471 467h64v-467h-64v91c-35 -64 -108 -101 -186 -101c-130 0 -237 102 -237 244s106 243 237 243c79 0 151 -37 186 -100v90zM290 51c97 0 181 73 181 181c0 113 -88 184 -181 184c-98 0 -178 -78 -178 -181
c0 -104 80 -184 178 -184z" />
    <glyph glyph-name="adieresis" unicode="&#xe4;" horiz-adv-x="615" 
d="M221 566c-26 0 -48 19 -48 45c0 27 22 46 48 46c27 0 49 -19 49 -46c0 -26 -22 -45 -49 -45zM390 566c-26 0 -48 19 -48 45c0 27 22 46 48 46c27 0 49 -19 49 -46c0 -26 -22 -45 -49 -45zM471 467h64v-467h-64v91c-35 -64 -108 -101 -186 -101c-130 0 -237 102 -237 244
s106 243 237 243c79 0 151 -37 186 -100v90zM290 51c97 0 181 73 181 181c0 113 -88 184 -181 184c-98 0 -178 -78 -178 -181c0 -104 80 -184 178 -184z" />
    <glyph glyph-name="agrave" unicode="&#xe0;" horiz-adv-x="615" 
d="M339 536h-62l-111 153h78zM471 467h64v-467h-64v91c-35 -64 -108 -101 -186 -101c-130 0 -237 102 -237 244s106 243 237 243c79 0 151 -37 186 -100v90zM290 51c97 0 181 73 181 181c0 113 -88 184 -181 184c-98 0 -178 -78 -178 -181c0 -104 80 -184 178 -184z" />
    <glyph glyph-name="amacron" unicode="&#x101;" horiz-adv-x="615" 
d="M428 638v-57h-242v57h242zM471 467h64v-467h-64v91c-35 -64 -108 -101 -186 -101c-130 0 -237 102 -237 244s106 243 237 243c79 0 151 -37 186 -100v90zM290 51c97 0 181 73 181 181c0 113 -88 184 -181 184c-98 0 -178 -78 -178 -181c0 -104 80 -184 178 -184z" />
    <glyph glyph-name="aogonek" unicode="&#x105;" horiz-adv-x="615" 
d="M521 -200c-56 0 -95 38 -95 94c0 12 4 29 9 40l36 86v71c-35 -62 -108 -101 -186 -101c-130 0 -237 102 -237 244s106 243 237 243c79 0 151 -38 186 -100v90h64v-467h-26l-31 -84c-3 -7 -4 -15 -4 -21c0 -29 18 -48 47 -48c28 0 48 22 50 57h47c0 -62 -38 -104 -97 -104
zM290 51c97 0 181 73 181 181c0 113 -88 184 -181 184c-98 0 -178 -78 -178 -181c0 -104 80 -184 178 -184z" />
    <glyph glyph-name="aring" unicode="&#xe5;" horiz-adv-x="615" 
d="M305 539c-52 0 -94 42 -94 95s42 96 94 96c54 0 97 -43 97 -96s-43 -95 -97 -95zM305 688c-29 0 -52 -24 -52 -54s23 -53 52 -53c31 0 55 23 55 53s-24 54 -55 54zM471 467h64v-467h-64v91c-35 -64 -108 -101 -186 -101c-130 0 -237 102 -237 244s106 243 237 243
c79 0 151 -37 186 -100v90zM290 51c97 0 181 73 181 181c0 113 -88 184 -181 184c-98 0 -178 -78 -178 -181c0 -104 80 -184 178 -184z" />
    <glyph glyph-name="aringacute" unicode="&#x1fb;" horiz-adv-x="615" 
d="M305 539c-52 0 -94 42 -94 95c0 49 36 90 83 95l49 79h77l-68 -89c30 -17 50 -48 50 -85c0 -53 -42 -95 -97 -95zM305 688c-28 0 -52 -24 -52 -54s24 -53 52 -53c31 0 56 23 56 53s-25 54 -56 54zM471 467h64v-467h-64v91c-35 -64 -108 -101 -186 -101
c-130 0 -237 102 -237 244s106 243 237 243c79 0 151 -37 186 -100v90zM290 51c97 0 181 73 181 181c0 113 -88 184 -181 184c-98 0 -178 -78 -178 -181c0 -104 80 -184 178 -184z" />
    <glyph glyph-name="atilde" unicode="&#xe3;" horiz-adv-x="615" 
d="M259 603c-14 0 -30 -15 -31 -46h-47c3 70 40 99 78 99c47 0 67 -47 94 -47c15 0 31 13 32 45h47c-4 -70 -41 -98 -79 -98c-46 0 -65 47 -94 47zM471 467h64v-467h-64v91c-35 -64 -108 -101 -186 -101c-130 0 -237 102 -237 244s106 243 237 243c79 0 151 -37 186 -100v90
zM290 51c97 0 181 73 181 181c0 113 -88 184 -181 184c-98 0 -178 -78 -178 -181c0 -104 80 -184 178 -184z" />
    <glyph glyph-name="ae" unicode="&#xe6;" horiz-adv-x="912" 
d="M868 235c0 -9 -1 -19 -1 -28h-402c11 -95 82 -156 174 -156c64 0 122 29 152 80l56 -24c-41 -75 -121 -117 -209 -117c-87 0 -163 42 -205 113c-62 -75 -138 -113 -223 -113c-100 0 -169 53 -169 138c0 81 66 143 185 143c58 0 125 -14 174 -38v51c0 90 -56 133 -147 133
c-56 0 -107 -20 -145 -58l-40 40c50 63 131 78 189 78c93 0 157 -33 187 -97c42 62 113 97 194 97c132 0 230 -94 230 -242zM466 262h338c-9 97 -76 154 -166 154c-102 0 -161 -61 -172 -154zM209 48c71 0 161 46 199 106l-8 25c-53 27 -122 39 -170 39
c-89 0 -128 -44 -128 -88c0 -47 40 -82 107 -82z" />
    <glyph glyph-name="aeacute" unicode="&#x1fd;" horiz-adv-x="912" 
d="M601 689l-112 -153h-62l97 153h77zM868 235c0 -9 -1 -19 -1 -28h-402c11 -95 82 -156 174 -156c64 0 122 29 152 80l56 -24c-41 -75 -121 -117 -209 -117c-87 0 -163 42 -205 113c-62 -75 -138 -113 -223 -113c-100 0 -169 53 -169 138c0 81 66 143 185 143
c58 0 125 -14 174 -38v51c0 90 -56 133 -147 133c-56 0 -107 -20 -145 -58l-40 40c50 63 131 78 189 78c93 0 157 -33 187 -97c42 62 113 97 194 97c132 0 230 -94 230 -242zM466 262h338c-9 97 -76 154 -166 154c-102 0 -161 -61 -172 -154zM209 48c71 0 161 46 199 106
l-8 25c-53 27 -122 39 -170 39c-89 0 -128 -44 -128 -88c0 -47 40 -82 107 -82z" />
    <glyph glyph-name="uni01E3" unicode="&#x1e3;" horiz-adv-x="912" 
d="M576 638v-57h-242v57h242zM868 235c0 -9 -1 -19 -1 -28h-402c11 -95 82 -156 174 -156c64 0 122 29 152 80l56 -24c-41 -75 -121 -117 -209 -117c-87 0 -163 42 -205 113c-62 -75 -138 -113 -223 -113c-100 0 -169 53 -169 138c0 81 66 143 185 143c58 0 125 -14 174 -38
v51c0 90 -56 133 -147 133c-56 0 -107 -20 -145 -58l-40 40c50 63 131 78 189 78c93 0 157 -33 187 -97c42 62 113 97 194 97c132 0 230 -94 230 -242zM466 262h338c-9 97 -76 154 -166 154c-102 0 -161 -61 -172 -154zM209 48c71 0 161 46 199 106l-8 25
c-53 27 -122 39 -170 39c-89 0 -128 -44 -128 -88c0 -47 40 -82 107 -82z" />
    <glyph glyph-name="b" unicode="b" horiz-adv-x="615" 
d="M330 477c131 0 237 -101 237 -243s-106 -244 -237 -244c-78 0 -152 38 -186 102v-92h-64v730h64v-354c35 64 107 101 186 101zM325 51c99 0 179 80 179 184c0 103 -80 181 -179 181c-93 0 -181 -71 -181 -184c0 -108 84 -181 181 -181z" />
    <glyph glyph-name="c" unicode="c" horiz-adv-x="501" 
d="M295 -9c-133 0 -247 95 -247 243s114 243 247 243c67 0 126 -25 168 -64l-40 -44c-32 29 -76 47 -126 47c-102 0 -185 -72 -185 -182c0 -109 83 -182 185 -182c50 0 94 17 126 46l40 -43c-42 -40 -101 -64 -168 -64z" />
    <glyph glyph-name="cacute" unicode="&#x107;" horiz-adv-x="501" 
d="M227 536l97 153h77l-112 -153h-62zM295 -9c-133 0 -247 95 -247 243s114 243 247 243c67 0 126 -25 168 -64l-40 -44c-32 29 -76 47 -126 47c-102 0 -185 -72 -185 -182c0 -109 83 -182 185 -182c50 0 94 17 126 46l40 -43c-42 -40 -101 -64 -168 -64z" />
    <glyph glyph-name="ccaron" unicode="&#x10d;" horiz-adv-x="501" 
d="M243 536l-112 153h59l87 -103l88 103h59l-112 -153h-69zM295 -9c-133 0 -247 95 -247 243s114 243 247 243c67 0 126 -25 168 -64l-40 -44c-32 29 -76 47 -126 47c-102 0 -185 -72 -185 -182c0 -109 83 -182 185 -182c50 0 94 17 126 46l40 -43
c-42 -40 -101 -64 -168 -64z" />
    <glyph glyph-name="ccedilla" unicode="&#xe7;" horiz-adv-x="501" 
d="M423 98l40 -43c-34 -32 -78 -54 -128 -61l25 -60c5 -11 9 -28 9 -40c0 -56 -39 -94 -95 -94c-59 0 -97 42 -97 104h47c2 -35 22 -57 50 -57c29 0 47 19 47 48c0 6 -1 14 -4 21l-29 75c-130 3 -240 97 -240 243c0 148 114 243 247 243c67 0 126 -25 168 -64l-40 -44
c-32 29 -76 47 -126 47c-102 0 -185 -72 -185 -182c0 -109 83 -182 185 -182c50 0 94 17 126 46z" />
    <glyph glyph-name="cdotaccent" unicode="&#x10b;" horiz-adv-x="501" 
d="M277 561c-27 0 -49 19 -49 45c0 27 22 46 49 46c28 0 49 -19 49 -46c0 -26 -21 -45 -49 -45zM295 -9c-133 0 -247 95 -247 243s114 243 247 243c67 0 126 -25 168 -64l-40 -44c-32 29 -76 47 -126 47c-102 0 -185 -72 -185 -182c0 -109 83 -182 185 -182
c50 0 94 17 126 46l40 -43c-42 -40 -101 -64 -168 -64z" />
    <glyph glyph-name="d" unicode="d" horiz-adv-x="615" 
d="M471 730h64v-730h-64v91c-35 -64 -108 -101 -186 -101c-130 0 -237 102 -237 244s106 243 237 243c79 0 151 -37 186 -100v353zM290 51c97 0 181 73 181 181c0 113 -88 184 -181 184c-98 0 -178 -78 -178 -181c0 -104 80 -184 178 -184z" />
    <glyph glyph-name="eth" unicode="&#xf0;" horiz-adv-x="585" 
d="M481 393c35 -40 56 -94 56 -158c0 -148 -112 -245 -245 -245s-244 97 -244 245s111 242 244 242c20 0 39 -2 57 -7l-92 120l-125 -51l-15 37l114 46l-83 108h75l65 -85l95 39l15 -37l-85 -35zM292 51c98 0 181 73 181 184c0 110 -83 181 -181 181
c-99 0 -180 -71 -180 -181c0 -111 81 -184 180 -184z" />
    <glyph glyph-name="dcaron" unicode="&#x10f;" horiz-adv-x="635" 
d="M471 377v353h64v-730h-64v91c-35 -64 -108 -101 -186 -101c-130 0 -237 102 -237 244s106 243 237 243c79 0 151 -37 186 -100zM692 689c1 -89 -28 -137 -63 -176l-44 12c34 50 50 98 43 164h64zM290 51c97 0 181 73 181 181c0 113 -88 184 -181 184
c-98 0 -178 -78 -178 -181c0 -104 80 -184 178 -184z" />
    <glyph glyph-name="dcroat" unicode="&#x111;" horiz-adv-x="615" 
d="M619 620v-46h-84v-574h-64v91c-35 -64 -108 -101 -186 -101c-130 0 -237 102 -237 244s106 243 237 243c79 0 151 -37 186 -100v197h-158v46h158v110h64v-110h84zM290 51c97 0 181 73 181 181c0 113 -88 184 -181 184c-98 0 -178 -78 -178 -181c0 -104 80 -184 178 -184z
" />
    <glyph glyph-name="e" unicode="e" horiz-adv-x="561" 
d="M516 235c0 -9 0 -19 -1 -28h-402c11 -100 81 -156 175 -156c64 0 121 29 152 80l55 -24c-41 -75 -121 -117 -209 -117c-132 0 -238 97 -238 245s106 242 238 242c133 0 230 -94 230 -242zM114 262h339c-9 97 -76 154 -167 154c-92 0 -160 -54 -172 -154z" />
    <glyph glyph-name="eacute" unicode="&#xe9;" horiz-adv-x="561" 
d="M425 689l-112 -153h-62l97 153h77zM516 235c0 -9 0 -19 -1 -28h-402c11 -100 81 -156 175 -156c64 0 121 29 152 80l55 -24c-41 -75 -121 -117 -209 -117c-132 0 -238 97 -238 245s106 242 238 242c133 0 230 -94 230 -242zM114 262h339c-9 97 -76 154 -167 154
c-92 0 -160 -54 -172 -154z" />
    <glyph glyph-name="ecaron" unicode="&#x11b;" horiz-adv-x="561" 
d="M313 536h-69l-112 153h59l87 -103l88 103h59zM516 235c0 -9 0 -19 -1 -28h-402c11 -100 81 -156 175 -156c64 0 121 29 152 80l55 -24c-41 -75 -121 -117 -209 -117c-132 0 -238 97 -238 245s106 242 238 242c133 0 230 -94 230 -242zM114 262h339
c-9 97 -76 154 -167 154c-92 0 -160 -54 -172 -154z" />
    <glyph glyph-name="ecircumflex" unicode="&#xea;" horiz-adv-x="561" 
d="M278 640l-87 -104h-59l112 153h69l112 -153h-59zM516 235c0 -9 0 -19 -1 -28h-402c11 -100 81 -156 175 -156c64 0 121 29 152 80l55 -24c-41 -75 -121 -117 -209 -117c-132 0 -238 97 -238 245s106 242 238 242c133 0 230 -94 230 -242zM114 262h339
c-9 97 -76 154 -167 154c-92 0 -160 -54 -172 -154z" />
    <glyph glyph-name="edieresis" unicode="&#xeb;" horiz-adv-x="561" 
d="M193 566c-26 0 -48 19 -48 45c0 27 22 46 48 46c27 0 49 -19 49 -46c0 -26 -22 -45 -49 -45zM362 566c-26 0 -48 19 -48 45c0 27 22 46 48 46c27 0 49 -19 49 -46c0 -26 -22 -45 -49 -45zM516 235c0 -9 0 -19 -1 -28h-402c11 -100 81 -156 175 -156c64 0 121 29 152 80
l55 -24c-41 -75 -121 -117 -209 -117c-132 0 -238 97 -238 245s106 242 238 242c133 0 230 -94 230 -242zM114 262h339c-9 97 -76 154 -167 154c-92 0 -160 -54 -172 -154z" />
    <glyph glyph-name="edotaccent" unicode="&#x117;" horiz-adv-x="561" 
d="M279 561c-27 0 -49 19 -49 45c0 27 22 46 49 46c28 0 49 -19 49 -46c0 -26 -21 -45 -49 -45zM516 235c0 -9 0 -19 -1 -28h-402c11 -100 81 -156 175 -156c64 0 121 29 152 80l55 -24c-41 -75 -121 -117 -209 -117c-132 0 -238 97 -238 245s106 242 238 242
c133 0 230 -94 230 -242zM114 262h339c-9 97 -76 154 -167 154c-92 0 -160 -54 -172 -154z" />
    <glyph glyph-name="egrave" unicode="&#xe8;" horiz-adv-x="561" 
d="M311 536h-62l-111 153h78zM516 235c0 -9 0 -19 -1 -28h-402c11 -100 81 -156 175 -156c64 0 121 29 152 80l55 -24c-41 -75 -121 -117 -209 -117c-132 0 -238 97 -238 245s106 242 238 242c133 0 230 -94 230 -242zM114 262h339c-9 97 -76 154 -167 154
c-92 0 -160 -54 -172 -154z" />
    <glyph glyph-name="emacron" unicode="&#x113;" horiz-adv-x="561" 
d="M400 638v-57h-242v57h242zM516 235c0 -9 0 -19 -1 -28h-402c11 -100 81 -156 175 -156c64 0 121 29 152 80l55 -24c-41 -75 -121 -117 -209 -117c-132 0 -238 97 -238 245s106 242 238 242c133 0 230 -94 230 -242zM114 262h339c-9 97 -76 154 -167 154
c-92 0 -160 -54 -172 -154z" />
    <glyph glyph-name="eogonek" unicode="&#x119;" horiz-adv-x="561" 
d="M516 235c0 -9 0 -19 -1 -28h-402c11 -100 81 -156 175 -156c64 0 121 29 152 80l55 -24c-22 -40 -55 -70 -94 -90l-38 -101c-3 -7 -5 -15 -5 -21c0 -29 19 -48 48 -48c27 0 48 22 50 57h47c0 -62 -39 -104 -97 -104c-56 0 -96 38 -96 94c0 12 5 29 10 40l26 63
c-19 -5 -39 -7 -60 -7c-132 0 -238 97 -238 245s106 242 238 242c133 0 230 -94 230 -242zM114 262h339c-9 97 -76 154 -167 154c-92 0 -160 -54 -172 -154z" />
    <glyph glyph-name="f" unicode="f" horiz-adv-x="315" 
d="M292 669c-88 0 -113 -59 -113 -134v-68h119v-55h-119v-412h-64v412h-92v55h92v61c0 117 46 202 168 202h44v-61h-35z" />
    <glyph glyph-name="g" unicode="g" horiz-adv-x="615" 
d="M471 467h64v-398c0 -226 -101 -302 -253 -302c-79 0 -156 38 -202 114l54 30c34 -55 92 -83 148 -83c114 0 189 58 189 238v24c-35 -63 -108 -100 -186 -100c-130 0 -237 102 -237 244s106 243 237 243c79 0 151 -37 186 -100v90zM290 51c97 0 181 73 181 181
c0 113 -88 184 -181 184c-98 0 -178 -78 -178 -181c0 -104 80 -184 178 -184z" />
    <glyph glyph-name="gbreve" unicode="&#x11f;" horiz-adv-x="615" 
d="M306 552c-86 0 -121 58 -121 124h54c0 -42 22 -73 67 -73c41 0 66 31 66 73h56c0 -77 -49 -124 -122 -124zM471 467h64v-398c0 -226 -101 -302 -253 -302c-79 0 -156 38 -202 114l54 30c34 -55 92 -83 148 -83c114 0 189 58 189 238v24c-35 -63 -108 -100 -186 -100
c-130 0 -237 102 -237 244s106 243 237 243c79 0 151 -37 186 -100v90zM290 51c97 0 181 73 181 181c0 113 -88 184 -181 184c-98 0 -178 -78 -178 -181c0 -104 80 -184 178 -184z" />
    <glyph glyph-name="gcommaaccent" unicode="&#x123;" horiz-adv-x="615" 
d="M329 547h-65c-1 84 34 153 77 186l40 -15c-38 -46 -57 -96 -52 -171zM471 467h64v-398c0 -226 -101 -302 -253 -302c-79 0 -156 38 -202 114l54 30c34 -55 92 -83 148 -83c114 0 189 58 189 238v24c-35 -63 -108 -100 -186 -100c-130 0 -237 102 -237 244
s106 243 237 243c79 0 151 -37 186 -100v90zM290 51c97 0 181 73 181 181c0 113 -88 184 -181 184c-98 0 -178 -78 -178 -181c0 -104 80 -184 178 -184z" />
    <glyph glyph-name="gdotaccent" unicode="&#x121;" horiz-adv-x="615" 
d="M307 561c-27 0 -49 19 -49 45c0 27 22 46 49 46c28 0 49 -19 49 -46c0 -26 -21 -45 -49 -45zM471 467h64v-398c0 -226 -101 -302 -253 -302c-79 0 -156 38 -202 114l54 30c34 -55 92 -83 148 -83c114 0 189 58 189 238v24c-35 -63 -108 -100 -186 -100
c-130 0 -237 102 -237 244s106 243 237 243c79 0 151 -37 186 -100v90zM290 51c97 0 181 73 181 181c0 113 -88 184 -181 184c-98 0 -178 -78 -178 -181c0 -104 80 -184 178 -184z" />
    <glyph glyph-name="h" unicode="h" horiz-adv-x="569" 
d="M306 477c113 0 190 -76 190 -205v-272h-64v269c0 90 -57 145 -132 145s-154 -42 -156 -155v-259h-64v730h64v-347c28 67 104 94 162 94z" />
    <glyph glyph-name="hbar" unicode="&#x127;" horiz-adv-x="569" 
d="M306 477c113 0 190 -76 190 -205v-272h-64v269c0 90 -57 145 -132 145s-154 -42 -156 -155v-259h-64v541h-44v46h44v143h64v-143h185v-46h-185v-158c28 67 104 94 162 94z" />
    <glyph glyph-name="i" unicode="i" horiz-adv-x="224" 
d="M112 594c-26 0 -49 19 -49 45c0 27 23 46 49 46c28 0 50 -19 50 -46c0 -26 -22 -45 -50 -45zM80 0v467h64v-467h-64z" />
    <glyph glyph-name="dotlessi" unicode="&#x131;" horiz-adv-x="224" 
d="M80 0v467h64v-467h-64z" />
    <glyph glyph-name="iacute" unicode="&#xed;" horiz-adv-x="224" 
d="M79 547l97 153h77l-112 -153h-62zM80 0v467h64v-467h-64z" />
    <glyph glyph-name="uni01D0" unicode="&#x1d0;" horiz-adv-x="224" 
d="M77 536l-112 153h59l87 -103l88 103h59l-112 -153h-69zM80 0v467h64v-467h-64z" />
    <glyph glyph-name="icircumflex" unicode="&#xee;" horiz-adv-x="224" 
d="M-34 547l112 153h69l112 -153h-59l-88 103l-87 -103h-59zM80 0v467h64v-467h-64z" />
    <glyph glyph-name="idieresis" unicode="&#xef;" horiz-adv-x="224" 
d="M28 581c-26 0 -48 19 -48 45c0 27 22 46 48 46c27 0 49 -19 49 -46c0 -26 -22 -45 -49 -45zM197 581c-26 0 -48 19 -48 45c0 27 22 46 48 46c27 0 49 -19 49 -46c0 -26 -22 -45 -49 -45zM80 0v467h64v-467h-64z" />
    <glyph glyph-name="i.loclTRK" horiz-adv-x="224" 
d="M112 561c-27 0 -49 19 -49 45c0 27 22 46 49 46c28 0 49 -19 49 -46c0 -26 -21 -45 -49 -45zM80 0v467h64v-467h-64z" />
    <glyph glyph-name="igrave" unicode="&#xec;" horiz-adv-x="224" 
d="M76 547l-111 153h78l95 -153h-62zM80 0v467h64v-467h-64z" />
    <glyph glyph-name="ij" unicode="&#x133;" horiz-adv-x="456" 
d="M112 594c-26 0 -49 19 -49 45c0 27 23 46 49 46c28 0 50 -19 50 -46c0 -26 -22 -45 -50 -45zM344 594c-26 0 -49 19 -49 45c0 27 23 46 49 46c28 0 50 -19 50 -46c0 -26 -22 -45 -50 -45zM80 0v467h64v-467h-64zM164 -227v61h45c85 0 104 68 103 138v495h64v-495
c0 -114 -40 -199 -162 -199h-50z" />
    <glyph glyph-name="imacron" unicode="&#x12b;" horiz-adv-x="224" 
d="M-9 581v57h242v-57h-242zM80 0v467h64v-467h-64z" />
    <glyph glyph-name="iogonek" unicode="&#x12f;" horiz-adv-x="225" 
d="M113 594c-27 0 -49 19 -49 45c0 27 22 46 49 46s49 -19 49 -46c0 -26 -22 -45 -49 -45zM130 -200c-56 0 -96 38 -96 94c0 12 5 29 10 40l37 87v446h64v-467h-27l-31 -84c-3 -7 -5 -15 -5 -21c0 -29 19 -48 48 -48c28 0 48 22 50 57h47c0 -62 -38 -104 -97 -104z" />
    <glyph glyph-name="itilde" unicode="&#x129;" horiz-adv-x="224" 
d="M-14 557c3 70 40 99 78 99c47 0 67 -47 94 -47c15 0 31 13 32 45h47c-4 -70 -41 -98 -79 -98c-46 0 -65 47 -94 47c-14 0 -30 -15 -31 -46h-47zM80 0v467h64v-467h-64z" />
    <glyph glyph-name="j" unicode="j" horiz-adv-x="232" 
d="M120 594c-26 0 -49 19 -49 45c0 27 23 46 49 46c28 0 50 -19 50 -46c0 -26 -22 -45 -50 -45zM-60 -227v61h45c85 0 104 68 103 138v495h64v-495c0 -114 -40 -199 -162 -199h-50z" />
    <glyph glyph-name="jcircumflex" unicode="&#x135;" horiz-adv-x="232" 
d="M-27 547l112 153h69l113 -153h-60l-87 103l-88 -103h-59zM88 467h64v-495c0 -114 -40 -199 -162 -199h-50v61h45c85 0 104 68 103 138v495z" />
    <glyph glyph-name="k" unicode="k" horiz-adv-x="460" 
d="M467 0h-87l-236 240v-240h-64v730h64v-442l175 179h89l-200 -203z" />
    <glyph glyph-name="kcommaaccent" unicode="&#x137;" horiz-adv-x="460" 
d="M208 264l259 -264h-87l-236 240v-240h-64v730h64v-442l175 179h89zM205 -39h65c1 -84 -34 -153 -77 -187l-40 16c38 46 57 95 52 171z" />
    <glyph glyph-name="kgreenlandic" unicode="&#x138;" horiz-adv-x="440" 
d="M438 0h-91l-203 195v-195h-64v467h64v-209l186 209h84l-212 -239z" />
    <glyph glyph-name="l" unicode="l" horiz-adv-x="224" 
d="M80 0v730h64v-730h-64z" />
    <glyph glyph-name="lacute" unicode="&#x13a;" horiz-adv-x="224" 
d="M81 758l97 153h77l-112 -153h-62zM80 0v730h64v-730h-64z" />
    <glyph glyph-name="lcaron" unicode="&#x13e;" horiz-adv-x="244" 
d="M80 0v730h64v-730h-64zM238 513l-44 12c34 50 50 98 43 164h64c1 -89 -28 -137 -63 -176z" />
    <glyph glyph-name="lcommaaccent" unicode="&#x13c;" horiz-adv-x="224" 
d="M80 0v730h64v-730h-64zM69 -226l-40 16c38 46 57 95 52 171h65c1 -84 -34 -153 -77 -187z" />
    <glyph glyph-name="lslash" unicode="&#x142;" horiz-adv-x="302" 
d="M277 458v-54l-101 -64v-340h-64v300l-71 -45v54l71 45v376h64v-336z" />
    <glyph glyph-name="m" unicode="m" horiz-adv-x="899" 
d="M640 477c113 0 185 -76 185 -205v-272h-64v269c0 90 -54 146 -131 146c-88 1 -152 -63 -145 -177l-1 4v-242h-63v269c0 91 -54 146 -128 146c-75 0 -147 -44 -149 -156v-259h-64v467h64v-84c24 62 91 94 160 94c76 0 138 -40 164 -112c34 93 115 112 172 112z" />
    <glyph glyph-name="n" unicode="n" horiz-adv-x="569" 
d="M306 477c113 0 190 -76 190 -205v-272h-64v269c0 90 -57 145 -132 145s-154 -42 -156 -155v-259h-64v467h64v-84c28 67 104 94 162 94z" />
    <glyph glyph-name="nacute" unicode="&#x144;" horiz-adv-x="569" 
d="M432 689l-112 -153h-62l97 153h77zM306 477c113 0 190 -76 190 -205v-272h-64v269c0 90 -57 145 -132 145s-154 -42 -156 -155v-259h-64v467h64v-84c28 67 104 94 162 94z" />
    <glyph glyph-name="napostrophe" unicode="&#x149;" horiz-adv-x="617" 
d="M130 689c1 -89 -28 -137 -63 -176l-44 12c34 50 50 98 43 164h64zM354 477c113 0 190 -76 189 -205v-272h-63v269c0 90 -57 145 -133 145c-74 0 -153 -42 -155 -155v-259h-64v467h64v-84c27 67 103 94 162 94z" />
    <glyph glyph-name="ncaron" unicode="&#x148;" horiz-adv-x="569" 
d="M320 536h-69l-112 153h59l87 -103l88 103h59zM306 477c113 0 190 -76 190 -205v-272h-64v269c0 90 -57 145 -132 145s-154 -42 -156 -155v-259h-64v467h64v-84c28 67 104 94 162 94z" />
    <glyph glyph-name="ncommaaccent" unicode="&#x146;" horiz-adv-x="569" 
d="M306 477c113 0 190 -76 190 -205v-272h-64v269c0 90 -57 145 -132 145s-154 -42 -156 -155v-259h-64v467h64v-84c28 67 104 94 162 94zM255 -39h65c1 -84 -34 -153 -77 -187l-40 16c38 46 57 95 52 171z" />
    <glyph glyph-name="eng" unicode="&#x14b;" horiz-adv-x="569" 
d="M306 477c113 0 190 -76 190 -205v-300c0 -114 -40 -199 -163 -199h-49v61h45c84 0 103 68 103 138v297c0 90 -57 145 -132 145s-154 -42 -156 -155v-259h-64v467h64v-84c28 67 104 94 162 94z" />
    <glyph glyph-name="ntilde" unicode="&#xf1;" horiz-adv-x="569" 
d="M238 603c-14 0 -30 -15 -31 -46h-47c3 70 40 99 78 99c47 0 67 -47 94 -47c15 0 31 13 32 45h47c-4 -70 -41 -98 -79 -98c-46 0 -65 47 -94 47zM306 477c113 0 190 -76 190 -205v-272h-64v269c0 90 -57 145 -132 145s-154 -42 -156 -155v-259h-64v467h64v-84
c28 67 104 94 162 94z" />
    <glyph glyph-name="o" unicode="o" horiz-adv-x="584" 
d="M292 -10c-133 0 -244 97 -244 245s111 242 244 242s245 -94 245 -242s-112 -245 -245 -245zM292 51c98 0 181 73 181 184c0 110 -83 181 -181 181c-99 0 -180 -71 -180 -181c0 -111 81 -184 180 -184z" />
    <glyph glyph-name="oacute" unicode="&#xf3;" horiz-adv-x="584" 
d="M265 536l97 153h77l-112 -153h-62zM292 -10c-133 0 -244 97 -244 245s111 242 244 242s245 -94 245 -242s-112 -245 -245 -245zM292 51c98 0 181 73 181 184c0 110 -83 181 -181 181c-99 0 -180 -71 -180 -181c0 -111 81 -184 180 -184z" />
    <glyph glyph-name="uni01D2" unicode="&#x1d2;" horiz-adv-x="584" 
d="M258 536l-112 153h59l87 -103l88 103h59l-112 -153h-69zM292 -10c-133 0 -244 97 -244 245s111 242 244 242s245 -94 245 -242s-112 -245 -245 -245zM292 51c98 0 181 73 181 184c0 110 -83 181 -181 181c-99 0 -180 -71 -180 -181c0 -111 81 -184 180 -184z" />
    <glyph glyph-name="ocircumflex" unicode="&#xf4;" horiz-adv-x="584" 
d="M146 536l112 153h69l112 -153h-59l-88 104l-87 -104h-59zM292 -10c-133 0 -244 97 -244 245s111 242 244 242s245 -94 245 -242s-112 -245 -245 -245zM292 51c98 0 181 73 181 184c0 110 -83 181 -181 181c-99 0 -180 -71 -180 -181c0 -111 81 -184 180 -184z" />
    <glyph glyph-name="odieresis" unicode="&#xf6;" horiz-adv-x="584" 
d="M207 566c-26 0 -48 19 -48 45c0 27 22 46 48 46c27 0 49 -19 49 -46c0 -26 -22 -45 -49 -45zM376 566c-26 0 -48 19 -48 45c0 27 22 46 48 46c27 0 49 -19 49 -46c0 -26 -22 -45 -49 -45zM292 -10c-133 0 -244 97 -244 245s111 242 244 242s245 -94 245 -242
s-112 -245 -245 -245zM292 51c98 0 181 73 181 184c0 110 -83 181 -181 181c-99 0 -180 -71 -180 -181c0 -111 81 -184 180 -184z" />
    <glyph glyph-name="ograve" unicode="&#xf2;" horiz-adv-x="584" 
d="M263 536l-111 153h78l95 -153h-62zM292 -10c-133 0 -244 97 -244 245s111 242 244 242s245 -94 245 -242s-112 -245 -245 -245zM292 51c98 0 181 73 181 184c0 110 -83 181 -181 181c-99 0 -180 -71 -180 -181c0 -111 81 -184 180 -184z" />
    <glyph glyph-name="ohungarumlaut" unicode="&#x151;" horiz-adv-x="584" 
d="M204 536l87 153h64l-94 -153h-57zM329 536l92 153h66l-102 -153h-56zM292 -10c-133 0 -244 97 -244 245s111 242 244 242s245 -94 245 -242s-112 -245 -245 -245zM292 51c98 0 181 73 181 184c0 110 -83 181 -181 181c-99 0 -180 -71 -180 -181c0 -111 81 -184 180 -184z
" />
    <glyph glyph-name="omacron" unicode="&#x14d;" horiz-adv-x="584" 
d="M172 581v57h242v-57h-242zM292 -10c-133 0 -244 97 -244 245s111 242 244 242s245 -94 245 -242s-112 -245 -245 -245zM292 51c98 0 181 73 181 184c0 110 -83 181 -181 181c-99 0 -180 -71 -180 -181c0 -111 81 -184 180 -184z" />
    <glyph glyph-name="oslash" unicode="&#xf8;" horiz-adv-x="588" 
d="M539 446l-54 -55c34 -40 54 -93 54 -156c0 -148 -112 -245 -245 -245c-58 0 -111 18 -153 51l-58 -59l-35 35l57 58c-34 41 -55 96 -55 160c0 148 111 242 244 242c59 0 113 -18 156 -51l53 54zM114 235c0 -45 13 -84 36 -114l255 259c-31 23 -70 36 -111 36
c-99 0 -180 -71 -180 -181zM475 235c0 44 -13 81 -35 110l-255 -259c30 -23 68 -35 109 -35c98 0 181 73 181 184z" />
    <glyph glyph-name="oslashacute" unicode="&#x1ff;" horiz-adv-x="588" 
d="M440 689l-112 -153h-62l97 153h77zM539 446l-54 -55c34 -40 54 -93 54 -156c0 -148 -112 -245 -245 -245c-58 0 -111 18 -153 51l-58 -59l-35 35l57 58c-34 41 -55 96 -55 160c0 148 111 242 244 242c59 0 113 -18 156 -51l53 54zM114 235c0 -45 13 -84 36 -114l255 259
c-31 23 -70 36 -111 36c-99 0 -180 -71 -180 -181zM475 235c0 44 -13 81 -35 110l-255 -259c30 -23 68 -35 109 -35c98 0 181 73 181 184z" />
    <glyph glyph-name="otilde" unicode="&#xf5;" horiz-adv-x="584" 
d="M167 557c3 70 40 99 78 99c47 0 67 -47 94 -47c15 0 31 13 32 45h47c-4 -70 -41 -98 -79 -98c-46 0 -65 47 -94 47c-14 0 -30 -15 -31 -46h-47zM292 -10c-133 0 -244 97 -244 245s111 242 244 242s245 -94 245 -242s-112 -245 -245 -245zM292 51c98 0 181 73 181 184
c0 110 -83 181 -181 181c-99 0 -180 -71 -180 -181c0 -111 81 -184 180 -184z" />
    <glyph glyph-name="oe" unicode="&#x153;" horiz-adv-x="985" 
d="M941 235c0 -9 -1 -19 -1 -28h-402c10 -99 79 -156 174 -156c64 0 121 29 152 80l55 -24c-40 -75 -121 -117 -208 -117c-90 0 -167 45 -207 120c-42 -76 -122 -120 -212 -120c-133 0 -244 97 -244 245s111 242 244 242c90 0 170 -43 212 -118c40 75 117 118 207 118
c132 0 230 -94 230 -242zM292 51c98 0 181 73 181 184c0 110 -83 181 -181 181c-99 0 -180 -71 -180 -181c0 -111 81 -184 180 -184zM539 262h338c-9 97 -76 154 -166 154c-92 0 -160 -54 -172 -154z" />
    <glyph glyph-name="p" unicode="p" horiz-adv-x="615" 
d="M330 477c131 0 237 -102 237 -244s-106 -243 -237 -243c-79 0 -151 37 -186 101v-318h-64v694h64v-92c34 64 108 102 186 102zM325 51c99 0 179 78 179 181c0 104 -80 184 -179 184c-97 0 -181 -73 -181 -181c0 -113 88 -184 181 -184z" />
    <glyph glyph-name="thorn" unicode="&#xfe;" horiz-adv-x="615" 
d="M330 477c131 0 237 -101 237 -243s-106 -244 -237 -244c-78 0 -152 38 -186 102v-319h-64v957h64v-354c35 64 107 101 186 101zM325 51c99 0 179 80 179 184c0 103 -80 181 -179 181c-93 0 -181 -71 -181 -184c0 -108 84 -181 181 -181z" />
    <glyph glyph-name="q" unicode="q" horiz-adv-x="615" 
d="M471 467h64v-694h-64v317c-35 -63 -107 -100 -186 -100c-131 0 -237 101 -237 243s107 244 237 244c78 0 151 -37 186 -101v91zM290 51c93 0 181 71 181 184c0 108 -84 181 -181 181c-98 0 -178 -80 -178 -184c0 -103 80 -181 178 -181z" />
    <glyph glyph-name="r" unicode="r" horiz-adv-x="374" 
d="M291 477c26 0 56 -5 74 -14l-12 -61c-24 10 -46 13 -63 13c-111 0 -145 -124 -145 -239v-176h-65v467h65v-114c23 79 73 124 146 124z" />
    <glyph glyph-name="racute" unicode="&#x155;" horiz-adv-x="374" 
d="M336 689l-112 -153h-62l97 153h77zM291 477c26 0 56 -5 74 -14l-12 -61c-24 10 -46 13 -63 13c-111 0 -145 -124 -145 -239v-176h-65v467h65v-114c23 79 73 124 146 124z" />
    <glyph glyph-name="rcaron" unicode="&#x159;" horiz-adv-x="374" 
d="M224 536h-69l-112 153h59l87 -103l88 103h59zM291 477c26 0 56 -5 74 -14l-12 -61c-24 10 -46 13 -63 13c-111 0 -145 -124 -145 -239v-176h-65v467h65v-114c23 79 73 124 146 124z" />
    <glyph glyph-name="rcommaaccent" unicode="&#x157;" horiz-adv-x="374" 
d="M291 477c26 0 56 -5 74 -14l-12 -61c-24 10 -46 13 -63 13c-111 0 -145 -124 -145 -239v-176h-65v467h65v-114c23 79 73 124 146 124zM29 -210c38 46 56 95 52 171h65c0 -84 -35 -153 -77 -187z" />
    <glyph glyph-name="s" unicode="s" horiz-adv-x="429" 
d="M212 -10c-81 0 -162 47 -170 136h59c7 -39 43 -79 111 -79c67 0 108 33 108 80c0 38 -26 63 -74 75l-67 16c-66 16 -119 50 -119 128c0 76 65 131 154 131c78 0 150 -43 153 -127h-62c-3 42 -44 70 -90 70c-54 0 -91 -31 -91 -75s38 -63 72 -71l69 -17
c91 -22 119 -77 119 -131c0 -83 -75 -136 -172 -136z" />
    <glyph glyph-name="sacute" unicode="&#x15b;" horiz-adv-x="429" 
d="M186 536l97 153h77l-112 -153h-62zM212 -10c-81 0 -162 47 -170 136h59c7 -39 43 -79 111 -79c67 0 108 33 108 80c0 38 -26 63 -74 75l-67 16c-66 16 -119 50 -119 128c0 76 65 131 154 131c78 0 150 -43 153 -127h-62c-3 42 -44 70 -90 70c-54 0 -91 -31 -91 -75
s38 -63 72 -71l69 -17c91 -22 119 -77 119 -131c0 -83 -75 -136 -172 -136z" />
    <glyph glyph-name="scaron" unicode="&#x161;" horiz-adv-x="429" 
d="M179 536l-112 153h59l87 -103l88 103h59l-112 -153h-69zM212 -10c-81 0 -162 47 -170 136h59c7 -39 43 -79 111 -79c67 0 108 33 108 80c0 38 -26 63 -74 75l-67 16c-66 16 -119 50 -119 128c0 76 65 131 154 131c78 0 150 -43 153 -127h-62c-3 42 -44 70 -90 70
c-54 0 -91 -31 -91 -75s38 -63 72 -71l69 -17c91 -22 119 -77 119 -131c0 -83 -75 -136 -172 -136z" />
    <glyph glyph-name="scedilla" unicode="&#x15f;" horiz-adv-x="429" 
d="M384 126c0 -70 -53 -118 -127 -132l25 -60c5 -11 9 -28 9 -40c0 -56 -39 -94 -95 -94c-59 0 -97 42 -97 104h47c2 -35 22 -57 50 -57c29 0 47 19 47 48c0 6 -1 14 -4 21l-28 74c-81 0 -161 47 -169 136h59c7 -39 43 -79 111 -79c67 0 108 33 108 80c0 38 -26 63 -74 75
l-67 16c-66 16 -119 50 -119 128c0 76 65 131 154 131c78 0 150 -43 153 -127h-62c-3 42 -44 70 -90 70c-54 0 -91 -31 -91 -75s38 -63 72 -71l69 -17c91 -22 119 -77 119 -131z" />
    <glyph glyph-name="scommaaccent" unicode="&#x219;" horiz-adv-x="429" 
d="M212 -10c-81 0 -162 47 -170 136h59c7 -39 43 -79 111 -79c67 0 108 33 108 80c0 38 -26 63 -74 75l-67 16c-66 16 -119 50 -119 128c0 76 65 131 154 131c78 0 150 -43 153 -127h-62c-3 42 -44 70 -90 70c-54 0 -91 -31 -91 -75s38 -63 72 -71l69 -17
c91 -22 119 -77 119 -131c0 -83 -75 -136 -172 -136zM171 -226l-40 16c38 46 57 95 52 171h65c1 -84 -34 -153 -77 -187z" />
    <glyph glyph-name="germandbls" unicode="&#xdf;" horiz-adv-x="580" 
d="M391 417c85 -25 142 -109 142 -203c0 -126 -91 -224 -233 -224c-27 -1 -65 6 -95 18l15 56c25 -9 55 -14 81 -14c103 0 168 72 168 169c-2 93 -72 164 -169 164h-35v55h30c67 0 113 53 113 120c0 66 -46 117 -126 117c-85 0 -138 -54 -138 -161v-514h-64v514
c0 144 80 222 201 222c120 0 191 -77 191 -172c0 -61 -31 -121 -81 -147z" />
    <glyph glyph-name="longs" unicode="&#x17f;" horiz-adv-x="259" 
d="M283 730h44v-61h-35c-88 0 -113 -59 -113 -134v-535h-64v412h-92v55h92v61c0 117 46 202 168 202z" />
    <glyph glyph-name="t" unicode="t" horiz-adv-x="301" 
d="M282 467v-55h-107v-412h-63v412h-85v55h85v186h63v-186h107z" />
    <glyph glyph-name="tbar" unicode="&#x167;" horiz-adv-x="302" 
d="M282 412h-107v-149h66v-46h-66v-217h-63v217h-59v46h59v149h-85v55h85v186h63v-186h107v-55z" />
    <glyph glyph-name="tcaron" unicode="&#x165;" horiz-adv-x="301" 
d="M314 689h64c0 -89 -28 -137 -63 -176l-44 12c34 50 49 98 43 164zM175 653v-186h107v-55h-107v-412h-63v412h-85v55h85v186h63z" />
    <glyph glyph-name="uni0163" unicode="&#x163;" horiz-adv-x="301" 
d="M282 412h-107v-395l35 -83c5 -11 10 -28 10 -40c0 -56 -39 -94 -95 -94c-59 0 -97 42 -97 104h47c1 -35 22 -57 50 -57c29 0 47 19 47 48c0 6 -1 14 -4 21l-33 84h-23v412h-85v55h85v186h63v-186h107v-55z" />
    <glyph glyph-name="uni021B" unicode="&#x21b;" horiz-adv-x="301" 
d="M175 467h107v-55h-107v-412h-63v412h-85v55h85v186h63v-186zM124 -39h65c1 -84 -34 -153 -77 -187l-40 16c38 46 57 95 52 171z" />
    <glyph glyph-name="u" unicode="u" horiz-adv-x="569" 
d="M425 467h64v-467h-64v82c-28 -66 -104 -92 -162 -92c-113 0 -190 76 -189 205v272h64v-269c0 -90 56 -145 132 -145c74 0 154 42 155 155v259z" />
    <glyph glyph-name="uacute" unicode="&#xfa;" horiz-adv-x="569" 
d="M432 689l-112 -153h-62l97 153h77zM425 467h64v-467h-64v82c-28 -66 -104 -92 -162 -92c-113 0 -190 76 -189 205v272h64v-269c0 -90 56 -145 132 -145c74 0 154 42 155 155v259z" />
    <glyph glyph-name="uni01D4" unicode="&#x1d4;" horiz-adv-x="569" 
d="M320 536h-69l-112 153h59l87 -103l88 103h59zM425 467h64v-467h-64v82c-28 -66 -104 -92 -162 -92c-113 0 -190 76 -189 205v272h64v-269c0 -90 56 -145 132 -145c74 0 154 42 155 155v259z" />
    <glyph glyph-name="ucircumflex" unicode="&#xfb;" horiz-adv-x="569" 
d="M285 640l-87 -104h-59l112 153h69l112 -153h-59zM425 467h64v-467h-64v82c-28 -66 -104 -92 -162 -92c-113 0 -190 76 -189 205v272h64v-269c0 -90 56 -145 132 -145c74 0 154 42 155 155v259z" />
    <glyph glyph-name="udieresis" unicode="&#xfc;" horiz-adv-x="569" 
d="M200 566c-26 0 -48 19 -48 45c0 27 22 46 48 46c27 0 49 -19 49 -46c0 -26 -22 -45 -49 -45zM369 566c-26 0 -48 19 -48 45c0 27 22 46 48 46c27 0 49 -19 49 -46c0 -26 -22 -45 -49 -45zM425 467h64v-467h-64v82c-28 -66 -104 -92 -162 -92c-113 0 -190 76 -189 205v272
h64v-269c0 -90 56 -145 132 -145c74 0 154 42 155 155v259z" />
    <glyph glyph-name="uni01D8" unicode="&#x1d8;" horiz-adv-x="569" 
d="M432 854l-112 -153h-62l97 153h77zM200 566c-26 0 -48 19 -48 45c0 27 22 46 48 46c27 0 49 -19 49 -46c0 -26 -22 -45 -49 -45zM321 611c0 27 22 46 48 46c27 0 49 -19 49 -46c0 -26 -22 -45 -49 -45c-26 0 -48 19 -48 45zM425 467h64v-467h-64v82
c-28 -66 -104 -92 -162 -92c-113 0 -190 76 -189 205v272h64v-269c0 -90 56 -145 132 -145c74 0 154 42 155 155v259z" />
    <glyph glyph-name="uni01DA" unicode="&#x1da;" horiz-adv-x="569" 
d="M320 701h-69l-112 153h59l87 -103l88 103h59zM152 611c0 27 22 46 48 46c27 0 49 -19 49 -46c0 -26 -22 -45 -49 -45c-26 0 -48 19 -48 45zM321 611c0 27 22 46 48 46c27 0 49 -19 49 -46c0 -26 -22 -45 -49 -45c-26 0 -48 19 -48 45zM425 467h64v-467h-64v82
c-28 -66 -104 -92 -162 -92c-113 0 -190 76 -189 205v272h64v-269c0 -90 56 -145 132 -145c74 0 154 42 155 155v259z" />
    <glyph glyph-name="uni01DC" unicode="&#x1dc;" horiz-adv-x="569" 
d="M318 701h-62l-111 153h78zM152 611c0 27 22 46 48 46c27 0 49 -19 49 -46c0 -26 -22 -45 -49 -45c-26 0 -48 19 -48 45zM369 566c-26 0 -48 19 -48 45c0 27 22 46 48 46c27 0 49 -19 49 -46c0 -26 -22 -45 -49 -45zM425 467h64v-467h-64v82c-28 -66 -104 -92 -162 -92
c-113 0 -190 76 -189 205v272h64v-269c0 -90 56 -145 132 -145c74 0 154 42 155 155v259z" />
    <glyph glyph-name="uni01D6" unicode="&#x1d6;" horiz-adv-x="569" 
d="M407 794v-57h-242v57h242zM200 566c-26 0 -48 19 -48 45c0 27 22 46 48 46c27 0 49 -19 49 -46c0 -26 -22 -45 -49 -45zM369 657c27 0 49 -19 49 -46c0 -26 -22 -45 -49 -45c-26 0 -48 19 -48 45c0 27 22 46 48 46zM425 467h64v-467h-64v82c-28 -66 -104 -92 -162 -92
c-113 0 -190 76 -189 205v272h64v-269c0 -90 56 -145 132 -145c74 0 154 42 155 155v259z" />
    <glyph glyph-name="ugrave" unicode="&#xf9;" horiz-adv-x="569" 
d="M318 536h-62l-111 153h78zM425 467h64v-467h-64v82c-28 -66 -104 -92 -162 -92c-113 0 -190 76 -189 205v272h64v-269c0 -90 56 -145 132 -145c74 0 154 42 155 155v259z" />
    <glyph glyph-name="uhungarumlaut" unicode="&#x171;" horiz-adv-x="569" 
d="M348 689l-94 -153h-57l87 153h64zM378 536h-56l92 153h66zM425 467h64v-467h-64v82c-28 -66 -104 -92 -162 -92c-113 0 -190 76 -189 205v272h64v-269c0 -90 56 -145 132 -145c74 0 154 42 155 155v259z" />
    <glyph glyph-name="umacron" unicode="&#x16b;" horiz-adv-x="569" 
d="M407 638v-57h-242v57h242zM425 467h64v-467h-64v82c-28 -66 -104 -92 -162 -92c-113 0 -190 76 -189 205v272h64v-269c0 -90 56 -145 132 -145c74 0 154 42 155 155v259z" />
    <glyph glyph-name="uogonek" unicode="&#x173;" horiz-adv-x="569" 
d="M525 -96h47c0 -62 -38 -104 -97 -104c-56 0 -95 38 -95 94c0 12 4 29 9 40l36 85v63c-28 -66 -104 -92 -162 -92c-113 0 -190 76 -189 205v272h64v-269c0 -90 56 -145 132 -145c74 0 154 42 155 155v259h64v-467h-25l-32 -84c-3 -7 -4 -15 -4 -21c0 -29 18 -48 47 -48
c28 0 48 22 50 57z" />
    <glyph glyph-name="uring" unicode="&#x16f;" horiz-adv-x="569" 
d="M284 539c-52 0 -94 42 -94 95s42 96 94 96c54 0 97 -43 97 -96s-43 -95 -97 -95zM284 688c-29 0 -52 -24 -52 -54s23 -53 52 -53c31 0 55 23 55 53s-24 54 -55 54zM425 467h64v-467h-64v82c-28 -66 -104 -92 -162 -92c-113 0 -190 76 -189 205v272h64v-269
c0 -90 56 -145 132 -145c74 0 154 42 155 155v259z" />
    <glyph glyph-name="v" unicode="v" horiz-adv-x="500" 
d="M411 467h69l-198 -467h-66l-195 467h68l160 -389z" />
    <glyph glyph-name="w" unicode="w" horiz-adv-x="789" 
d="M700 467h68l-174 -467h-56l-145 382l-139 -382h-56l-179 467h69l137 -371l136 371h66l137 -370z" />
    <glyph glyph-name="wacute" unicode="&#x1e83;" horiz-adv-x="789" 
d="M543 689l-112 -153h-62l97 153h77zM700 467h68l-174 -467h-56l-145 382l-139 -382h-56l-179 467h69l137 -371l136 371h66l137 -370z" />
    <glyph glyph-name="wcircumflex" unicode="&#x175;" horiz-adv-x="789" 
d="M396 640l-87 -104h-59l112 153h69l112 -153h-59zM700 467h68l-174 -467h-56l-145 382l-139 -382h-56l-179 467h69l137 -371l136 371h66l137 -370z" />
    <glyph glyph-name="wdieresis" unicode="&#x1e85;" horiz-adv-x="789" 
d="M311 566c-26 0 -48 19 -48 45c0 27 22 46 48 46c27 0 49 -19 49 -46c0 -26 -22 -45 -49 -45zM480 566c-26 0 -48 19 -48 45c0 27 22 46 48 46c27 0 49 -19 49 -46c0 -26 -22 -45 -49 -45zM700 467h68l-174 -467h-56l-145 382l-139 -382h-56l-179 467h69l137 -371l136 371
h66l137 -370z" />
    <glyph glyph-name="wgrave" unicode="&#x1e81;" horiz-adv-x="789" 
d="M429 536h-62l-111 153h78zM700 467h68l-174 -467h-56l-145 382l-139 -382h-56l-179 467h69l137 -371l136 371h66l137 -370z" />
    <glyph glyph-name="x" unicode="x" horiz-adv-x="471" 
d="M459 0h-77l-146 204l-148 -204h-76l186 257l-152 210h78l112 -157l111 157h78l-151 -209z" />
    <glyph glyph-name="y" unicode="y" horiz-adv-x="498" 
d="M411 467h69l-293 -694h-68l96 233l-193 461h69l159 -382z" />
    <glyph glyph-name="yacute" unicode="&#xfd;" horiz-adv-x="498" 
d="M397 689l-112 -153h-62l97 153h77zM411 467h69l-293 -694h-68l96 233l-193 461h69l159 -382z" />
    <glyph glyph-name="ycircumflex" unicode="&#x177;" horiz-adv-x="498" 
d="M250 640l-87 -104h-59l112 153h69l112 -153h-59zM411 467h69l-293 -694h-68l96 233l-193 461h69l159 -382z" />
    <glyph glyph-name="ydieresis" unicode="&#xff;" horiz-adv-x="498" 
d="M165 566c-26 0 -48 19 -48 45c0 27 22 46 48 46c27 0 49 -19 49 -46c0 -26 -22 -45 -49 -45zM334 566c-26 0 -48 19 -48 45c0 27 22 46 48 46c27 0 49 -19 49 -46c0 -26 -22 -45 -49 -45zM411 467h69l-293 -694h-68l96 233l-193 461h69l159 -382z" />
    <glyph glyph-name="ygrave" unicode="&#x1ef3;" horiz-adv-x="498" 
d="M283 536h-62l-111 153h78zM411 467h69l-293 -694h-68l96 233l-193 461h69l159 -382z" />
    <glyph glyph-name="z" unicode="z" horiz-adv-x="484" 
d="M439 467v-51l-307 -355h307v-61h-398v50l304 356h-295v61h389z" />
    <glyph glyph-name="zacute" unicode="&#x17a;" horiz-adv-x="484" 
d="M388 689l-112 -153h-62l97 153h77zM439 467v-51l-307 -355h307v-61h-398v50l304 356h-295v61h389z" />
    <glyph glyph-name="zcaron" unicode="&#x17e;" horiz-adv-x="484" 
d="M276 536h-69l-112 153h59l87 -103l88 103h59zM439 467v-51l-307 -355h307v-61h-398v50l304 356h-295v61h389z" />
    <glyph glyph-name="zdotaccent" unicode="&#x17c;" horiz-adv-x="484" 
d="M242 561c-27 0 -49 19 -49 45c0 27 22 46 49 46c28 0 49 -19 49 -46c0 -26 -21 -45 -49 -45zM439 467v-51l-307 -355h307v-61h-398v50l304 356h-295v61h389z" />
    <glyph glyph-name="a.alt" horiz-adv-x="547" 
d="M264 477c127 0 209 -77 209 -193v-284h-64v78c-38 -51 -115 -88 -194 -88c-106 0 -174 55 -174 138c0 86 75 143 190 143c60 0 129 -15 178 -38v51c0 80 -57 134 -149 134c-67 0 -121 -23 -153 -58l-39 39c43 53 121 78 196 78zM215 48c79 0 157 39 194 97v35
c-46 23 -116 38 -174 38c-81 0 -133 -35 -133 -88c0 -49 43 -82 113 -82z" />
    <glyph glyph-name="aacute.alt" horiz-adv-x="547" 
d="M417 689l-111 -153h-62l96 153h77zM264 477c127 0 209 -77 209 -193v-284h-64v78c-38 -51 -115 -88 -194 -88c-106 0 -174 55 -174 138c0 86 75 143 190 143c60 0 129 -15 178 -38v51c0 80 -57 134 -149 134c-67 0 -121 -23 -153 -58l-39 39c43 53 121 78 196 78zM215 48
c79 0 157 39 194 97v35c-46 23 -116 38 -174 38c-81 0 -133 -35 -133 -88c0 -49 43 -82 113 -82z" />
    <glyph glyph-name="abreve.alt" horiz-adv-x="547" 
d="M264 552c-86 0 -121 58 -121 124h54c0 -42 22 -73 67 -73c41 0 66 31 66 73h55c0 -77 -48 -124 -121 -124zM264 477c127 0 209 -77 209 -193v-284h-64v78c-38 -51 -115 -88 -194 -88c-106 0 -174 55 -174 138c0 86 75 143 190 143c60 0 129 -15 178 -38v51
c0 80 -57 134 -149 134c-67 0 -121 -23 -153 -58l-39 39c43 53 121 78 196 78zM215 48c79 0 157 39 194 97v35c-46 23 -116 38 -174 38c-81 0 -133 -35 -133 -88c0 -49 43 -82 113 -82z" />
    <glyph glyph-name="uni01CE.alt" horiz-adv-x="547" 
d="M307 536h-69l-112 153h59l87 -103l88 103h59zM264 477c127 0 209 -77 209 -193v-284h-64v78c-38 -51 -115 -88 -194 -88c-106 0 -174 55 -174 138c0 86 75 143 190 143c60 0 129 -15 178 -38v51c0 80 -57 134 -149 134c-67 0 -121 -23 -153 -58l-39 39
c43 53 121 78 196 78zM215 48c79 0 157 39 194 97v35c-46 23 -116 38 -174 38c-81 0 -133 -35 -133 -88c0 -49 43 -82 113 -82z" />
    <glyph glyph-name="acircumflex.alt" horiz-adv-x="547" 
d="M266 640l-87 -104h-60l113 153h69l112 -153h-59zM264 477c127 0 209 -77 209 -193v-284h-64v78c-38 -51 -115 -88 -194 -88c-106 0 -174 55 -174 138c0 86 75 143 190 143c60 0 129 -15 178 -38v51c0 80 -57 134 -149 134c-67 0 -121 -23 -153 -58l-39 39
c43 53 121 78 196 78zM215 48c79 0 157 39 194 97v35c-46 23 -116 38 -174 38c-81 0 -133 -35 -133 -88c0 -49 43 -82 113 -82z" />
    <glyph glyph-name="adieresis.alt" horiz-adv-x="547" 
d="M178 566c-27 0 -49 19 -49 45c0 27 22 46 49 46c26 0 48 -19 48 -46c0 -26 -22 -45 -48 -45zM347 566c-27 0 -49 19 -49 45c0 27 22 46 49 46s48 -19 48 -46c0 -26 -21 -45 -48 -45zM264 477c127 0 209 -77 209 -193v-284h-64v78c-38 -51 -115 -88 -194 -88
c-106 0 -174 55 -174 138c0 86 75 143 190 143c60 0 129 -15 178 -38v51c0 80 -57 134 -149 134c-67 0 -121 -23 -153 -58l-39 39c43 53 121 78 196 78zM215 48c79 0 157 39 194 97v35c-46 23 -116 38 -174 38c-81 0 -133 -35 -133 -88c0 -49 43 -82 113 -82z" />
    <glyph glyph-name="agrave.alt" horiz-adv-x="547" 
d="M292 536h-62l-110 153h77zM264 477c127 0 209 -77 209 -193v-284h-64v78c-38 -51 -115 -88 -194 -88c-106 0 -174 55 -174 138c0 86 75 143 190 143c60 0 129 -15 178 -38v51c0 80 -57 134 -149 134c-67 0 -121 -23 -153 -58l-39 39c43 53 121 78 196 78zM215 48
c79 0 157 39 194 97v35c-46 23 -116 38 -174 38c-81 0 -133 -35 -133 -88c0 -49 43 -82 113 -82z" />
    <glyph glyph-name="amacron.alt" horiz-adv-x="547" 
d="M386 638v-57h-242v57h242zM264 477c127 0 209 -77 209 -193v-284h-64v78c-38 -51 -115 -88 -194 -88c-106 0 -174 55 -174 138c0 86 75 143 190 143c60 0 129 -15 178 -38v51c0 80 -57 134 -149 134c-67 0 -121 -23 -153 -58l-39 39c43 53 121 78 196 78zM215 48
c79 0 157 39 194 97v35c-46 23 -116 38 -174 38c-81 0 -133 -35 -133 -88c0 -49 43 -82 113 -82z" />
    <glyph glyph-name="aogonek.alt" horiz-adv-x="547" 
d="M518 -96h46c0 -62 -38 -104 -96 -104c-57 0 -96 38 -96 94c0 12 5 29 10 40l27 66v79c-39 -52 -115 -89 -194 -89c-106 0 -174 55 -174 138c0 86 75 143 190 143c59 0 129 -15 178 -38v51c0 80 -57 134 -149 134c-67 0 -121 -23 -153 -58l-39 39c43 53 121 78 196 78
c127 0 209 -77 209 -193v-284h-18l-31 -84c-3 -7 -4 -15 -4 -21c0 -29 18 -48 48 -48c27 0 48 22 50 57zM215 48c78 0 157 39 194 97v35c-47 23 -117 38 -174 38c-81 0 -133 -35 -133 -88c0 -49 43 -82 113 -82z" />
    <glyph glyph-name="aring.alt" horiz-adv-x="547" 
d="M261 539c-52 0 -94 42 -94 95s42 96 94 96c55 0 97 -43 97 -96s-42 -95 -97 -95zM261 688c-29 0 -52 -24 -52 -54s23 -53 52 -53c31 0 56 23 56 53s-25 54 -56 54zM264 477c127 0 209 -77 209 -193v-284h-64v78c-38 -51 -115 -88 -194 -88c-106 0 -174 55 -174 138
c0 86 75 143 190 143c60 0 129 -15 178 -38v51c0 80 -57 134 -149 134c-67 0 -121 -23 -153 -58l-39 39c43 53 121 78 196 78zM215 48c79 0 157 39 194 97v35c-46 23 -116 38 -174 38c-81 0 -133 -35 -133 -88c0 -49 43 -82 113 -82z" />
    <glyph glyph-name="aringacute.alt" horiz-adv-x="547" 
d="M263 539c-52 0 -94 42 -94 95c0 49 36 90 83 95l49 79h77l-69 -90c31 -16 51 -48 51 -84c0 -53 -43 -95 -97 -95zM263 688c-29 0 -52 -24 -52 -54s23 -53 52 -53c31 0 55 23 55 53s-24 54 -55 54zM264 477c127 0 209 -77 209 -193v-284h-64v78c-38 -51 -115 -88 -194 -88
c-106 0 -174 55 -174 138c0 86 75 143 190 143c60 0 129 -15 178 -38v51c0 80 -57 134 -149 134c-67 0 -121 -23 -153 -58l-39 39c43 53 121 78 196 78zM215 48c79 0 157 39 194 97v35c-46 23 -116 38 -174 38c-81 0 -133 -35 -133 -88c0 -49 43 -82 113 -82z" />
    <glyph glyph-name="atilde.alt" horiz-adv-x="547" 
d="M216 603c-15 0 -30 -15 -31 -46h-48c4 70 41 99 79 99c46 0 67 -47 94 -47c15 0 30 13 31 45h48c-4 -70 -41 -98 -79 -98c-46 0 -65 47 -94 47zM264 477c127 0 209 -77 209 -193v-284h-64v78c-38 -51 -115 -88 -194 -88c-106 0 -174 55 -174 138c0 86 75 143 190 143
c60 0 130 -15 178 -39v52c0 80 -57 134 -149 134c-67 0 -121 -23 -153 -58l-39 39c43 53 121 78 196 78zM215 48c78 0 156 38 194 95v37c-47 24 -116 38 -174 38c-81 0 -133 -35 -133 -88c0 -49 43 -82 113 -82z" />
    <glyph glyph-name="l.alt" horiz-adv-x="275" 
d="M235 0c-122 0 -157 75 -157 188v542h64v-541c-1 -73 14 -128 98 -128h27v-61h-32z" />
    <glyph glyph-name="lacute.alt" horiz-adv-x="275" 
d="M84 758l97 153h77l-112 -153h-62zM235 0c-122 0 -157 75 -157 188v542h64v-541c-1 -73 14 -128 98 -128h27v-61h-32z" />
    <glyph glyph-name="lcaron.alt" horiz-adv-x="275" 
d="M235 0c-122 0 -157 75 -157 188v542h64v-541c-1 -73 14 -128 98 -128h27v-61h-32zM238 513l-44 12c34 50 50 98 43 164h64c1 -89 -27 -137 -63 -176z" />
    <glyph glyph-name="lcommaaccent.alt" horiz-adv-x="275" 
d="M235 0c-122 0 -157 75 -157 188v542h64v-541c-1 -73 14 -128 98 -128h27v-61h-32zM160 -226l-40 16c38 46 57 95 52 171h65c1 -84 -34 -153 -77 -187z" />
    <glyph glyph-name="lslash.alt" horiz-adv-x="333" 
d="M267 61h27v-61h-32c-122 0 -157 75 -157 188v108l-65 -41v54l65 41v380h64v-340l107 68v-54l-107 -68v-147c-1 -73 13 -128 98 -128z" />
    <glyph glyph-name="t.alt" horiz-adv-x="317" 
d="M268 0c-123 0 -163 75 -163 188v224h-84v55h84v132l64 20v-152h106v-55h-106v-223c0 -72 19 -128 103 -128h21v-61h-25z" />
    <glyph glyph-name="tbar.alt" horiz-adv-x="332" 
d="M283 61h21v-61h-25c-123 0 -162 75 -162 188v42h-62v46h62v136h-85v55h85v132l63 20v-152h106v-55h-106v-136h63v-46h-63v-41c0 -72 19 -128 103 -128z" />
    <glyph glyph-name="tcaron.alt" horiz-adv-x="317" 
d="M306 513l-44 12c34 50 49 98 43 164h64c0 -89 -28 -137 -63 -176zM268 0c-123 0 -163 75 -163 188v224h-84v55h84v132l64 20v-152h106v-55h-106v-223c0 -72 19 -128 103 -128h21v-61h-25z" />
    <glyph glyph-name="uni0163.alt" horiz-adv-x="317" 
d="M293 0h-25c-11 0 -21 1 -30 2l29 -68c5 -11 9 -28 9 -40c0 -56 -39 -94 -95 -94c-59 0 -97 42 -97 104h47c1 -35 22 -57 50 -57c29 0 47 19 47 48c0 6 -1 14 -4 21l-38 99c-60 28 -81 90 -81 173v224h-84v55h84v132l64 20v-152h106v-55h-106v-223c0 -72 19 -128 103 -128
h21v-61z" />
    <glyph glyph-name="uni021B.alt" horiz-adv-x="317" 
d="M268 0c-123 0 -163 75 -163 188v224h-84v55h84v132l64 20v-152h106v-55h-106v-223c0 -72 19 -128 103 -128h21v-61h-25zM175 -226l-40 16c38 46 56 95 52 171h65c0 -84 -35 -153 -77 -187z" />
    <glyph glyph-name="y.alt" horiz-adv-x="498" 
d="M410 467h69l-231 -549c-44 -101 -92 -151 -187 -151c-7 0 -23 0 -43 5v59c15 -4 35 -4 41 -4c68 0 99 41 132 121l24 58l-193 461h69l159 -378z" />
    <glyph glyph-name="yacute.alt" horiz-adv-x="498" 
d="M397 689l-112 -153h-62l97 153h77zM410 467h69l-231 -549c-44 -101 -92 -151 -187 -151c-7 0 -23 0 -43 5v59c15 -4 35 -4 41 -4c68 0 99 41 132 121l24 58l-193 461h69l159 -378z" />
    <glyph glyph-name="ycircumflex.alt" horiz-adv-x="498" 
d="M250 640l-87 -104h-59l112 153h69l112 -153h-59zM410 467h69l-231 -549c-44 -101 -92 -151 -187 -151c-7 0 -23 0 -43 5v59c15 -4 35 -4 41 -4c68 0 99 41 132 121l24 58l-193 461h69l159 -378z" />
    <glyph glyph-name="ydieresis.alt" horiz-adv-x="498" 
d="M165 566c-26 0 -48 19 -48 45c0 27 22 46 48 46c27 0 49 -19 49 -46c0 -26 -22 -45 -49 -45zM334 566c-26 0 -48 19 -48 45c0 27 22 46 48 46c27 0 49 -19 49 -46c0 -26 -22 -45 -49 -45zM410 467h69l-231 -549c-44 -101 -92 -151 -187 -151c-7 0 -23 0 -43 5v59
c15 -4 35 -4 41 -4c68 0 99 41 132 121l24 58l-193 461h69l159 -378z" />
    <glyph glyph-name="ygrave.alt" horiz-adv-x="498" 
d="M283 536h-62l-111 153h78zM410 467h69l-231 -549c-44 -101 -92 -151 -187 -151c-7 0 -23 0 -43 5v59c15 -4 35 -4 41 -4c68 0 99 41 132 121l24 58l-193 461h69l159 -378z" />
    <glyph glyph-name="f_b" horiz-adv-x="938" 
d="M653 477c131 0 237 -101 237 -243s-107 -244 -237 -244c-78 0 -151 37 -186 101v-91h-64v669h-111c-88 0 -113 -59 -113 -134v-68h119v-55h-119v-412h-64v412h-92v55h92v61c0 117 46 202 168 202h184v-353c35 63 107 100 186 100zM648 51c98 0 178 80 178 184
c0 103 -80 181 -178 181c-93 0 -181 -71 -181 -184c0 -108 84 -181 181 -181z" />
    <glyph glyph-name="f_f_b" horiz-adv-x="1266" 
d="M981 477c131 0 237 -101 237 -243s-107 -244 -237 -244c-78 0 -151 37 -186 101v-91h-64v669h-111c-88 0 -113 -59 -113 -134v-68h119v-55h-119v-412h-64v412h-264v-412h-64v412h-92v55h92v61c0 117 46 202 168 202h44v-61h-35c-88 0 -113 -59 -113 -134v-68h264v61
c0 117 46 202 168 202h184v-353c35 63 107 100 186 100zM976 51c99 0 178 80 178 184c0 103 -79 181 -178 181c-93 0 -181 -71 -181 -184c0 -108 84 -181 181 -181z" />
    <glyph glyph-name="f_f_j" horiz-adv-x="875" 
d="M795 467v-495c0 -114 -40 -199 -163 -199h-49v61h45c84 0 103 68 103 138v440h-224v-412h-64v412h-264v-412h-64v412h-92v55h92v61c0 117 46 202 168 202h44v-61h-35c-88 0 -113 -59 -113 -134v-68h264v61c0 117 46 202 168 202h25v-61h-16c-88 0 -113 -59 -113 -134v-68
h288zM763 685c27 0 49 -19 49 -46c0 -26 -22 -45 -49 -45s-49 19 -49 45c0 27 22 46 49 46z" />
    <glyph glyph-name="f_f_k" horiz-adv-x="1110" 
d="M1117 0h-87l-236 240v-240h-64v669h-110c-88 0 -113 -59 -113 -134v-68h119v-55h-119v-412h-64v412h-264v-412h-64v412h-92v55h92v61c0 117 46 202 168 202h44v-61h-35c-88 0 -113 -59 -113 -134v-68h264v61c0 117 46 202 168 202h183v-442l176 179h88l-200 -203z" />
    <glyph glyph-name="f_j" horiz-adv-x="547" 
d="M467 467v-495c0 -114 -40 -199 -163 -199h-49v61h45c84 0 103 68 103 138v440h-224v-412h-64v412h-92v55h92v61c0 117 46 202 168 202h31v-61h-22c-88 0 -113 -59 -113 -134v-68h288zM435 685c27 0 49 -19 49 -46c0 -26 -22 -45 -49 -45s-49 19 -49 45c0 27 22 46 49 46z
" />
    <glyph glyph-name="f_k" horiz-adv-x="782" 
d="M789 0h-87l-236 240v-240h-64v669h-110c-88 0 -113 -59 -113 -134v-68h119v-55h-119v-412h-64v412h-92v55h92v61c0 117 46 202 168 202h183v-442l175 179h89l-200 -203z" />
    <glyph glyph-name="f_b.c2sc" horiz-adv-x="1021" 
d="M94 0v559h335v-59h-270v-196h214v-59h-214v-245h-65zM854 298c77 -18 111 -84 111 -143c0 -79 -61 -155 -169 -155h-237v559h216c96 0 158 -52 158 -139c0 -49 -22 -102 -79 -122zM773 500h-149v-178h159c55 0 85 40 85 92s-35 86 -95 86zM786 59c73 0 114 48 114 101
c0 56 -44 106 -117 106h-159v-207h162z" />
    <glyph glyph-name="f_f.c2sc" horiz-adv-x="930" 
d="M94 0v559h335v-59h-270v-196h214v-59h-214v-245h-65zM894 500h-270v-196h214v-59h-214v-245h-65v559h335v-59z" />
    <glyph glyph-name="f_f_b.c2sc" horiz-adv-x="1486" 
d="M94 0v559h335v-59h-270v-196h214v-59h-214v-245h-65zM559 0v559h335v-59h-270v-196h214v-59h-214v-245h-65zM1319 298c77 -18 111 -84 111 -143c0 -79 -61 -155 -169 -155h-237v559h216c96 0 158 -52 158 -139c0 -49 -22 -102 -79 -122zM1238 500h-149v-178h159
c55 0 85 40 85 92s-35 86 -95 86zM1251 59c73 0 114 48 114 101c0 56 -44 106 -117 106h-159v-207h162z" />
    <glyph glyph-name="f_f_i.c2sc" horiz-adv-x="1183" 
d="M94 0v559h335v-59h-270v-196h214v-59h-214v-245h-65zM559 0v559h335v-59h-270v-196h214v-59h-214v-245h-65zM1024 559h65v-559h-65v559z" />
    <glyph glyph-name="f_f_j.c2sc" horiz-adv-x="1191" 
d="M94 0v559h335v-59h-270v-196h214v-59h-214v-245h-65zM624 500v-196h214v-59h-214v-245h-65v559h335v-59h-270zM1032 559h65v-569c0 -97 -48 -179 -178 -179c-14 0 -38 3 -56 7l7 60c14 -4 42 -5 49 -5c82 0 113 53 113 117v569z" />
    <glyph glyph-name="f_f_k.c2sc" horiz-adv-x="1422" 
d="M94 0v559h335v-59h-270v-196h214v-59h-214v-245h-65zM559 0v559h335v-59h-270v-196h214v-59h-214v-245h-65zM1422 0h-89l-245 236v-236h-64v559h64v-249l209 249h81l-238 -285z" />
    <glyph glyph-name="f_f_l.c2sc" horiz-adv-x="1364" 
d="M94 0v559h335v-59h-270v-196h214v-59h-214v-245h-65zM559 0v559h335v-59h-270v-196h214v-59h-214v-245h-65zM1089 59h246v-59h-311v559h65v-500z" />
    <glyph glyph-name="f_j.c2sc" horiz-adv-x="726" 
d="M159 500v-196h214v-59h-214v-245h-65v559h335v-59h-270zM567 559h65v-569c0 -97 -48 -179 -178 -179c-14 0 -38 3 -56 7l7 60c14 -4 42 -5 49 -5c82 0 113 53 113 117v569z" />
    <glyph glyph-name="f_k.c2sc" horiz-adv-x="957" 
d="M94 0v559h335v-59h-270v-196h214v-59h-214v-245h-65zM957 0h-89l-245 236v-236h-64v559h64v-249l209 249h81l-238 -285z" />
    <glyph glyph-name="fi.c2sc" horiz-adv-x="718" 
d="M94 0v559h335v-59h-270v-196h214v-59h-214v-245h-65zM559 559h65v-559h-65v559z" />
    <glyph glyph-name="fl.c2sc" horiz-adv-x="899" 
d="M94 0v559h335v-59h-270v-196h214v-59h-214v-245h-65zM624 59h246v-59h-311v559h65v-500z" />
    <glyph glyph-name="a.smcp" horiz-adv-x="544" 
d="M461 0l-57 146h-264l-57 -146h-69l223 559h70l222 -559h-68zM163 203h218l-109 278z" />
    <glyph glyph-name="aacute.smcp" horiz-adv-x="544" 
d="M399 744l-97 -127h-56l82 127h71zM461 0l-57 146h-264l-57 -146h-69l223 559h70l222 -559h-68zM163 203h218l-109 278z" />
    <glyph glyph-name="abreve.smcp" horiz-adv-x="544" 
d="M272 630c-74 0 -105 48 -105 101h49c0 -33 18 -57 56 -57c34 0 54 24 54 57h50c0 -63 -42 -101 -104 -101zM461 0l-57 146h-264l-57 -146h-69l223 559h70l222 -559h-68zM163 203h218l-109 278z" />
    <glyph glyph-name="uni01CE.smcp" horiz-adv-x="544" 
d="M305 617h-66l-96 127h54l74 -83l75 83h54zM461 0l-57 146h-264l-57 -146h-69l223 559h70l222 -559h-68zM163 203h218l-109 278z" />
    <glyph glyph-name="acircumflex.smcp" horiz-adv-x="544" 
d="M271 700l-74 -83h-54l96 127h66l95 -127h-54zM461 0l-57 146h-264l-57 -146h-69l223 559h70l222 -559h-68zM163 203h218l-109 278z" />
    <glyph glyph-name="adieresis.smcp" horiz-adv-x="544" 
d="M198 641c-24 0 -44 17 -44 40c0 22 20 39 44 39c23 0 43 -17 43 -39c0 -23 -20 -40 -43 -40zM345 641c-23 0 -43 17 -43 40c0 22 20 39 43 39c24 0 44 -17 44 -39c0 -23 -20 -40 -44 -40zM461 0l-57 146h-264l-57 -146h-69l223 559h70l222 -559h-68zM163 203h218
l-109 278z" />
    <glyph glyph-name="agrave.smcp" horiz-adv-x="544" 
d="M302 617h-56l-97 127h72zM461 0l-57 146h-264l-57 -146h-69l223 559h70l222 -559h-68zM163 203h218l-109 278z" />
    <glyph glyph-name="ij.alt.smcp" horiz-adv-x="595" 
d="M94 0v559h65v-559h-65zM329 -8c-15 0 -38 3 -57 7l7 60c15 -3 42 -5 50 -5c82 0 113 54 113 117v388h65v-388c0 -97 -49 -179 -178 -179z" />
    <glyph glyph-name="j.alt.smcp" horiz-adv-x="346" 
d="M80 -8c-15 0 -38 3 -57 7l7 60c14 -3 42 -5 50 -5c82 0 113 54 113 117v388h64v-388c0 -97 -47 -179 -177 -179z" />
    <glyph glyph-name="jcircumflex.alt.smcp" horiz-adv-x="346" 
d="M96 617l96 127h66l95 -127h-54l-75 83l-73 -83h-55zM80 -8c-15 0 -38 3 -57 7l7 60c14 -3 42 -5 50 -5c82 0 113 54 113 117v388h64v-388c0 -97 -47 -179 -177 -179z" />
    <glyph glyph-name="w.alt.smcp" horiz-adv-x="720" 
d="M616 559h71l-160 -554h-57l-110 424l-110 -424h-57l-160 554h71l118 -444l110 419h56l110 -419z" />
    <glyph glyph-name="wacute.alt.smcp" horiz-adv-x="720" 
d="M491 744l-97 -127h-56l81 127h72zM616 559h71l-160 -554h-57l-110 424l-110 -424h-57l-160 554h71l118 -444l110 419h56l110 -419z" />
    <glyph glyph-name="wcircumflex.alt.smcp" horiz-adv-x="720" 
d="M363 700l-74 -83h-54l95 127h66l96 -127h-54zM616 559h71l-160 -554h-57l-110 424l-110 -424h-57l-160 554h71l118 -444l110 419h56l110 -419z" />
    <glyph glyph-name="wdieresis.alt.smcp" horiz-adv-x="720" 
d="M290 641c-24 0 -44 17 -44 40c0 22 20 39 44 39c23 0 43 -17 43 -39c0 -23 -20 -40 -43 -40zM437 641c-24 0 -43 17 -43 40c0 22 19 39 43 39s43 -17 43 -39c0 -23 -19 -40 -43 -40zM616 559h71l-160 -554h-57l-110 424l-110 -424h-57l-160 554h71l118 -444l110 419h56
l110 -419z" />
    <glyph glyph-name="wgrave.alt.smcp" horiz-adv-x="720" 
d="M393 617h-55l-96 127h70zM616 559h71l-160 -554h-57l-110 424l-110 -424h-57l-160 554h71l118 -444l110 419h56l110 -419z" />
    <glyph glyph-name="amacron.smcp" horiz-adv-x="544" 
d="M376 701v-48h-209v48h209zM461 0l-57 146h-264l-57 -146h-69l223 559h70l222 -559h-68zM163 203h218l-109 278z" />
    <glyph glyph-name="aogonek.smcp" horiz-adv-x="544" 
d="M540 -78h42c0 -53 -35 -86 -84 -86c-48 0 -82 31 -82 77c0 10 3 24 8 34l31 68l-51 131h-264l-57 -146h-69l223 559h70l222 -559h-38l-29 -68c-2 -6 -3 -13 -3 -18c0 -23 16 -38 39 -38c24 0 40 18 42 46zM163 203h218l-109 278z" />
    <glyph glyph-name="aring.smcp" horiz-adv-x="544" 
d="M271 617c-47 0 -83 36 -83 81s36 81 83 81s84 -36 84 -81s-37 -81 -84 -81zM271 744c-26 0 -47 -21 -47 -46s21 -45 47 -45c27 0 48 20 48 45s-21 46 -48 46zM461 0l-57 146h-264l-57 -146h-69l223 559h70l222 -559h-68zM163 203h218l-109 278z" />
    <glyph glyph-name="aringacute.smcp" horiz-adv-x="544" 
d="M271 617c-47 0 -83 36 -83 81c0 37 24 67 58 77l42 68h71l-55 -70c30 -12 51 -41 51 -75c0 -45 -37 -81 -84 -81zM271 744c-26 0 -47 -21 -47 -46s21 -45 47 -45c27 0 48 20 48 45s-21 46 -48 46zM461 0l-57 146h-264l-57 -146h-69l223 559h70l222 -559h-68zM163 203h218
l-109 278z" />
    <glyph glyph-name="atilde.smcp" horiz-adv-x="544" 
d="M232 671c-12 0 -26 -12 -26 -37h-43c3 59 36 83 69 83c39 0 56 -38 79 -38c12 0 26 11 27 36h42c-3 -59 -37 -82 -69 -82c-38 0 -55 38 -79 38zM461 0l-57 146h-264l-57 -146h-69l223 559h70l222 -559h-68zM163 203h218l-109 278z" />
    <glyph glyph-name="ae.smcp" horiz-adv-x="808" 
d="M471 59h283v-59h-348v145h-244l-93 -145h-75l357 559h394v-59h-274v-196h239v-59h-239v-186zM200 205h206v294h-18z" />
    <glyph glyph-name="aeacute.smcp" horiz-adv-x="808" 
d="M531 744l-97 -127h-56l82 127h71zM471 59h283v-59h-348v145h-244l-93 -145h-75l357 559h394v-59h-274v-196h239v-59h-239v-186zM200 205h206v294h-18z" />
    <glyph glyph-name="b.smcp" horiz-adv-x="556" 
d="M389 298c77 -18 111 -84 111 -143c0 -79 -61 -155 -169 -155h-237v559h216c96 0 158 -52 158 -139c0 -49 -22 -102 -79 -122zM308 500h-149v-178h159c55 0 85 40 85 92s-35 86 -95 86zM321 59c73 0 114 48 114 101c0 56 -44 106 -117 106h-159v-207h162z" />
    <glyph glyph-name="c.smcp" 
d="M347 -8c-165 0 -295 128 -295 287c0 158 130 286 295 286c85 0 161 -35 212 -90l-47 -40c-41 43 -99 69 -165 69c-130 0 -230 -101 -230 -225s100 -226 230 -226c66 0 124 27 164 69l48 -39c-52 -56 -127 -91 -212 -91z" />
    <glyph glyph-name="cacute.smcp" 
d="M271 617l82 127h71l-98 -127h-55zM347 -8c-165 0 -295 128 -295 287c0 158 130 286 295 286c85 0 161 -35 212 -90l-47 -40c-41 43 -99 69 -165 69c-130 0 -230 -101 -230 -225s100 -226 230 -226c66 0 124 27 164 69l48 -39c-52 -56 -127 -91 -212 -91z" />
    <glyph glyph-name="ccaron.smcp" 
d="M299 617l-95 127h54l74 -83l74 83h55l-96 -127h-66zM347 -8c-165 0 -295 128 -295 287c0 158 130 286 295 286c85 0 161 -35 212 -90l-47 -40c-41 43 -99 69 -165 69c-130 0 -230 -101 -230 -225s100 -226 230 -226c66 0 124 27 164 69l48 -39c-52 -56 -127 -91 -212 -91
z" />
    <glyph glyph-name="ccedilla.smcp" 
d="M347 53c66 0 124 27 164 69l48 -39c-48 -52 -117 -86 -195 -91l21 -45c5 -10 8 -24 8 -34c0 -46 -34 -77 -82 -77c-49 0 -84 33 -84 86h42c2 -28 18 -46 42 -46s39 15 39 38c0 5 -1 12 -3 18l-25 61c-153 12 -270 135 -270 286c0 158 130 286 295 286
c85 0 161 -35 212 -90l-47 -40c-41 43 -99 69 -165 69c-130 0 -230 -101 -230 -225s100 -226 230 -226z" />
    <glyph glyph-name="cdotaccent.smcp" 
d="M336 636c-24 0 -44 17 -44 40c0 24 20 41 44 41c25 0 45 -17 45 -41c0 -23 -20 -40 -45 -40zM347 -8c-165 0 -295 128 -295 287c0 158 130 286 295 286c85 0 161 -35 212 -90l-47 -40c-41 43 -99 69 -165 69c-130 0 -230 -101 -230 -225s100 -226 230 -226
c66 0 124 27 164 69l48 -39c-52 -56 -127 -91 -212 -91z" />
    <glyph glyph-name="d.smcp" horiz-adv-x="635" 
d="M94 0v559h224c166 0 261 -122 261 -281c0 -158 -95 -278 -261 -278h-224zM159 59h159c127 0 197 97 197 219c0 123 -70 222 -197 222h-159v-441z" />
    <glyph glyph-name="eth.smcp" horiz-adv-x="639" 
d="M322 559c166 0 262 -122 262 -281c0 -158 -96 -278 -262 -278h-224v253h-66v49h66v257h224zM322 59c128 0 197 97 197 219c0 123 -69 222 -197 222h-159v-198h156v-49h-156v-194h159z" />
    <glyph glyph-name="dcaron.smcp" horiz-adv-x="635" 
d="M251 617l-95 127h54l74 -83l74 83h55l-96 -127h-66zM94 0v559h224c166 0 261 -122 261 -281c0 -158 -95 -278 -261 -278h-224zM159 59h159c127 0 197 97 197 219c0 123 -70 222 -197 222h-159v-441z" />
    <glyph glyph-name="dcroat.smcp" horiz-adv-x="639" 
d="M322 559c166 0 262 -122 262 -281c0 -158 -96 -278 -262 -278h-224v253h-66v49h66v257h224zM322 59c128 0 197 97 197 219c0 123 -69 222 -197 222h-159v-198h156v-49h-156v-194h159z" />
    <glyph glyph-name="e.smcp" horiz-adv-x="497" 
d="M158 59h285v-59h-349v559h340v-59h-276v-195h241v-60h-241v-186z" />
    <glyph glyph-name="eacute.smcp" horiz-adv-x="497" 
d="M378 744l-98 -127h-56l82 127h72zM158 59h285v-59h-349v559h340v-59h-276v-195h241v-60h-241v-186z" />
    <glyph glyph-name="ecaron.smcp" horiz-adv-x="497" 
d="M283 617h-66l-95 127h54l74 -83l74 83h54zM158 59h285v-59h-349v559h340v-59h-276v-195h241v-60h-241v-186z" />
    <glyph glyph-name="ecircumflex.smcp" horiz-adv-x="497" 
d="M250 700l-74 -83h-54l95 127h66l95 -127h-54zM158 59h285v-59h-349v559h340v-59h-276v-195h241v-60h-241v-186z" />
    <glyph glyph-name="edieresis.smcp" horiz-adv-x="497" 
d="M176 641c-24 0 -43 17 -43 40c0 22 19 39 43 39s43 -17 43 -39c0 -23 -19 -40 -43 -40zM324 641c-24 0 -44 17 -44 40c0 22 20 39 44 39c23 0 43 -17 43 -39c0 -23 -20 -40 -43 -40zM158 59h285v-59h-349v559h340v-59h-276v-195h241v-60h-241v-186z" />
    <glyph glyph-name="edotaccent.smcp" horiz-adv-x="497" 
d="M250 636c-25 0 -45 17 -45 40c0 24 20 41 45 41s44 -17 44 -41c0 -23 -19 -40 -44 -40zM158 59h285v-59h-349v559h340v-59h-276v-195h241v-60h-241v-186z" />
    <glyph glyph-name="egrave.smcp" horiz-adv-x="497" 
d="M280 617h-55l-97 127h71zM158 59h285v-59h-349v559h340v-59h-276v-195h241v-60h-241v-186z" />
    <glyph glyph-name="emacron.smcp" horiz-adv-x="497" 
d="M355 701v-48h-210v48h210zM158 59h285v-59h-349v559h340v-59h-276v-195h241v-60h-241v-186z" />
    <glyph glyph-name="eogonek.smcp" horiz-adv-x="497" 
d="M349 0l-28 -68c-3 -6 -3 -13 -3 -18c0 -23 15 -38 38 -38c25 0 41 18 43 46h41c0 -53 -34 -86 -84 -86c-47 0 -82 31 -82 77c0 10 4 24 9 34l24 53h-213v559h340v-59h-276v-195h241v-60h-241v-186h285v-59h-94z" />
    <glyph glyph-name="f.smcp" horiz-adv-x="465" 
d="M429 500h-270v-196h214v-59h-214v-245h-65v559h335v-59z" />
    <glyph glyph-name="g.smcp" horiz-adv-x="662" 
d="M349 -8c-167 0 -297 128 -297 286c0 159 130 288 297 288c75 0 141 -27 192 -70l-45 -43c-39 32 -91 51 -147 51c-131 0 -232 -101 -232 -226c0 -124 101 -226 232 -226c106 0 188 54 204 154c1 3 1 9 1 12h-175v56h246c-2 -192 -116 -282 -276 -282z" />
    <glyph glyph-name="gbreve.smcp" horiz-adv-x="662" 
d="M332 630c-74 0 -105 48 -105 101h49c0 -33 18 -57 56 -57c35 0 54 24 54 57h50c0 -63 -42 -101 -104 -101zM349 -8c-167 0 -297 128 -297 286c0 159 130 288 297 288c75 0 141 -27 192 -70l-45 -43c-39 32 -91 51 -147 51c-131 0 -232 -101 -232 -226
c0 -124 101 -226 232 -226c106 0 188 54 204 154c1 3 1 9 1 12h-175v56h246c-2 -192 -116 -282 -276 -282z" />
    <glyph glyph-name="gcommaaccent.smcp" horiz-adv-x="662" 
d="M349 -8c-167 0 -297 128 -297 286c0 159 130 288 297 288c75 0 141 -27 192 -70l-45 -43c-39 32 -91 51 -147 51c-131 0 -232 -101 -232 -226c0 -124 101 -226 232 -226c106 0 188 54 204 154c1 3 1 9 1 12h-175v56h246c-2 -192 -116 -282 -276 -282zM295 -184l-37 15
c32 36 47 79 45 137h61c1 -65 -31 -124 -69 -152z" />
    <glyph glyph-name="gdotaccent.smcp" horiz-adv-x="662" 
d="M332 636c-25 0 -45 17 -45 40c0 24 20 41 45 41s44 -17 44 -41c0 -23 -19 -40 -44 -40zM349 -8c-167 0 -297 128 -297 286c0 159 130 288 297 288c75 0 141 -27 192 -70l-45 -43c-39 32 -91 51 -147 51c-131 0 -232 -101 -232 -226c0 -124 101 -226 232 -226
c106 0 188 54 204 154c1 3 1 9 1 12h-175v56h246c-2 -192 -116 -282 -276 -282z" />
    <glyph glyph-name="h.smcp" horiz-adv-x="627" 
d="M468 559h65v-559h-65v248h-309v-248h-65v559h65v-252h309v252z" />
    <glyph glyph-name="hbar.smcp" horiz-adv-x="629" 
d="M595 457v-41h-61v-416h-65v248h-309v-248h-65v416h-57v41h57v102h65v-102h309v102h65v-102h61zM469 307v109h-309v-109h309z" />
    <glyph glyph-name="i.smcp" horiz-adv-x="253" 
d="M94 0v559h65v-559h-65z" />
    <glyph glyph-name="iacute.smcp" horiz-adv-x="253" 
d="M101 617l82 127h71l-98 -127h-55zM94 0v559h65v-559h-65z" />
    <glyph glyph-name="uni01D0.smcp" horiz-adv-x="253" 
d="M93 617l-95 127h54l74 -83l74 83h55l-96 -127h-66zM94 0v559h65v-559h-65z" />
    <glyph glyph-name="icircumflex.smcp" horiz-adv-x="253" 
d="M-2 617l95 127h66l96 -127h-55l-74 83l-74 -83h-54zM94 0v559h65v-559h-65z" />
    <glyph glyph-name="idieresis.smcp" horiz-adv-x="253" 
d="M52 641c-23 0 -43 17 -43 40c0 22 20 39 43 39c25 0 43 -17 43 -39c0 -23 -18 -40 -43 -40zM200 641c-24 0 -44 17 -44 40c0 22 20 39 44 39s43 -17 43 -39c0 -23 -19 -40 -43 -40zM94 0v559h65v-559h-65z" />
    <glyph glyph-name="i.loclTRK.smcp" horiz-adv-x="253" 
d="M126 636c-24 0 -44 17 -44 40c0 24 20 41 44 41c25 0 45 -17 45 -41c0 -23 -20 -40 -45 -40zM94 0v559h65v-559h-65z" />
    <glyph glyph-name="igrave.smcp" horiz-adv-x="253" 
d="M100 617l-96 127h71l81 -127h-56zM94 0v559h65v-559h-65z" />
    <glyph glyph-name="ij.smcp" horiz-adv-x="483" 
d="M94 0v559h65v-559h-65zM211 -189c-14 0 -37 3 -56 7l6 60c15 -4 42 -5 50 -5c82 0 113 53 113 117v569h65v-569c0 -97 -49 -179 -178 -179z" />
    <glyph glyph-name="imacron.smcp" horiz-adv-x="253" 
d="M22 653v48h209v-48h-209zM94 0v559h65v-559h-65z" />
    <glyph glyph-name="iogonek.smcp" horiz-adv-x="253" 
d="M181 -78h42c0 -53 -34 -86 -84 -86c-48 0 -82 31 -82 77c0 10 3 24 9 34l28 62v550h65v-559h-27l-29 -68c-2 -6 -3 -13 -3 -18c0 -23 15 -38 39 -38s40 18 42 46z" />
    <glyph glyph-name="itilde.smcp" horiz-adv-x="253" 
d="M18 634c3 59 36 83 69 83c39 0 56 -38 79 -38c12 0 26 11 27 36h42c-3 -59 -37 -82 -69 -82c-38 0 -56 38 -79 38c-12 0 -26 -12 -26 -37h-43zM94 0v559h65v-559h-65z" />
    <glyph glyph-name="j.smcp" horiz-adv-x="261" 
d="M-11 -189c-14 0 -38 3 -56 7l7 60c14 -4 42 -5 49 -5c82 0 113 53 113 117v569h65v-569c0 -97 -48 -179 -178 -179z" />
    <glyph glyph-name="jcircumflex.smcp" horiz-adv-x="261" 
d="M6 617l95 127h66l96 -127h-54l-75 83l-74 -83h-54zM-11 -189c-14 0 -38 3 -56 7l7 60c14 -4 42 -5 49 -5c82 0 113 53 113 117v569h65v-569c0 -97 -48 -179 -178 -179z" />
    <glyph glyph-name="k.smcp" horiz-adv-x="492" 
d="M492 0h-89l-245 236v-236h-64v559h64v-249l209 249h81l-238 -285z" />
    <glyph glyph-name="kcommaaccent.smcp" horiz-adv-x="492" 
d="M210 274l282 -274h-89l-245 236v-236h-64v559h64v-249l209 249h81zM220 -32h62c1 -65 -31 -124 -70 -152l-36 15c32 36 47 79 44 137z" />
    <glyph glyph-name="l.smcp" horiz-adv-x="434" 
d="M94 0v559h65v-500h246v-59h-311z" />
    <glyph glyph-name="lacute.smcp" horiz-adv-x="434" 
d="M96 617l82 127h71l-97 -127h-56zM94 0v559h65v-500h246v-59h-311z" />
    <glyph glyph-name="lcaron.smcp" horiz-adv-x="436" 
d="M94 0v559h65v-500h246v-59h-311zM287 408l-39 13c30 42 43 82 38 138h60c-2 -78 -28 -118 -59 -151z" />
    <glyph glyph-name="lcommaaccent.smcp" horiz-adv-x="434" 
d="M94 0v559h65v-500h246v-59h-311zM183 -184l-36 15c32 36 47 79 44 137h62c0 -65 -32 -124 -70 -152z" />
    <glyph glyph-name="lslash.smcp" horiz-adv-x="437" 
d="M162 59h246v-59h-311v212l-62 -38v48l62 38v299h65v-260l91 55v-47l-91 -56v-192z" />
    <glyph glyph-name="m.smcp" horiz-adv-x="824" 
d="M763 0h-64l-58 441l-200 -382h-57l-201 385l-58 -444h-64l73 559h59l219 -431l219 431h59z" />
    <glyph glyph-name="n.smcp" horiz-adv-x="606" 
d="M447 559h65v-559h-64l-289 445v-445h-65v559h66l287 -442v442z" />
    <glyph glyph-name="nacute.smcp" horiz-adv-x="606" 
d="M430 744l-97 -127h-55l81 127h71zM447 559h65v-559h-64l-289 445v-445h-65v559h66l287 -442v442z" />
    <glyph glyph-name="ncaron.smcp" horiz-adv-x="606" 
d="M336 617h-66l-95 127h54l74 -83l74 83h54zM447 559h65v-559h-64l-289 445v-445h-65v559h66l287 -442v442z" />
    <glyph glyph-name="ncommaaccent.smcp" horiz-adv-x="606" 
d="M447 559h65v-559h-64l-289 445v-445h-65v559h66l287 -442v442zM230 -169c31 36 46 79 43 137h62c0 -65 -31 -124 -69 -152z" />
    <glyph glyph-name="eng.smcp" horiz-adv-x="606" 
d="M447 559h65v-565c0 -97 -48 -179 -178 -179c-14 0 -37 3 -56 7l6 61c15 -4 43 -5 50 -5c83 0 120 55 112 116l-1 13l-286 437v-444h-65v559h66l287 -442v442z" />
    <glyph glyph-name="ntilde.smcp" horiz-adv-x="606" 
d="M263 671c-12 0 -25 -12 -26 -37h-42c2 59 35 83 68 83c39 0 57 -38 79 -38c13 0 26 11 27 36h43c-3 -59 -37 -82 -70 -82c-38 0 -55 38 -79 38zM447 559h65v-559h-64l-289 445v-445h-65v559h66l287 -442v442z" />
    <glyph glyph-name="o.smcp" horiz-adv-x="699" 
d="M349 -8c-166 0 -296 128 -296 287c0 158 130 287 296 287c167 0 297 -129 297 -287c0 -159 -130 -287 -297 -287zM349 53c131 0 232 101 232 226c0 124 -101 225 -232 225s-231 -101 -231 -225c0 -125 100 -226 231 -226z" />
    <glyph glyph-name="oacute.smcp" horiz-adv-x="699" 
d="M324 617l82 127h71l-97 -127h-56zM349 -8c-166 0 -296 128 -296 287c0 158 130 287 296 287c167 0 297 -129 297 -287c0 -159 -130 -287 -297 -287zM349 53c131 0 232 101 232 226c0 124 -101 225 -232 225s-231 -101 -231 -225c0 -125 100 -226 231 -226z" />
    <glyph glyph-name="uni01D2.smcp" horiz-adv-x="699" 
d="M316 617l-95 127h54l74 -83l75 83h54l-95 -127h-67zM349 -8c-166 0 -296 128 -296 287c0 158 130 287 296 287c167 0 297 -129 297 -287c0 -159 -130 -287 -297 -287zM349 53c131 0 232 101 232 226c0 124 -101 225 -232 225s-231 -101 -231 -225
c0 -125 100 -226 231 -226z" />
    <glyph glyph-name="ocircumflex.smcp" horiz-adv-x="699" 
d="M221 617l95 127h67l95 -127h-54l-75 83l-74 -83h-54zM349 -8c-166 0 -296 128 -296 287c0 158 130 287 296 287c167 0 297 -129 297 -287c0 -159 -130 -287 -297 -287zM349 53c131 0 232 101 232 226c0 124 -101 225 -232 225s-231 -101 -231 -225
c0 -125 100 -226 231 -226z" />
    <glyph glyph-name="odieresis.smcp" horiz-adv-x="699" 
d="M276 641c-24 0 -44 17 -44 40c0 22 20 39 44 39c23 0 43 -17 43 -39c0 -23 -20 -40 -43 -40zM423 641c-24 0 -44 17 -44 40c0 22 20 39 44 39s44 -17 44 -39c0 -23 -20 -40 -44 -40zM349 -8c-166 0 -296 128 -296 287c0 158 130 287 296 287c167 0 297 -129 297 -287
c0 -159 -130 -287 -297 -287zM349 53c131 0 232 101 232 226c0 124 -101 225 -232 225s-231 -101 -231 -225c0 -125 100 -226 231 -226z" />
    <glyph glyph-name="ograve.smcp" horiz-adv-x="699" 
d="M324 617l-97 127h71l81 -127h-55zM349 -8c-166 0 -296 128 -296 287c0 158 130 287 296 287c167 0 297 -129 297 -287c0 -159 -130 -287 -297 -287zM349 53c131 0 232 101 232 226c0 124 -101 225 -232 225s-231 -101 -231 -225c0 -125 100 -226 231 -226z" />
    <glyph glyph-name="ohungarumlaut.smcp" horiz-adv-x="699" 
d="M273 617l75 127h57l-81 -127h-51zM381 617l79 127h59l-87 -127h-51zM349 -8c-166 0 -296 128 -296 287c0 158 130 287 296 287c167 0 297 -129 297 -287c0 -159 -130 -287 -297 -287zM349 53c131 0 232 101 232 226c0 124 -101 225 -232 225s-231 -101 -231 -225
c0 -125 100 -226 231 -226z" />
    <glyph glyph-name="omacron.smcp" horiz-adv-x="699" 
d="M245 653v48h209v-48h-209zM349 -8c-166 0 -296 128 -296 287c0 158 130 287 296 287c167 0 297 -129 297 -287c0 -159 -130 -287 -297 -287zM349 53c131 0 232 101 232 226c0 124 -101 225 -232 225s-231 -101 -231 -225c0 -125 100 -226 231 -226z" />
    <glyph glyph-name="oslash.smcp" horiz-adv-x="703" 
d="M649 538l-73 -71c46 -50 73 -116 73 -188c0 -159 -131 -287 -298 -287c-74 0 -141 25 -192 68l-72 -70l-31 30l72 70c-46 50 -73 116 -73 189c0 158 130 286 296 286c75 0 143 -26 195 -69l72 71zM120 279c0 -55 20 -106 53 -145l327 319c-40 32 -91 51 -149 51
c-130 0 -231 -101 -231 -225zM584 279c0 55 -20 105 -53 144l-327 -319c39 -32 90 -51 147 -51c132 0 233 101 233 226z" />
    <glyph glyph-name="oslashacute.smcp" horiz-adv-x="703" 
d="M479 744l-98 -127h-55l82 127h71zM649 538l-73 -71c46 -50 73 -116 73 -188c0 -159 -131 -287 -298 -287c-74 0 -141 25 -192 68l-72 -70l-31 30l72 70c-46 50 -73 116 -73 189c0 158 130 286 296 286c75 0 143 -26 195 -69l72 71zM120 279c0 -55 20 -106 53 -145
l327 319c-40 32 -91 51 -149 51c-130 0 -231 -101 -231 -225zM584 279c0 55 -20 105 -53 144l-327 -319c39 -32 90 -51 147 -51c132 0 233 101 233 226z" />
    <glyph glyph-name="otilde.smcp" horiz-adv-x="699" 
d="M241 634c3 59 36 83 69 83c39 0 56 -38 78 -38c13 0 27 11 27 36h43c-4 -59 -37 -82 -70 -82c-38 0 -55 38 -78 38c-12 0 -26 -12 -26 -37h-43zM349 -8c-166 0 -296 128 -296 287c0 158 130 287 296 287c167 0 297 -129 297 -287c0 -159 -130 -287 -297 -287zM349 53
c131 0 232 101 232 226c0 124 -101 225 -232 225s-231 -101 -231 -225c0 -125 100 -226 231 -226z" />
    <glyph glyph-name="oe.smcp" horiz-adv-x="984" 
d="M646 59h284v-59h-348v106c-50 -70 -136 -114 -233 -114c-166 0 -296 128 -296 287c0 158 130 287 296 287c97 0 182 -44 233 -114v107h339v-59h-275v-195h241v-60h-241v-186zM349 53c131 0 232 101 232 226c0 124 -101 225 -232 225s-231 -101 -231 -225
c0 -125 100 -226 231 -226z" />
    <glyph glyph-name="p.smcp" horiz-adv-x="537" 
d="M326 559c122 0 172 -86 172 -173s-50 -172 -174 -172h-165v-214h-65v559h232zM321 274c81 0 112 55 112 112s-31 114 -108 114h-166v-226h162z" />
    <glyph glyph-name="thorn.smcp" horiz-adv-x="519" 
d="M294 452c99 0 177 -67 177 -170c0 -105 -78 -174 -177 -174h-135v-108h-65v559h65v-107h135zM294 168c63 0 114 46 114 113c0 69 -53 111 -118 111h-131v-224h135z" />
    <glyph glyph-name="q.smcp" horiz-adv-x="699" 
d="M646 278c0 -104 -57 -195 -143 -245l63 -97l-49 -30l-67 102c-32 -10 -65 -16 -101 -16c-166 0 -296 128 -296 286c0 159 130 288 296 288c167 0 297 -129 297 -288zM349 53c23 0 45 3 66 9l-64 97l50 30l68 -104c68 39 112 111 112 193c0 125 -101 226 -232 226
s-231 -101 -231 -226c0 -124 100 -225 231 -225z" />
    <glyph glyph-name="r.smcp" horiz-adv-x="545" 
d="M488 386c0 -84 -46 -165 -164 -170l161 -216h-78l-158 216h-90v-216h-65v559h221c124 0 173 -86 173 -173zM159 500v-227h142c88 0 122 51 122 113c0 61 -36 114 -110 114h-154z" />
    <glyph glyph-name="racute.smcp" horiz-adv-x="545" 
d="M400 744l-97 -127h-55l82 127h70zM488 386c0 -84 -46 -165 -164 -170l161 -216h-78l-158 216h-90v-216h-65v559h221c124 0 173 -86 173 -173zM159 500v-227h142c88 0 122 51 122 113c0 61 -36 114 -110 114h-154z" />
    <glyph glyph-name="rcaron.smcp" horiz-adv-x="545" 
d="M306 617h-66l-95 127h54l74 -83l75 83h54zM488 386c0 -84 -46 -165 -164 -170l161 -216h-78l-158 216h-90v-216h-65v559h221c124 0 173 -86 173 -173zM159 500v-227h142c88 0 122 51 122 113c0 61 -36 114 -110 114h-154z" />
    <glyph glyph-name="rcommaaccent.smcp" horiz-adv-x="545" 
d="M488 386c0 -84 -46 -165 -164 -170l161 -216h-78l-158 216h-90v-216h-65v559h221c124 0 173 -86 173 -173zM159 500v-227h142c88 0 122 51 122 113c0 61 -36 114 -110 114h-154zM200 -169c32 36 47 79 44 137h62c0 -65 -32 -124 -70 -152z" />
    <glyph glyph-name="s.smcp" horiz-adv-x="503" 
d="M254 -8c-117 0 -195 75 -198 160h64c5 -52 57 -101 134 -101c89 0 134 52 134 101c0 55 -52 83 -109 97l-78 19c-122 28 -141 96 -141 143c0 93 89 155 188 155c102 0 181 -59 184 -155h-64c-3 57 -54 95 -121 95c-64 0 -122 -37 -122 -94c0 -25 9 -66 92 -85l77 -18
c91 -22 159 -68 159 -154s-74 -163 -199 -163z" />
    <glyph glyph-name="sacute.smcp" horiz-adv-x="503" 
d="M227 617l81 127h71l-97 -127h-55zM254 -8c-117 0 -195 75 -198 160h64c5 -52 57 -101 134 -101c89 0 134 52 134 101c0 55 -52 83 -109 97l-78 19c-122 28 -141 96 -141 143c0 93 89 155 188 155c102 0 181 -59 184 -155h-64c-3 57 -54 95 -121 95
c-64 0 -122 -37 -122 -94c0 -25 9 -66 92 -85l77 -18c91 -22 159 -68 159 -154s-74 -163 -199 -163z" />
    <glyph glyph-name="scaron.smcp" horiz-adv-x="503" 
d="M219 617l-95 127h53l75 -83l74 83h54l-95 -127h-66zM254 -8c-117 0 -195 75 -198 160h64c5 -52 57 -101 134 -101c89 0 134 52 134 101c0 55 -52 83 -109 97l-78 19c-122 28 -141 96 -141 143c0 93 89 155 188 155c102 0 181 -59 184 -155h-64c-3 57 -54 95 -121 95
c-64 0 -122 -37 -122 -94c0 -25 9 -66 92 -85l77 -18c91 -22 159 -68 159 -154s-74 -163 -199 -163z" />
    <glyph glyph-name="scedilla.smcp" horiz-adv-x="503" 
d="M453 155c0 -78 -61 -149 -165 -161l21 -47c5 -10 8 -24 8 -34c0 -46 -34 -77 -82 -77c-49 0 -84 33 -84 86h43c1 -28 17 -46 41 -46s40 15 40 38c0 5 -2 12 -4 18l-25 60c-113 4 -187 77 -190 160h64c5 -52 57 -101 134 -101c89 0 134 52 134 101c0 55 -52 83 -109 97
l-78 19c-122 28 -141 96 -141 143c0 93 89 155 188 155c102 0 181 -59 184 -155h-64c-3 57 -54 95 -121 95c-64 0 -122 -37 -122 -94c0 -25 9 -66 92 -85l77 -18c91 -22 159 -68 159 -154z" />
    <glyph glyph-name="scommaaccent.smcp" horiz-adv-x="503" 
d="M254 -8c-117 0 -195 75 -198 160h64c5 -52 57 -101 134 -101c89 0 134 52 134 101c0 55 -52 83 -109 97l-78 19c-122 28 -141 96 -141 143c0 93 89 155 188 155c102 0 181 -59 184 -155h-64c-3 57 -54 95 -121 95c-64 0 -122 -37 -122 -94c0 -25 9 -66 92 -85l77 -18
c91 -22 159 -68 159 -154s-74 -163 -199 -163zM215 -184l-37 15c32 36 47 79 44 137h63c0 -65 -33 -124 -70 -152z" />
    <glyph glyph-name="germandbls.smcp" horiz-adv-x="593" 
d="M377 337c103 -16 166 -83 166 -166c0 -108 -83 -179 -207 -179c-28 -1 -64 3 -91 12l12 56c19 -7 49 -10 76 -10c87 0 145 48 145 124c0 64 -58 113 -144 117l-22 1l-8 40l103 161c-31 9 -74 13 -99 13c-103 0 -155 -48 -155 -156v-350h-65v350c0 146 78 216 221 216
c56 0 142 -16 187 -37v-10z" />
    <glyph glyph-name="t.smcp" horiz-adv-x="488" 
d="M460 559v-59h-184v-500h-65v500h-183v59h432z" />
    <glyph glyph-name="tbar.smcp" horiz-adv-x="500" 
d="M466 500h-184v-191h106v-42h-106v-267h-65v267h-106v42h106v191h-183v59h432v-59z" />
    <glyph glyph-name="tcaron.smcp" horiz-adv-x="488" 
d="M277 617h-66l-96 127h55l74 -83l74 83h54zM460 559v-59h-184v-500h-65v500h-183v59h432z" />
    <glyph glyph-name="uni0163.smcp" horiz-adv-x="488" 
d="M460 500h-184v-484l31 -69c5 -10 8 -24 8 -34c0 -46 -34 -77 -82 -77c-49 0 -83 33 -83 86h42c1 -28 17 -46 41 -46s40 15 40 38c0 5 -2 12 -4 18l-28 68h-30v500h-183v59h432v-59z" />
    <glyph glyph-name="uni021B.smcp" horiz-adv-x="488" 
d="M460 559v-59h-184v-500h-65v500h-183v59h432zM170 -169c32 36 47 79 44 137h62c0 -65 -32 -124 -69 -152z" />
    <glyph glyph-name="u.smcp" 
d="M299 -8c-114 0 -211 75 -211 198v369h65v-367c0 -90 67 -138 146 -138c80 0 147 48 147 138v367h65v-369c0 -123 -97 -198 -212 -198z" />
    <glyph glyph-name="uacute.smcp" 
d="M274 617l81 127h71l-97 -127h-55zM299 -8c-114 0 -211 75 -211 198v369h65v-367c0 -90 67 -138 146 -138c80 0 147 48 147 138v367h65v-369c0 -123 -97 -198 -212 -198z" />
    <glyph glyph-name="uni01D4.smcp" 
d="M266 617l-95 127h54l74 -83l74 83h54l-95 -127h-66zM299 -8c-114 0 -211 75 -211 198v369h65v-367c0 -90 67 -138 146 -138c80 0 147 48 147 138v367h65v-369c0 -123 -97 -198 -212 -198z" />
    <glyph glyph-name="ucircumflex.smcp" 
d="M171 617l95 127h66l95 -127h-54l-74 83l-74 -83h-54zM299 -8c-114 0 -211 75 -211 198v369h65v-367c0 -90 67 -138 146 -138c80 0 147 48 147 138v367h65v-369c0 -123 -97 -198 -212 -198z" />
    <glyph glyph-name="udieresis.smcp" 
d="M225 641c-23 0 -43 17 -43 40c0 22 20 39 43 39c24 0 44 -17 44 -39c0 -23 -20 -40 -44 -40zM372 641c-24 0 -43 17 -43 40c0 22 19 39 43 39s44 -17 44 -39c0 -23 -20 -40 -44 -40zM299 -8c-114 0 -211 75 -211 198v369h65v-367c0 -90 67 -138 146 -138
c80 0 147 48 147 138v367h65v-369c0 -123 -97 -198 -212 -198z" />
    <glyph glyph-name="uni01D8.smcp" 
d="M274 753l81 127h71l-97 -127h-55zM225 641c-23 0 -43 17 -43 40c0 22 20 39 43 39c24 0 44 -17 44 -39c0 -23 -20 -40 -44 -40zM372 641c-24 0 -43 17 -43 40c0 22 19 39 43 39s44 -17 44 -39c0 -23 -20 -40 -44 -40zM299 -8c-114 0 -211 75 -211 198v369h65v-367
c0 -90 67 -138 146 -138c80 0 147 48 147 138v367h65v-369c0 -123 -97 -198 -212 -198z" />
    <glyph glyph-name="uni01DA.smcp" 
d="M266 753l-95 127h54l74 -83l74 83h54l-95 -127h-66zM225 641c-23 0 -43 17 -43 40c0 22 20 39 43 39c24 0 44 -17 44 -39c0 -23 -20 -40 -44 -40zM372 641c-24 0 -43 17 -43 40c0 22 19 39 43 39s44 -17 44 -39c0 -23 -20 -40 -44 -40zM299 -8c-114 0 -211 75 -211 198
v369h65v-367c0 -90 67 -138 146 -138c80 0 147 48 147 138v367h65v-369c0 -123 -97 -198 -212 -198z" />
    <glyph glyph-name="uni01DC.smcp" 
d="M273 753l-96 127h71l81 -127h-56zM225 641c-23 0 -43 17 -43 40c0 22 20 39 43 39c24 0 44 -17 44 -39c0 -23 -20 -40 -44 -40zM372 641c-24 0 -43 17 -43 40c0 22 19 39 43 39s44 -17 44 -39c0 -23 -20 -40 -44 -40zM299 -8c-114 0 -211 75 -211 198v369h65v-367
c0 -90 67 -138 146 -138c80 0 147 48 147 138v367h65v-369c0 -123 -97 -198 -212 -198z" />
    <glyph glyph-name="uni01D6.smcp" 
d="M194 781v48h210v-48h-210zM225 641c-23 0 -43 17 -43 40c0 22 20 39 43 39c24 0 44 -17 44 -39c0 -23 -20 -40 -44 -40zM372 641c-24 0 -43 17 -43 40c0 22 19 39 43 39s44 -17 44 -39c0 -23 -20 -40 -44 -40zM299 -8c-114 0 -211 75 -211 198v369h65v-367
c0 -90 67 -138 146 -138c80 0 147 48 147 138v367h65v-369c0 -123 -97 -198 -212 -198z" />
    <glyph glyph-name="ugrave.smcp" 
d="M273 617l-96 127h71l81 -127h-56zM299 -8c-114 0 -211 75 -211 198v369h65v-367c0 -90 67 -138 146 -138c80 0 147 48 147 138v367h65v-369c0 -123 -97 -198 -212 -198z" />
    <glyph glyph-name="uhungarumlaut.smcp" 
d="M222 617l75 127h58l-81 -127h-52zM330 617l80 127h59l-88 -127h-51zM299 -8c-114 0 -211 75 -211 198v369h65v-367c0 -90 67 -138 146 -138c80 0 147 48 147 138v367h65v-369c0 -123 -97 -198 -212 -198z" />
    <glyph glyph-name="umacron.smcp" 
d="M194 653v48h210v-48h-210zM299 -8c-114 0 -211 75 -211 198v369h65v-367c0 -90 67 -138 146 -138c80 0 147 48 147 138v367h65v-369c0 -123 -97 -198 -212 -198z" />
    <glyph glyph-name="uogonek.smcp" 
d="M446 559h65v-369c0 -117 -88 -190 -195 -197l-25 -61c-3 -6 -4 -13 -4 -18c0 -23 16 -38 40 -38s40 18 41 46h43c0 -53 -35 -86 -84 -86c-48 0 -82 31 -82 77c0 10 3 24 8 34l20 46c-102 11 -185 83 -185 197v369h65v-367c0 -90 67 -138 146 -138c80 0 147 48 147 138
v367z" />
    <glyph glyph-name="uring.smcp" 
d="M297 617c-45 0 -82 36 -82 81s37 81 82 81c49 0 86 -36 86 -81s-37 -81 -86 -81zM297 653c27 0 50 20 50 45s-23 46 -50 46c-25 0 -46 -21 -46 -46s21 -45 46 -45zM299 -8c-114 0 -211 75 -211 198v369h65v-367c0 -90 67 -138 146 -138c80 0 147 48 147 138v367h65v-369
c0 -123 -97 -198 -212 -198z" />
    <glyph glyph-name="v.smcp" horiz-adv-x="485" 
d="M385 559h67l-176 -559h-66l-177 559h67l143 -459z" />
    <glyph glyph-name="w.smcp" horiz-adv-x="790" 
d="M696 559h69l-199 -559h-58l-113 374l-113 -374h-58l-199 559h69l159 -454l114 372h57l113 -372z" />
    <glyph glyph-name="wacute.smcp" horiz-adv-x="790" 
d="M522 744l-97 -127h-56l83 127h70zM696 559h69l-199 -559h-58l-113 374l-113 -374h-58l-199 559h69l159 -454l114 372h57l113 -372z" />
    <glyph glyph-name="wcircumflex.smcp" horiz-adv-x="790" 
d="M395 700l-74 -83h-54l95 127h66l95 -127h-54zM696 559h69l-199 -559h-58l-113 374l-113 -374h-58l-199 559h69l159 -454l114 372h57l113 -372z" />
    <glyph glyph-name="wdieresis.smcp" horiz-adv-x="790" 
d="M321 641c-23 0 -43 17 -43 40c0 22 20 39 43 39c24 0 43 -17 43 -39c0 -23 -19 -40 -43 -40zM468 641c-24 0 -43 17 -43 40c0 22 19 39 43 39s44 -17 44 -39c0 -23 -20 -40 -44 -40zM696 559h69l-199 -559h-58l-113 374l-113 -374h-58l-199 559h69l159 -454l114 372h57
l113 -372z" />
    <glyph glyph-name="wgrave.smcp" horiz-adv-x="790" 
d="M425 617h-56l-96 127h71zM696 559h69l-199 -559h-58l-113 374l-113 -374h-58l-199 559h69l159 -454l114 372h57l113 -372z" />
    <glyph glyph-name="x.smcp" horiz-adv-x="529" 
d="M511 0h-77l-169 249l-170 -249h-77l207 301l-181 258h78l142 -207l144 207h78l-183 -258z" />
    <glyph glyph-name="y.smcp" horiz-adv-x="538" 
d="M448 559h77l-224 -299v-260h-65v261l-222 298h77l178 -240z" />
    <glyph glyph-name="yacute.smcp" horiz-adv-x="538" 
d="M396 744l-97 -127h-56l82 127h71zM448 559h77l-224 -299v-260h-65v261l-222 298h77l178 -240z" />
    <glyph glyph-name="ycircumflex.smcp" horiz-adv-x="538" 
d="M268 700l-74 -83h-54l95 127h67l95 -127h-54zM448 559h77l-224 -299v-260h-65v261l-222 298h77l178 -240z" />
    <glyph glyph-name="ydieresis.smcp" horiz-adv-x="538" 
d="M195 641c-24 0 -44 17 -44 40c0 22 20 39 44 39c23 0 43 -17 43 -39c0 -23 -20 -40 -43 -40zM342 641c-24 0 -43 17 -43 40c0 22 19 39 43 39s44 -17 44 -39c0 -23 -20 -40 -44 -40zM448 559h77l-224 -299v-260h-65v261l-222 298h77l178 -240z" />
    <glyph glyph-name="ygrave.smcp" horiz-adv-x="538" 
d="M298 617h-55l-97 127h71zM448 559h77l-224 -299v-260h-65v261l-222 298h77l178 -240z" />
    <glyph glyph-name="z.smcp" horiz-adv-x="493" 
d="M444 559v-51l-317 -449h317v-59h-399v50l316 450h-310v59h393z" />
    <glyph glyph-name="zacute.smcp" horiz-adv-x="493" 
d="M374 744l-97 -127h-56l82 127h71zM444 559v-51l-317 -449h317v-59h-399v50l316 450h-310v59h393z" />
    <glyph glyph-name="zcaron.smcp" horiz-adv-x="493" 
d="M279 617h-66l-95 127h54l74 -83l74 83h55zM444 559v-51l-317 -449h317v-59h-399v50l316 450h-310v59h393z" />
    <glyph glyph-name="zdotaccent.smcp" horiz-adv-x="493" 
d="M246 636c-24 0 -44 17 -44 40c0 24 20 41 44 41c25 0 45 -17 45 -41c0 -23 -20 -40 -45 -40zM444 559v-51l-317 -449h317v-59h-399v50l316 450h-310v59h393z" />
    <glyph glyph-name="ordfeminine" unicode="&#xaa;" horiz-adv-x="545" 
d="M405 727h58v-373h-58v73c-28 -52 -88 -81 -148 -81c-103 0 -189 81 -189 195s86 195 189 195c61 0 120 -29 148 -81v72zM264 401c76 0 140 57 140 138c0 85 -66 141 -140 141c-75 0 -137 -60 -137 -139c0 -78 62 -140 137 -140zM84 231v52h372v-52h-372z" />
    <glyph glyph-name="ordmasculine" unicode="&#xba;" horiz-adv-x="534" 
d="M267 346c-107 0 -197 77 -197 196c0 118 90 194 197 194c106 0 197 -76 197 -194c0 -119 -91 -196 -197 -196zM267 401c76 0 139 56 139 141s-63 139 -139 139s-138 -54 -138 -139s62 -141 138 -141zM82 283h372v-52h-372v52z" />
    <glyph glyph-name="uni0410" unicode="&#x410;" horiz-adv-x="609" 
d="M533 0l-69 183h-318l-69 -183h-70l263 689h70l262 -689h-69zM169 242h272l-136 359z" />
    <glyph glyph-name="uni0411" unicode="&#x411;" horiz-adv-x="599" 
d="M356 419c146 0 201 -103 201 -209c0 -105 -55 -210 -199 -210h-256v689h383v-62h-317v-208h188zM359 62c88 0 132 67 132 148c0 82 -41 148 -149 148h-174v-296h191z" />
    <glyph glyph-name="uni0412" unicode="&#x412;" horiz-adv-x="628" 
d="M444 367c88 -23 128 -105 128 -177c0 -98 -73 -190 -195 -190h-275v689h250c111 0 183 -63 183 -170c0 -62 -27 -126 -91 -152zM351 627h-183v-234h196c68 0 105 53 105 121c0 70 -45 113 -118 113zM366 62c89 0 140 62 140 133c0 74 -53 140 -143 140h-195v-273h198z
" />
    <glyph glyph-name="uni0413" unicode="&#x413;" horiz-adv-x="463" 
d="M102 689h339v-62h-273v-627h-66v689z" />
    <glyph glyph-name="uni0414" unicode="&#x414;" horiz-adv-x="657" 
d="M545 62h53v-205h-66v143h-451v-143h-66v205h10c73 0 121 63 121 194v433h399v-627zM212 627v-372c0 -83 -20 -152 -56 -193h323v565h-267z" />
    <glyph glyph-name="uni0415" unicode="&#x415;" horiz-adv-x="558" 
d="M167 62h339v-62h-404v689h393v-62h-328v-258h286v-62h-286v-245z" />
    <glyph glyph-name="uni0401" unicode="&#x401;" horiz-adv-x="558" 
d="M195 788c-26 0 -48 19 -48 45c0 27 22 46 48 46c27 0 49 -19 49 -46c0 -26 -22 -45 -49 -45zM364 788c-26 0 -48 19 -48 45c0 27 22 46 48 46c27 0 49 -19 49 -46c0 -26 -22 -45 -49 -45zM167 62h339v-62h-404v689h393v-62h-328v-258h286v-62h-286v-245z" />
    <glyph glyph-name="uni0416" unicode="&#x416;" horiz-adv-x="832" 
d="M839 0h-90l-300 302v-302h-66v303l-300 -303h-90l333 336l-282 353h81l258 -326v326h66v-324l257 324h82l-282 -353z" />
    <glyph glyph-name="uni0417" unicode="&#x417;" horiz-adv-x="562" 
d="M377 369c79 -21 132 -86 132 -173c0 -123 -103 -206 -250 -206c-101 0 -190 53 -231 137l59 30c32 -65 97 -105 168 -105c107 0 187 59 187 143c0 86 -72 142 -167 142h-75v59h71c80 0 134 48 134 119c0 70 -57 120 -142 120c-59 0 -117 -30 -144 -74l-50 36
c36 60 114 100 195 100c126 0 208 -73 208 -181c0 -65 -34 -122 -95 -147z" />
    <glyph glyph-name="uni0418" unicode="&#x418;" horiz-adv-x="690" 
d="M519 689h69v-689h-66v574l-353 -574h-68v689h66v-573z" />
    <glyph glyph-name="uni0419" unicode="&#x419;" horiz-adv-x="690" 
d="M346 774c-73 0 -122 47 -122 124h56c0 -42 25 -73 66 -73c45 0 67 31 67 73h54c0 -66 -35 -124 -121 -124zM519 689h69v-689h-66v574l-353 -574h-68v689h66v-573z" />
    <glyph glyph-name="uni041A" unicode="&#x41a;" horiz-adv-x="547" 
d="M557 0h-89l-301 303v-303h-65v689h65v-324l258 324h82l-282 -353z" />
    <glyph glyph-name="uni041B" unicode="&#x41b;" horiz-adv-x="645" 
d="M145 689h398v-689h-65v627h-267v-404c0 -147 -73 -223 -183 -223h-14v62h10c73 0 121 51 121 162v465z" />
    <glyph glyph-name="uni041C" unicode="&#x41c;" horiz-adv-x="947" 
d="M886 0h-65l-71 571l-245 -500h-61l-247 502l-71 -573h-64l85 689h62l265 -547l265 547h61z" />
    <glyph glyph-name="uni041D" unicode="&#x41d;" horiz-adv-x="715" 
d="M547 689h66v-689h-66v313h-379v-313h-66v689h66v-317h379v317z" />
    <glyph glyph-name="uni041E" unicode="&#x41e;" horiz-adv-x="801" 
d="M400 -10c-196 0 -348 158 -348 353c0 196 152 354 348 354s348 -158 348 -354c0 -195 -152 -353 -348 -353zM400 52c159 0 282 131 282 291s-123 292 -282 292s-282 -132 -282 -292s123 -291 282 -291z" />
    <glyph glyph-name="uni041F" unicode="&#x41f;" horiz-adv-x="699" 
d="M102 689h495v-689h-66v628h-363v-628h-66v689z" />
    <glyph glyph-name="uni0420" unicode="&#x420;" horiz-adv-x="607" 
d="M373 689c141 0 197 -104 197 -210c0 -107 -56 -210 -200 -210h-202v-269h-66v689h271zM367 331c99 0 137 73 137 148c0 74 -37 148 -132 148h-204v-296h199z" />
    <glyph glyph-name="uni0421" unicode="&#x421;" horiz-adv-x="678" 
d="M398 -10c-193 0 -346 158 -346 353s153 353 346 353c97 0 184 -40 244 -104l-47 -42c-49 52 -120 84 -197 84c-157 0 -280 -131 -280 -291s123 -291 280 -291c77 0 147 32 197 84l47 -42c-60 -64 -147 -104 -244 -104z" />
    <glyph glyph-name="uni0422" unicode="&#x422;" horiz-adv-x="547" 
d="M526 689v-62h-220v-627h-66v627h-219v62h505z" />
    <glyph glyph-name="uni0423" unicode="&#x423;" horiz-adv-x="579" 
d="M508 689h73l-357 -689h-73l118 221l-268 468h74l229 -404z" />
    <glyph glyph-name="uni0424" unicode="&#x424;" horiz-adv-x="832" 
d="M783 343c0 -148 -98 -249 -334 -257v-86h-66v86c-235 8 -334 109 -334 257c0 149 100 250 334 258v88h66v-88c236 -8 334 -109 334 -258zM115 343c0 -112 79 -188 268 -195v391c-189 -7 -268 -83 -268 -196zM449 148c189 7 268 83 268 195c0 113 -79 189 -268 196v-391z
" />
    <glyph glyph-name="uni0425" unicode="&#x425;" horiz-adv-x="588" 
d="M579 0h-79l-206 317l-206 -317h-78l245 371l-214 318h79l174 -265l174 265h79l-214 -318z" />
    <glyph glyph-name="uni0427" unicode="&#x427;" horiz-adv-x="649" 
d="M481 689h66v-689h-66v270c-74 -16 -137 -20 -200 -20c-144 0 -229 76 -229 242v197h66v-196c0 -129 60 -181 167 -181c62 0 123 4 196 20v357z" />
    <glyph glyph-name="uni0426" unicode="&#x426;" horiz-adv-x="725" 
d="M613 62h54v-205h-66v143h-499v689h66v-628h379v628h66v-627z" />
    <glyph glyph-name="uni0428" unicode="&#x428;" horiz-adv-x="1016" 
d="M849 689h66v-689h-813v689h66v-628h307v628h66v-628h308v628z" />
    <glyph glyph-name="uni0429" unicode="&#x429;" horiz-adv-x="1026" 
d="M915 62h53v-205h-66v143h-800v689h66v-628h307v628h66v-628h308v628h66v-627z" />
    <glyph glyph-name="uni042C" unicode="&#x42c;" horiz-adv-x="595" 
d="M356 419c146 0 201 -103 201 -209c0 -105 -55 -210 -199 -210h-256v689h66v-270h188zM359 62c88 0 132 67 132 148c0 82 -41 148 -149 148h-174v-296h191z" />
    <glyph glyph-name="uni042A" unicode="&#x42a;" horiz-adv-x="652" 
d="M414 419c146 0 201 -103 201 -209c0 -105 -56 -210 -199 -210h-257v627h-147v62h213v-270h189zM417 62c88 0 132 67 132 148c0 82 -42 148 -149 148h-175v-296h192z" />
    <glyph glyph-name="uni042B" unicode="&#x42b;" horiz-adv-x="831" 
d="M356 419c146 0 201 -103 201 -209c0 -105 -55 -210 -199 -210h-256v689h66v-270h188zM663 689h66v-689h-66v689zM359 62c88 0 132 67 132 148c0 82 -41 148 -149 148h-174v-296h191z" />
    <glyph glyph-name="uni042D" unicode="&#x42d;" horiz-adv-x="684" 
d="M287 696c192 0 345 -158 345 -353s-153 -353 -345 -353c-98 0 -185 40 -245 104l47 42c50 -52 120 -84 198 -84c144 0 260 112 277 255h-385v62h386c-13 148 -131 265 -278 265c-78 0 -149 -32 -198 -84l-47 42c60 64 147 104 245 104z" />
    <glyph glyph-name="uni042E" unicode="&#x42e;" horiz-adv-x="1056" 
d="M655 697c196 0 349 -158 349 -354c0 -195 -153 -353 -349 -353c-185 0 -331 142 -346 323h-141v-313h-66v689h66v-317h141c14 182 161 325 346 325zM655 52c159 0 283 131 283 291s-124 292 -283 292c-158 0 -281 -132 -281 -292s123 -291 281 -291z" />
    <glyph glyph-name="uni042F" unicode="&#x42f;" horiz-adv-x="614" 
d="M256 689h256v-689h-66v270h-115l-189 -270h-80l191 270c-142 3 -196 104 -196 209c0 106 55 210 199 210zM272 331h174v296h-191c-88 0 -132 -66 -132 -148s41 -148 149 -148z" />
    <glyph glyph-name="uni0410.c2sc" horiz-adv-x="544" 
d="M461 0l-57 146h-264l-57 -146h-69l223 559h70l222 -559h-68zM163 203h218l-109 278z" />
    <glyph glyph-name="uni0411.c2sc" horiz-adv-x="531" 
d="M312 343c127 0 176 -83 176 -170s-49 -173 -173 -173h-221v559h331v-59h-266v-157h153zM313 59c74 0 110 52 110 113c0 62 -34 113 -122 113h-142v-226h154z" />
    <glyph glyph-name="uni0412.c2sc" horiz-adv-x="556" 
d="M389 298c77 -18 111 -84 111 -143c0 -79 -61 -155 -169 -155h-237v559h216c96 0 158 -52 158 -139c0 -49 -22 -102 -79 -122zM308 500h-149v-178h159c55 0 85 40 85 92s-35 86 -95 86zM321 59c73 0 114 48 114 101c0 56 -44 106 -117 106h-159v-207h162z" />
    <glyph glyph-name="uni0413.c2sc" horiz-adv-x="417" 
d="M94 559h294v-59h-229v-500h-65v559z" />
    <glyph glyph-name="uni0414.c2sc" horiz-adv-x="586" 
d="M483 52h45v-168h-65v116h-375v-116h-65v172h9c62 0 103 53 103 165v338h348v-507zM200 214c0 -67 -17 -125 -51 -155h269v441h-218v-286z" />
    <glyph glyph-name="uni0415.c2sc" horiz-adv-x="497" 
d="M158 59h285v-59h-349v559h340v-59h-276v-195h241v-60h-241v-186z" />
    <glyph glyph-name="uni0401.c2sc" horiz-adv-x="497" 
d="M176 641c-24 0 -43 17 -43 40c0 22 19 39 43 39s43 -17 43 -39c0 -23 -19 -40 -43 -40zM324 641c-24 0 -44 17 -44 40c0 22 20 39 44 39c23 0 43 -17 43 -39c0 -23 -20 -40 -43 -40zM158 59h285v-59h-349v559h340v-59h-276v-195h241v-60h-241v-186z" />
    <glyph glyph-name="uni0416.c2sc" horiz-adv-x="738" 
d="M735 0h-89l-245 239v-239h-64v238l-245 -238h-89l282 273l-238 286h81l209 -252v252h64v-254l209 254h80l-238 -285z" />
    <glyph glyph-name="uni0417.c2sc" horiz-adv-x="501" 
d="M337 300c67 -18 110 -71 110 -141c0 -100 -89 -167 -216 -167c-86 0 -162 40 -198 107l55 33c28 -49 81 -79 140 -79c88 0 154 44 154 108c0 65 -60 107 -138 107h-64v56h57c68 0 113 37 113 91c0 52 -47 90 -117 90c-49 0 -98 -24 -121 -58l-46 39c33 47 99 80 170 80
c109 0 179 -59 179 -149c0 -51 -28 -95 -78 -117z" />
    <glyph glyph-name="uni0418.c2sc" horiz-adv-x="606" 
d="M446 559h66v-559h-65v444l-289 -444h-64v559h65v-443z" />
    <glyph glyph-name="uni0419.c2sc" horiz-adv-x="606" 
d="M304 630c-63 0 -105 38 -105 101h49c0 -33 20 -57 56 -57c38 0 55 24 55 57h48c0 -53 -31 -101 -103 -101zM446 559h66v-559h-65v444l-289 -444h-64v559h65v-443z" />
    <glyph glyph-name="uni041A.c2sc" horiz-adv-x="492" 
d="M492 0h-89l-245 236v-236h-64v559h64v-249l209 249h81l-238 -285z" />
    <glyph glyph-name="uni041B.c2sc" horiz-adv-x="576" 
d="M134 559h348v-559h-65v500h-218v-310c0 -125 -63 -190 -159 -190h-18v59h10c61 0 102 39 102 132v368z" />
    <glyph glyph-name="uni041C.c2sc" horiz-adv-x="824" 
d="M763 0h-64l-58 441l-200 -382h-57l-201 385l-58 -444h-64l73 559h59l219 -431l219 431h59z" />
    <glyph glyph-name="uni041D.c2sc" horiz-adv-x="627" 
d="M468 559h65v-559h-65v248h-309v-248h-65v559h65v-252h309v252z" />
    <glyph glyph-name="uni041E.c2sc" horiz-adv-x="699" 
d="M349 -8c-166 0 -296 128 -296 287c0 158 130 287 296 287c167 0 297 -129 297 -287c0 -159 -130 -287 -297 -287zM349 53c131 0 232 101 232 226c0 124 -101 225 -232 225s-231 -101 -231 -225c0 -125 100 -226 231 -226z" />
    <glyph glyph-name="uni041F.c2sc" horiz-adv-x="613" 
d="M94 559h425v-559h-65v500h-295v-500h-65v559z" />
    <glyph glyph-name="uni0420.c2sc" horiz-adv-x="537" 
d="M326 559c122 0 172 -86 172 -173s-50 -172 -174 -172h-165v-214h-65v559h232zM321 274c81 0 112 55 112 112s-31 114 -108 114h-166v-226h162z" />
    <glyph glyph-name="uni0421.c2sc" 
d="M347 -8c-165 0 -295 128 -295 287c0 158 130 286 295 286c85 0 161 -35 212 -90l-47 -40c-41 43 -99 69 -165 69c-130 0 -230 -101 -230 -225s100 -226 230 -226c66 0 124 27 164 69l48 -39c-52 -56 -127 -91 -212 -91z" />
    <glyph glyph-name="uni0422.c2sc" horiz-adv-x="488" 
d="M460 559v-59h-184v-500h-65v500h-183v59h432z" />
    <glyph glyph-name="uni0423.c2sc" horiz-adv-x="525" 
d="M443 559h73l-304 -559h-72l99 179l-227 380h72l190 -321z" />
    <glyph glyph-name="uni0424.c2sc" horiz-adv-x="731" 
d="M682 278c0 -121 -84 -204 -284 -212v-66h-64v66c-200 8 -284 91 -284 212c0 122 84 205 284 213v68h64v-68c200 -8 284 -91 284 -213zM115 278c0 -84 64 -144 219 -151v303c-155 -7 -219 -66 -219 -152zM616 278c1 86 -63 145 -218 152v-303c154 7 218 67 218 151z" />
    <glyph glyph-name="uni0425.c2sc" horiz-adv-x="529" 
d="M511 0h-77l-169 249l-170 -249h-77l207 301l-181 258h78l142 -207l144 207h78l-183 -258z" />
    <glyph glyph-name="uni0427.c2sc" horiz-adv-x="571" 
d="M412 559h64v-559h-64v214c-61 -13 -114 -16 -166 -16c-123 0 -194 62 -194 200v161h65v-159c0 -103 50 -141 137 -141c50 0 100 3 158 15v285z" />
    <glyph glyph-name="uni0426.c2sc" horiz-adv-x="634" 
d="M531 52h46v-168h-65v116h-418v559h65v-500h307v500h65v-507z" />
    <glyph glyph-name="uni0428.c2sc" horiz-adv-x="880" 
d="M721 559h65v-559h-692v559h65v-500h249v500h65v-500h248v500z" />
    <glyph glyph-name="uni0429.c2sc" horiz-adv-x="889" 
d="M786 52h45v-168h-64v116h-673v559h65v-500h249v500h65v-500h248v500h65v-507z" />
    <glyph glyph-name="uni042C.c2sc" horiz-adv-x="528" 
d="M312 343c127 0 176 -83 176 -170s-49 -173 -173 -173h-221v559h65v-216h153zM313 59c74 0 110 52 110 113c0 62 -34 113 -122 113h-142v-226h154z" />
    <glyph glyph-name="uni042A.c2sc" horiz-adv-x="577" 
d="M361 343c127 0 176 -83 176 -170s-49 -173 -172 -173h-221v500h-124v59h188v-216h153zM363 59c73 0 109 52 109 113c0 62 -34 113 -122 113h-142v-226h155z" />
    <glyph glyph-name="uni042B.c2sc" horiz-adv-x="737" 
d="M312 343c127 0 176 -83 176 -170s-49 -173 -173 -173h-221v559h65v-216h153zM578 559h65v-559h-65v559zM313 59c74 0 110 52 110 113c0 62 -34 113 -122 113h-142v-226h154z" />
    <glyph glyph-name="uni042D.c2sc" horiz-adv-x="604" 
d="M257 565c164 0 294 -128 294 -286c0 -159 -130 -287 -294 -287c-85 0 -161 35 -212 91l47 39c41 -42 99 -69 164 -69c118 0 211 84 227 192h-317v60h319c-13 112 -108 199 -229 199c-65 0 -124 -26 -165 -69l-47 40c52 55 128 90 213 90z" />
    <glyph glyph-name="uni042E.c2sc" horiz-adv-x="918" 
d="M569 566c167 0 297 -129 297 -287c0 -159 -130 -287 -297 -287c-155 0 -279 112 -294 256h-116v-248h-65v559h65v-252h115c15 145 139 259 295 259zM569 53c131 0 232 101 232 226c0 124 -101 225 -232 225s-231 -101 -231 -225c0 -125 100 -226 231 -226z" />
    <glyph glyph-name="uni042F.c2sc" horiz-adv-x="545" 
d="M230 559h221v-559h-65v216h-90l-159 -216h-77l161 216c-118 5 -164 86 -164 170c0 87 49 173 173 173zM244 273h142v227h-154c-74 0 -110 -53 -110 -114c0 -62 34 -113 122 -113z" />
    <glyph glyph-name="uni0430" unicode="&#x430;" horiz-adv-x="615" 
d="M471 467h64v-467h-64v91c-35 -64 -108 -101 -186 -101c-130 0 -237 102 -237 244s106 243 237 243c79 0 151 -37 186 -100v90zM290 51c97 0 181 73 181 181c0 113 -88 184 -181 184c-98 0 -178 -78 -178 -181c0 -104 80 -184 178 -184z" />
    <glyph glyph-name="uni0431" unicode="&#x431;" horiz-adv-x="599" 
d="M312 477c127 0 239 -94 239 -242s-112 -245 -245 -245c-145 0 -244 92 -244 303c0 175 55 380 320 406c39 4 50 15 66 36l52 -29c-17 -34 -54 -59 -105 -64c-195 -19 -251 -140 -262 -251c34 50 104 86 179 86zM306 51c99 0 181 73 181 184c0 110 -82 181 -181 181
s-180 -74 -180 -160c0 -116 62 -205 180 -205z" />
    <glyph glyph-name="uni0432" unicode="&#x432;" horiz-adv-x="537" 
d="M401 249c62 -15 87 -69 87 -119c0 -65 -49 -130 -145 -130h-263v467h245c82 0 137 -46 137 -116c0 -39 -14 -85 -61 -102zM322 406h-178v-134h186c43 0 68 27 68 68c0 42 -28 66 -76 66zM337 61c57 0 88 35 88 75c0 44 -34 81 -92 81h-189v-156h193z" />
    <glyph glyph-name="uni0433" unicode="&#x433;" horiz-adv-x="372" 
d="M80 467h271v-61h-207v-406h-64v467z" />
    <glyph glyph-name="uni0434" unicode="&#x434;" horiz-adv-x="508" 
d="M420 45h39v-159h-65v114h-309v-114h-63v166h7c53 0 87 44 87 145v270h304v-422zM179 185c0 -53 -12 -101 -42 -126h220v347h-178v-221z" />
    <glyph glyph-name="uni0435" unicode="&#x435;" horiz-adv-x="561" 
d="M516 235c0 -9 0 -19 -1 -28h-402c11 -100 81 -156 175 -156c64 0 121 29 152 80l55 -24c-41 -75 -121 -117 -209 -117c-132 0 -238 97 -238 245s106 242 238 242c133 0 230 -94 230 -242zM114 262h339c-9 97 -76 154 -167 154c-92 0 -160 -54 -172 -154z" />
    <glyph glyph-name="uni0451" unicode="&#x451;" horiz-adv-x="561" 
d="M193 566c-26 0 -48 19 -48 45c0 27 22 46 48 46c27 0 49 -19 49 -46c0 -26 -22 -45 -49 -45zM362 566c-26 0 -48 19 -48 45c0 27 22 46 48 46c27 0 49 -19 49 -46c0 -26 -22 -45 -49 -45zM516 235c0 -9 0 -19 -1 -28h-402c11 -100 81 -156 175 -156c64 0 121 29 152 80
l55 -24c-41 -75 -121 -117 -209 -117c-132 0 -238 97 -238 245s106 242 238 242c133 0 230 -94 230 -242zM114 262h339c-9 97 -76 154 -167 154c-92 0 -160 -54 -172 -154z" />
    <glyph glyph-name="uni0436" unicode="&#x436;" horiz-adv-x="635" 
d="M633 0h-88l-196 192v-192h-64v190l-196 -190h-87l239 229l-201 238h80l165 -198v198h64v-202l166 202h79l-200 -237z" />
    <glyph glyph-name="uni0437" unicode="&#x437;" horiz-adv-x="426" 
d="M285 253c57 -16 93 -60 94 -119c0 -84 -74 -143 -182 -143c-72 0 -134 31 -166 85l51 35c23 -37 64 -59 111 -59c71 0 121 35 121 85c0 51 -45 85 -108 85h-54v51h44c58 0 93 31 93 74c0 40 -38 68 -93 68c-40 0 -79 -17 -98 -45l-43 40c31 38 85 66 146 66
c91 0 152 -49 152 -126c0 -41 -24 -79 -68 -97z" />
    <glyph glyph-name="uni0438" unicode="&#x438;" horiz-adv-x="546" 
d="M406 467h60v-467h-64v363l-267 -363h-55v467h64v-360z" />
    <glyph glyph-name="uni0439" unicode="&#x439;" horiz-adv-x="546" 
d="M259 554c-86 0 -121 58 -121 124h54c0 -42 22 -73 67 -73c41 0 66 31 66 73h56c0 -77 -49 -124 -122 -124zM406 467h60v-467h-64v363l-267 -363h-55v467h64v-360z" />
    <glyph glyph-name="uni043A" unicode="&#x43a;" horiz-adv-x="424" 
d="M427 0h-87l-196 191v-191h-64v467h64v-200l165 200h78l-199 -237z" />
    <glyph glyph-name="uni043B" unicode="&#x43b;" horiz-adv-x="519" 
d="M116 467h323v-467h-64v406h-196v-240c0 -108 -54 -166 -136 -166h-21v57h9c51 0 85 30 85 110v300z" />
    <glyph glyph-name="uni043C" unicode="&#x43c;" horiz-adv-x="700" 
d="M648 0h-64l-47 351l-160 -301h-53l-161 302l-47 -352h-64l62 467h57l180 -348l178 348h57z" />
    <glyph glyph-name="uni043D" unicode="&#x43d;" horiz-adv-x="558" 
d="M414 467h64v-467h-64v204h-270v-204h-64v467h64v-206h270v206z" />
    <glyph glyph-name="uni043E" unicode="&#x43e;" horiz-adv-x="584" 
d="M292 -10c-133 0 -244 97 -244 245s111 242 244 242s245 -94 245 -242s-112 -245 -245 -245zM292 51c98 0 181 73 181 184c0 110 -83 181 -181 181c-99 0 -180 -71 -180 -181c0 -111 81 -184 180 -184z" />
    <glyph glyph-name="uni043F" unicode="&#x43f;" horiz-adv-x="541" 
d="M80 467h381v-467h-64v406h-253v-406h-64v467z" />
    <glyph glyph-name="uni0440" unicode="&#x440;" horiz-adv-x="615" 
d="M330 477c131 0 237 -102 237 -244s-106 -243 -237 -243c-79 0 -151 37 -186 101v-318h-64v694h64v-92c34 64 108 102 186 102zM325 51c99 0 179 78 179 181c0 104 -80 184 -179 184c-97 0 -181 -73 -181 -181c0 -113 88 -184 181 -184z" />
    <glyph glyph-name="uni0441" unicode="&#x441;" horiz-adv-x="501" 
d="M295 -9c-133 0 -247 95 -247 243s114 243 247 243c67 0 126 -25 168 -64l-40 -44c-32 29 -76 47 -126 47c-102 0 -185 -72 -185 -182c0 -109 83 -182 185 -182c50 0 94 17 126 46l40 -43c-42 -40 -101 -64 -168 -64z" />
    <glyph glyph-name="uni0442" unicode="&#x442;" horiz-adv-x="402" 
d="M381 467v-61h-148v-406h-64v406h-148v61h360z" />
    <glyph glyph-name="uni0443" unicode="&#x443;" horiz-adv-x="498" 
d="M411 467h69l-293 -694h-68l96 233l-193 461h69l159 -382z" />
    <glyph glyph-name="uni0444" unicode="&#x444;" horiz-adv-x="671" 
d="M623 230c0 -138 -89 -229 -257 -239v-218h-62v218c-168 10 -257 101 -257 239c1 140 90 236 257 246v254h62v-254c168 -10 256 -106 257 -246zM111 230c0 -103 65 -169 193 -178v363c-127 -10 -192 -80 -193 -185zM366 52c128 9 193 75 193 178c0 105 -65 175 -193 185
v-363z" />
    <glyph glyph-name="uni0445" unicode="&#x445;" horiz-adv-x="471" 
d="M459 0h-77l-146 204l-148 -204h-76l186 257l-152 210h78l112 -157l111 157h78l-151 -209z" />
    <glyph glyph-name="uni0447" unicode="&#x447;" horiz-adv-x="498" 
d="M354 467h64v-467h-64v169c-51 -10 -102 -12 -145 -12c-103 0 -163 52 -163 171v139h63v-137c0 -85 43 -114 112 -114c39 0 86 2 133 12v239z" />
    <glyph glyph-name="uni0446" unicode="&#x446;" horiz-adv-x="543" 
d="M447 61h48v-175h-63v114h-352v467h64v-406h239v406h64v-406z" />
    <glyph glyph-name="uni0448" unicode="&#x448;" horiz-adv-x="745" 
d="M601 467h64v-467h-585v467h64v-406h196v406h64v-406h197v406z" />
    <glyph glyph-name="uni0449" unicode="&#x449;" horiz-adv-x="762" 
d="M665 61h51v-175h-63v114h-573v467h64v-406h196v406h64v-406h197v406h64v-406z" />
    <glyph glyph-name="uni044C" unicode="&#x44c;" horiz-adv-x="467" 
d="M280 290c110 0 152 -68 152 -143c0 -74 -42 -147 -148 -147h-204v467h64v-177h136zM276 61c64 0 92 38 92 85c0 46 -27 83 -95 83h-129v-168h132z" />
    <glyph glyph-name="uni044A" unicode="&#x44a;" horiz-adv-x="505" 
d="M319 290c109 0 152 -68 152 -143c0 -74 -42 -147 -148 -147h-204v406h-98v61h162v-177h136zM315 61c64 0 92 38 92 85c0 46 -27 83 -95 83h-129v-168h132z" />
    <glyph glyph-name="uni044B" unicode="&#x44b;" horiz-adv-x="639" 
d="M280 290c110 0 152 -68 152 -143c0 -74 -42 -147 -148 -147h-204v467h64v-177h136zM495 467h64v-467h-64v467zM276 61c64 0 92 38 92 85c0 46 -27 83 -95 83h-129v-168h132z" />
    <glyph glyph-name="uni044D" unicode="&#x44d;" horiz-adv-x="519" 
d="M223 477c139 0 249 -110 249 -243s-110 -244 -249 -244c-74 0 -139 31 -183 81l47 36c33 -35 80 -56 135 -56c94 0 167 65 182 150h-257v58h258c-12 88 -86 157 -183 157c-55 0 -102 -22 -135 -57l-47 37c44 49 109 81 183 81z" />
    <glyph glyph-name="uni044E" unicode="&#x44e;" horiz-adv-x="766" 
d="M474 477c133 0 244 -94 244 -242s-111 -245 -244 -245c-124 0 -228 84 -242 214h-88v-204h-64v467h64v-206h87c12 133 117 216 243 216zM474 51c98 0 180 73 180 184c0 110 -82 181 -180 181c-99 0 -181 -71 -181 -181c0 -111 82 -184 181 -184z" />
    <glyph glyph-name="uni044F" unicode="&#x44f;" horiz-adv-x="471" 
d="M201 467h189v-467h-63v177h-70l-129 -177h-76l133 178c-95 8 -134 74 -134 144c0 74 44 145 150 145zM213 234h114v172h-122c-61 0 -89 -38 -89 -85c0 -48 28 -87 97 -87z" />
    <glyph glyph-name="uni0430.smcp" horiz-adv-x="544" 
d="M461 0l-57 146h-264l-57 -146h-69l223 559h70l222 -559h-68zM163 203h218l-109 278z" />
    <glyph glyph-name="uni0431.smcp" horiz-adv-x="531" 
d="M312 343c127 0 176 -83 176 -170s-49 -173 -173 -173h-221v559h331v-59h-266v-157h153zM313 59c74 0 110 52 110 113c0 62 -34 113 -122 113h-142v-226h154z" />
    <glyph glyph-name="uni0432.smcp" horiz-adv-x="556" 
d="M389 298c77 -18 111 -84 111 -143c0 -79 -61 -155 -169 -155h-237v559h216c96 0 158 -52 158 -139c0 -49 -22 -102 -79 -122zM308 500h-149v-178h159c55 0 85 40 85 92s-35 86 -95 86zM321 59c73 0 114 48 114 101c0 56 -44 106 -117 106h-159v-207h162z" />
    <glyph glyph-name="uni0433.smcp" horiz-adv-x="417" 
d="M94 559h294v-59h-229v-500h-65v559z" />
    <glyph glyph-name="uni0434.smcp" horiz-adv-x="586" 
d="M483 52h45v-168h-65v116h-375v-116h-65v172h9c62 0 103 53 103 165v338h348v-507zM200 214c0 -67 -17 -125 -51 -155h269v441h-218v-286z" />
    <glyph glyph-name="uni0435.smcp" horiz-adv-x="497" 
d="M158 59h285v-59h-349v559h340v-59h-276v-195h241v-60h-241v-186z" />
    <glyph glyph-name="uni0451.smcp" horiz-adv-x="497" 
d="M176 641c-24 0 -43 17 -43 40c0 22 19 39 43 39s43 -17 43 -39c0 -23 -19 -40 -43 -40zM324 641c-24 0 -44 17 -44 40c0 22 20 39 44 39c23 0 43 -17 43 -39c0 -23 -20 -40 -43 -40zM158 59h285v-59h-349v559h340v-59h-276v-195h241v-60h-241v-186z" />
    <glyph glyph-name="uni0436.smcp" horiz-adv-x="738" 
d="M735 0h-89l-245 239v-239h-64v238l-245 -238h-89l282 273l-238 286h81l209 -252v252h64v-254l209 254h80l-238 -285z" />
    <glyph glyph-name="uni0437.smcp" horiz-adv-x="501" 
d="M337 300c67 -18 110 -71 110 -141c0 -100 -89 -167 -216 -167c-86 0 -162 40 -198 107l55 33c28 -49 81 -79 140 -79c88 0 154 44 154 108c0 65 -60 107 -138 107h-64v56h57c68 0 113 37 113 91c0 52 -47 90 -117 90c-49 0 -98 -24 -121 -58l-46 39c33 47 99 80 170 80
c109 0 179 -59 179 -149c0 -51 -28 -95 -78 -117z" />
    <glyph glyph-name="uni0438.smcp" horiz-adv-x="606" 
d="M446 559h66v-559h-65v444l-289 -444h-64v559h65v-443z" />
    <glyph glyph-name="uni0439.smcp" horiz-adv-x="606" 
d="M304 630c-63 0 -105 38 -105 101h49c0 -33 20 -57 56 -57c38 0 55 24 55 57h48c0 -53 -31 -101 -103 -101zM446 559h66v-559h-65v444l-289 -444h-64v559h65v-443z" />
    <glyph glyph-name="uni043A.smcp" horiz-adv-x="492" 
d="M492 0h-89l-245 236v-236h-64v559h64v-249l209 249h81l-238 -285z" />
    <glyph glyph-name="uni043B.smcp" horiz-adv-x="576" 
d="M134 559h348v-559h-65v500h-218v-310c0 -125 -63 -190 -159 -190h-18v59h10c61 0 102 39 102 132v368z" />
    <glyph glyph-name="uni043C.smcp" horiz-adv-x="824" 
d="M763 0h-64l-58 441l-200 -382h-57l-201 385l-58 -444h-64l73 559h59l219 -431l219 431h59z" />
    <glyph glyph-name="uni043D.smcp" horiz-adv-x="627" 
d="M468 559h65v-559h-65v248h-309v-248h-65v559h65v-252h309v252z" />
    <glyph glyph-name="uni043E.smcp" horiz-adv-x="699" 
d="M349 -8c-166 0 -296 128 -296 287c0 158 130 287 296 287c167 0 297 -129 297 -287c0 -159 -130 -287 -297 -287zM349 53c131 0 232 101 232 226c0 124 -101 225 -232 225s-231 -101 -231 -225c0 -125 100 -226 231 -226z" />
    <glyph glyph-name="uni043F.smcp" horiz-adv-x="613" 
d="M94 559h425v-559h-65v500h-295v-500h-65v559z" />
    <glyph glyph-name="uni0440.smcp" horiz-adv-x="537" 
d="M326 559c122 0 172 -86 172 -173s-50 -172 -174 -172h-165v-214h-65v559h232zM321 274c81 0 112 55 112 112s-31 114 -108 114h-166v-226h162z" />
    <glyph glyph-name="uni0441.smcp" 
d="M347 -8c-165 0 -295 128 -295 287c0 158 130 286 295 286c85 0 161 -35 212 -90l-47 -40c-41 43 -99 69 -165 69c-130 0 -230 -101 -230 -225s100 -226 230 -226c66 0 124 27 164 69l48 -39c-52 -56 -127 -91 -212 -91z" />
    <glyph glyph-name="uni0442.smcp" horiz-adv-x="488" 
d="M460 559v-59h-184v-500h-65v500h-183v59h432z" />
    <glyph glyph-name="uni0443.smcp" horiz-adv-x="525" 
d="M443 559h73l-304 -559h-72l99 179l-227 380h72l190 -321z" />
    <glyph glyph-name="uni0444.smcp" horiz-adv-x="731" 
d="M682 278c0 -121 -84 -204 -284 -212v-66h-64v66c-200 8 -284 91 -284 212c0 122 84 205 284 213v68h64v-68c200 -8 284 -91 284 -213zM115 278c0 -84 64 -144 219 -151v303c-155 -7 -219 -66 -219 -152zM616 278c1 86 -63 145 -218 152v-303c154 7 218 67 218 151z" />
    <glyph glyph-name="uni0445.smcp" horiz-adv-x="529" 
d="M511 0h-77l-169 249l-170 -249h-77l207 301l-181 258h78l142 -207l144 207h78l-183 -258z" />
    <glyph glyph-name="uni0447.smcp" horiz-adv-x="571" 
d="M412 559h64v-559h-64v214c-61 -13 -114 -16 -166 -16c-123 0 -194 62 -194 200v161h65v-159c0 -103 50 -141 137 -141c50 0 100 3 158 15v285z" />
    <glyph glyph-name="uni0446.smcp" horiz-adv-x="634" 
d="M531 52h46v-168h-65v116h-418v559h65v-500h307v500h65v-507z" />
    <glyph glyph-name="uni0448.smcp" horiz-adv-x="880" 
d="M721 559h65v-559h-692v559h65v-500h249v500h65v-500h248v500z" />
    <glyph glyph-name="uni0449.smcp" horiz-adv-x="889" 
d="M786 52h45v-168h-64v116h-673v559h65v-500h249v500h65v-500h248v500h65v-507z" />
    <glyph glyph-name="uni044C.smcp" horiz-adv-x="528" 
d="M312 343c127 0 176 -83 176 -170s-49 -173 -173 -173h-221v559h65v-216h153zM313 59c74 0 110 52 110 113c0 62 -34 113 -122 113h-142v-226h154z" />
    <glyph glyph-name="uni044A.smcp" horiz-adv-x="577" 
d="M361 343c127 0 176 -83 176 -170s-49 -173 -172 -173h-221v500h-124v59h188v-216h153zM363 59c73 0 109 52 109 113c0 62 -34 113 -122 113h-142v-226h155z" />
    <glyph glyph-name="uni044B.smcp" horiz-adv-x="737" 
d="M312 343c127 0 176 -83 176 -170s-49 -173 -173 -173h-221v559h65v-216h153zM578 559h65v-559h-65v559zM313 59c74 0 110 52 110 113c0 62 -34 113 -122 113h-142v-226h154z" />
    <glyph glyph-name="uni044D.smcp" horiz-adv-x="604" 
d="M257 565c164 0 294 -128 294 -286c0 -159 -130 -287 -294 -287c-85 0 -161 35 -212 91l47 39c41 -42 99 -69 164 -69c118 0 211 84 227 192h-317v60h319c-13 112 -108 199 -229 199c-65 0 -124 -26 -165 -69l-47 40c52 55 128 90 213 90z" />
    <glyph glyph-name="uni044E.smcp" horiz-adv-x="918" 
d="M569 566c167 0 297 -129 297 -287c0 -159 -130 -287 -297 -287c-155 0 -279 112 -294 256h-116v-248h-65v559h65v-252h115c15 145 139 259 295 259zM569 53c131 0 232 101 232 226c0 124 -101 225 -232 225s-231 -101 -231 -225c0 -125 100 -226 231 -226z" />
    <glyph glyph-name="uni044F.smcp" horiz-adv-x="545" 
d="M230 559h221v-559h-65v216h-90l-159 -216h-77l161 216c-118 5 -164 86 -164 170c0 87 49 173 173 173zM244 273h142v227h-154c-74 0 -110 -53 -110 -114c0 -62 34 -113 122 -113z" />
    <glyph glyph-name="uni0394" unicode="&#x394;" horiz-adv-x="613" 
d="M342 689l262 -689h-595l262 689h71zM100 59h412l-205 542z" />
    <glyph glyph-name="uni03A9" unicode="&#x3a9;" horiz-adv-x="821" 
d="M758 350c0 -125 -68 -235 -164 -288h156v-62h-289v59c127 27 231 146 231 291c0 160 -123 285 -281 285c-159 0 -281 -125 -281 -285c0 -145 104 -264 230 -291v-59h-288v62h156c-97 53 -164 163 -164 288c0 196 152 347 347 347s347 -151 347 -347z" />
    <glyph glyph-name="uni0394.c2sc" horiz-adv-x="567" 
d="M319 559l222 -559h-515l223 559h70zM117 57h334l-167 424z" />
    <glyph glyph-name="uni03A9.c2sc" horiz-adv-x="713" 
d="M652 285c0 -98 -56 -186 -134 -225h130v-60h-249v55c103 22 189 115 189 228c0 125 -101 221 -232 221c-130 0 -231 -96 -231 -221c0 -113 86 -206 189 -228v-55h-249v60h129c-78 39 -134 127 -134 225c0 158 130 281 296 281c167 0 296 -123 296 -281z" />
    <glyph glyph-name="pi" unicode="&#x3c0;" horiz-adv-x="535" 
d="M412 122c0 -56 27 -71 77 -71v-61h-7c-62 1 -134 28 -134 133v283h-181v-406h-64v406h-65v61h449v-61h-75v-284z" />
    <glyph glyph-name="delta.smcp" horiz-adv-x="567" 
d="M319 559l222 -559h-515l223 559h70zM117 57h334l-167 424z" />
    <glyph glyph-name="omega.smcp" horiz-adv-x="713" 
d="M652 285c0 -98 -56 -186 -134 -225h130v-60h-249v55c103 22 189 115 189 228c0 125 -101 221 -232 221c-130 0 -231 -96 -231 -221c0 -113 86 -206 189 -228v-55h-249v60h129c-78 39 -134 127 -134 225c0 158 130 281 296 281c167 0 296 -123 296 -281z" />
    <glyph glyph-name="zero" unicode="0" horiz-adv-x="595" 
d="M298 -10c-186 0 -235 152 -235 338c0 187 49 338 235 338s233 -151 233 -338c0 -186 -47 -338 -233 -338zM298 51c136 0 170 126 170 277c0 152 -34 277 -170 277c-137 0 -171 -125 -171 -277c0 -151 34 -277 171 -277z" />
    <glyph glyph-name="one" unicode="1" horiz-adv-x="335" 
d="M230 666h3v-666h-63v571l-143 -61v63z" />
    <glyph glyph-name="two" unicode="2" horiz-adv-x="505" 
d="M159 62h291v-62h-399v27l260 313c39 48 67 100 67 139c0 76 -55 126 -134 126c-73 0 -128 -39 -140 -102l-57 14c16 92 93 149 197 149c117 0 198 -74 198 -187c0 -55 -32 -118 -74 -168z" />
    <glyph glyph-name="three" unicode="3" horiz-adv-x="530" 
d="M353 354c70 -20 121 -84 121 -167c0 -118 -96 -196 -229 -196c-91 0 -171 50 -208 131l53 29c30 -61 88 -99 153 -99c95 0 167 53 167 133c0 83 -64 139 -150 139h-67v56h64c72 0 120 46 120 113s-52 112 -129 112c-52 0 -104 -28 -129 -69l-46 36c33 56 103 94 176 94
c115 0 192 -69 192 -172c0 -62 -34 -115 -88 -140z" />
    <glyph glyph-name="four" unicode="4" horiz-adv-x="562" 
d="M522 200v-61h-98v-139h-64v139h-344v15l394 504h14v-458h98zM122 200h238v305z" />
    <glyph glyph-name="five" unicode="5" horiz-adv-x="548" 
d="M290 412c122 0 210 -81 210 -205c0 -131 -97 -217 -226 -217c-106 0 -187 57 -229 138l53 29c32 -61 92 -106 172 -106c95 0 166 62 166 155c0 90 -68 149 -157 149c-55 0 -119 -23 -174 -56l-37 33l58 326h330v-61h-278l-43 -230c47 28 103 45 155 45z" />
    <glyph glyph-name="six" unicode="6" horiz-adv-x="578" 
d="M303 417c130 0 219 -98 219 -212c0 -104 -75 -215 -226 -215c-152 0 -234 101 -234 291c0 141 35 385 256 385c77 0 152 -27 195 -125l-58 -24c-30 66 -81 88 -138 88c-132 0 -189 -147 -185 -278c31 53 98 90 171 90zM292 52c99 0 164 70 164 154c0 83 -64 149 -155 150
c-76 0 -165 -44 -169 -137c0 -108 74 -166 160 -167z" />
    <glyph glyph-name="seven" unicode="7" horiz-adv-x="492" 
d="M48 658h432v-7l-358 -651h-75l328 597h-327v61z" />
    <glyph glyph-name="eight" unicode="8" horiz-adv-x="580" 
d="M393 382c81 -29 135 -102 135 -187c0 -118 -101 -205 -238 -205c-138 0 -238 87 -238 204c0 86 52 159 135 188c-46 25 -76 69 -76 127c0 89 73 157 179 157s180 -68 180 -157c0 -58 -30 -102 -77 -127zM290 606c-64 0 -113 -45 -113 -102c0 -56 47 -100 113 -101
c65 1 114 44 114 101s-50 102 -114 102zM290 51c99 0 171 65 171 147c0 85 -76 151 -171 151c-97 -2 -171 -66 -171 -150s74 -148 171 -148z" />
    <glyph glyph-name="nine" unicode="9" horiz-adv-x="578" 
d="M283 666c151 0 234 -115 234 -290c0 -142 -36 -386 -257 -386c-76 0 -151 27 -194 125l58 24c30 -66 81 -88 137 -88c131 0 189 145 186 276c-32 -54 -100 -88 -171 -88c-131 0 -220 98 -220 213c0 103 75 214 227 214zM277 300c76 0 166 44 169 137
c0 108 -74 167 -160 168c-98 0 -164 -71 -164 -155c0 -82 64 -148 155 -150z" />
    <glyph glyph-name="zero.Circled" horiz-adv-x="738" 
d="M369 -1c-187 0 -339 152 -339 339s152 339 339 339s339 -152 339 -339s-152 -339 -339 -339zM369 36c167 0 302 135 302 302c0 166 -135 301 -302 301c-166 0 -302 -135 -302 -301c0 -167 136 -302 302 -302zM370 151c-104 0 -132 83 -132 186c0 105 28 188 132 188
c103 0 131 -83 131 -188c0 -103 -28 -186 -131 -186zM370 202c59 0 76 59 76 135c0 77 -17 137 -76 137s-77 -60 -77 -137c0 -76 18 -135 77 -135z" />
    <glyph glyph-name="one.Circled" horiz-adv-x="738" 
d="M369 677c187 0 339 -152 339 -339s-152 -339 -339 -339s-339 152 -339 339s152 339 339 339zM369 36c167 0 302 135 302 302c0 166 -135 301 -302 301c-166 0 -302 -135 -302 -301c0 -167 136 -302 302 -302zM259 464l134 58h6v-368h-55v294l-85 -35v51z" />
    <glyph glyph-name="two.Circled" horiz-adv-x="738" 
d="M369 677c187 0 339 -152 339 -339s-152 -339 -339 -339s-339 152 -339 339s152 339 339 339zM369 36c167 0 302 135 302 302c0 166 -135 301 -302 301c-166 0 -302 -135 -302 -301c0 -167 136 -302 302 -302zM446 327l-106 -122h146v-51h-233l1 30l151 180
c14 17 23 35 23 54c0 32 -26 54 -60 54s-58 -21 -65 -55l-51 8c12 59 53 97 118 97c68 0 114 -42 114 -105c0 -36 -16 -65 -38 -90z" />
    <glyph glyph-name="three.Circled" horiz-adv-x="738" 
d="M369 675c187 0 339 -152 339 -339s-152 -339 -339 -339s-339 152 -339 339s152 339 339 339zM369 35c167 0 302 135 302 301c0 167 -135 302 -302 302c-166 0 -302 -135 -302 -302c0 -166 136 -301 302 -301zM426 351c40 -13 69 -48 69 -94c0 -64 -57 -107 -135 -107
c-50 0 -92 21 -116 59l37 31c16 -26 44 -41 76 -41c48 0 81 25 81 63s-30 63 -70 63h-37v42h25c41 0 65 24 64 56c-1 30 -26 50 -63 50c-29 0 -56 -15 -70 -35l-30 35c25 29 61 50 107 50c64 0 112 -38 112 -98c0 -31 -20 -58 -50 -74z" />
    <glyph glyph-name="four.Circled" horiz-adv-x="738" 
d="M369 677c187 0 339 -152 339 -339s-152 -339 -339 -339s-339 152 -339 339s152 339 339 339zM369 36c167 0 302 135 302 302c0 166 -135 301 -302 301c-166 0 -302 -135 -302 -301c0 -167 136 -302 302 -302zM438 520v-243h59v-49h-59v-72h-55v72h-182v18l197 274h40z
M276 277h107v151z" />
    <glyph glyph-name="five.Circled" horiz-adv-x="738" 
d="M369 675c187 0 339 -152 339 -339s-152 -340 -339 -340s-339 153 -339 340s152 339 339 339zM369 35c167 0 302 135 302 301c0 167 -135 302 -302 302c-166 0 -302 -135 -302 -302c0 -166 136 -301 302 -301zM385 395c67 0 115 -51 115 -118c0 -78 -64 -126 -136 -126
c-48 0 -100 26 -125 67l42 30c16 -28 50 -46 80 -46c49 0 83 31 83 76c0 42 -30 72 -75 72c-29 0 -64 -12 -89 -29l-30 18l32 182h193v-51h-147l-19 -95c20 13 47 20 76 20z" />
    <glyph glyph-name="six.Circled" horiz-adv-x="738" 
d="M369 677c187 0 339 -152 339 -339s-152 -339 -339 -339s-339 152 -339 339s152 339 339 339zM369 36c167 0 302 135 302 302c0 166 -135 301 -302 301c-166 0 -302 -135 -302 -301c0 -167 136 -302 302 -302zM377 387c71 0 118 -50 118 -113s-43 -121 -129 -121
c-78 0 -132 52 -132 160c0 97 24 214 144 214c47 0 90 -23 111 -66l-43 -27c-13 29 -38 43 -67 43c-65 0 -88 -60 -91 -123c20 20 51 33 89 33zM365 204c45 0 73 32 73 70c0 39 -28 69 -72 68c-33 0 -76 -16 -76 -62c0 -52 35 -76 75 -76z" />
    <glyph glyph-name="seven.Circled" horiz-adv-x="738" 
d="M369 677c187 0 339 -152 339 -339s-152 -339 -339 -339s-339 152 -339 339s152 339 339 339zM369 36c167 0 302 135 302 302c0 166 -135 301 -302 301c-166 0 -302 -135 -302 -301c0 -167 136 -302 302 -302zM241 462v52h250v-7l-165 -357h-62l145 312h-168z" />
    <glyph glyph-name="eight.Circled" horiz-adv-x="738" 
d="M369 677c187 0 339 -152 339 -339s-152 -339 -339 -339s-339 152 -339 339s152 339 339 339zM369 36c167 0 302 135 302 302c0 166 -135 301 -302 301c-166 0 -302 -135 -302 -301c0 -167 136 -302 302 -302zM435 362c39 -15 69 -53 69 -98c0 -64 -62 -112 -135 -112
c-75 0 -135 48 -135 112c0 44 29 83 68 98c-22 12 -40 40 -40 71c0 52 47 93 107 93s108 -41 108 -93c0 -32 -19 -59 -42 -71zM369 479c-33 0 -56 -22 -56 -49c0 -26 22 -49 56 -50c33 1 56 24 56 50c0 27 -24 49 -56 49zM369 201c46 0 79 30 79 69c0 37 -32 69 -79 69
c-48 0 -79 -31 -79 -69c0 -39 33 -69 79 -69z" />
    <glyph glyph-name="nine.Circled" horiz-adv-x="738" 
d="M369 677c187 0 339 -152 339 -339s-152 -339 -339 -339s-339 152 -339 339s152 339 339 339zM369 36c167 0 302 135 302 302c0 166 -135 301 -302 301c-166 0 -302 -135 -302 -301c0 -167 136 -302 302 -302zM368 523c77 0 131 -58 131 -155s-22 -219 -143 -219
c-48 0 -90 23 -111 67l42 26c14 -29 39 -42 67 -42c66 0 89 60 92 124c-19 -21 -49 -35 -89 -35c-72 0 -119 50 -119 113s43 121 130 121zM367 334c33 0 76 17 75 61c0 54 -33 77 -74 77c-45 0 -73 -33 -73 -71c0 -37 29 -67 72 -67z" />
    <glyph glyph-name="zero.lf" horiz-adv-x="595" 
d="M298 -10c-186 0 -235 152 -235 338c0 187 49 338 235 338s233 -151 233 -338c0 -186 -47 -338 -233 -338zM298 51c136 0 170 126 170 277c0 152 -34 277 -170 277c-137 0 -171 -125 -171 -277c0 -151 34 -277 171 -277z" />
    <glyph glyph-name="one.lf" horiz-adv-x="335" 
d="M230 666h3v-666h-63v571l-143 -61v63z" />
    <glyph glyph-name="two.lf" horiz-adv-x="505" 
d="M159 62h291v-62h-399v27l260 313c39 48 67 100 67 139c0 76 -55 126 -134 126c-73 0 -128 -39 -140 -102l-57 14c16 92 93 149 197 149c117 0 198 -74 198 -187c0 -55 -32 -118 -74 -168z" />
    <glyph glyph-name="three.lf" horiz-adv-x="530" 
d="M353 354c70 -20 121 -84 121 -167c0 -118 -96 -196 -229 -196c-91 0 -171 50 -208 131l53 29c30 -61 88 -99 153 -99c95 0 167 53 167 133c0 83 -64 139 -150 139h-67v56h64c72 0 120 46 120 113s-52 112 -129 112c-52 0 -104 -28 -129 -69l-46 36c33 56 103 94 176 94
c115 0 192 -69 192 -172c0 -62 -34 -115 -88 -140z" />
    <glyph glyph-name="four.lf" horiz-adv-x="562" 
d="M522 200v-61h-98v-139h-64v139h-344v15l394 504h14v-458h98zM122 200h238v305z" />
    <glyph glyph-name="five.lf" horiz-adv-x="548" 
d="M290 412c122 0 210 -81 210 -205c0 -131 -97 -217 -226 -217c-106 0 -187 57 -229 138l53 29c32 -61 92 -106 172 -106c95 0 166 62 166 155c0 90 -68 149 -157 149c-55 0 -119 -23 -174 -56l-37 33l58 326h330v-61h-278l-43 -230c47 28 103 45 155 45z" />
    <glyph glyph-name="six.lf" horiz-adv-x="578" 
d="M303 417c130 0 219 -98 219 -212c0 -104 -75 -215 -226 -215c-152 0 -234 101 -234 291c0 141 35 385 256 385c77 0 152 -27 195 -125l-58 -24c-30 66 -81 88 -138 88c-132 0 -189 -147 -185 -278c31 53 98 90 171 90zM292 52c99 0 164 70 164 154c0 83 -64 149 -155 150
c-76 0 -165 -44 -169 -137c0 -108 74 -166 160 -167z" />
    <glyph glyph-name="seven.lf" horiz-adv-x="492" 
d="M48 658h432v-7l-358 -651h-75l328 597h-327v61z" />
    <glyph glyph-name="eight.lf" horiz-adv-x="580" 
d="M393 382c81 -29 135 -102 135 -187c0 -118 -101 -205 -238 -205c-138 0 -238 87 -238 204c0 86 52 159 135 188c-46 25 -76 69 -76 127c0 89 73 157 179 157s180 -68 180 -157c0 -58 -30 -102 -77 -127zM290 606c-64 0 -113 -45 -113 -102c0 -56 47 -100 113 -101
c65 1 114 44 114 101s-50 102 -114 102zM290 51c99 0 171 65 171 147c0 85 -76 151 -171 151c-97 -2 -171 -66 -171 -150s74 -148 171 -148z" />
    <glyph glyph-name="nine.lf" horiz-adv-x="578" 
d="M283 666c151 0 234 -115 234 -290c0 -142 -36 -386 -257 -386c-76 0 -151 27 -194 125l58 24c30 -66 81 -88 137 -88c131 0 189 145 186 276c-32 -54 -100 -88 -171 -88c-131 0 -220 98 -220 213c0 103 75 214 227 214zM277 300c76 0 166 44 169 137
c0 108 -74 167 -160 168c-98 0 -164 -71 -164 -155c0 -82 64 -148 155 -150z" />
    <glyph glyph-name="zero.osf" horiz-adv-x="567" 
d="M283 -10c-138 0 -230 98 -230 244s92 243 230 243c139 0 232 -97 232 -243s-93 -244 -232 -244zM283 51c101 0 168 73 168 183c0 109 -67 182 -168 182c-100 0 -166 -73 -166 -182c0 -110 66 -183 166 -183z" />
    <glyph glyph-name="one.osf" horiz-adv-x="299" 
d="M210 476h4v-476h-64v389l-118 -43v60z" />
    <glyph glyph-name="two.osf" horiz-adv-x="444" 
d="M175 64h214v-64h-338v27l225 222c26 25 43 46 43 82c0 47 -43 82 -104 82c-53 0 -97 -28 -105 -76l-62 11c12 81 85 129 169 129c96 0 168 -60 168 -146c0 -61 -31 -97 -75 -141z" />
    <glyph glyph-name="three.osf" horiz-adv-x="492" 
d="M329 190c67 -19 115 -78 115 -154c0 -109 -91 -181 -218 -181c-87 0 -162 46 -198 119l52 30c28 -55 83 -88 144 -88c89 0 157 48 157 120c0 73 -61 123 -142 123h-63v55h59c69 0 114 42 114 103c0 59 -49 99 -120 99c-50 0 -98 -25 -122 -62l-46 36c33 52 99 87 169 87
c109 0 183 -64 183 -159c0 -57 -33 -106 -84 -128z" />
    <glyph glyph-name="four.osf" horiz-adv-x="550" 
d="M526 50v-60h-129v-128h-64v128h-319v16l368 461h15v-417h129zM118 50h215v270z" />
    <glyph glyph-name="five.osf" horiz-adv-x="511" 
d="M272 243c116 0 199 -75 199 -190c0 -121 -93 -200 -216 -200c-101 0 -178 52 -219 125l53 31c30 -55 88 -96 162 -96c89 0 156 56 156 140c0 81 -64 134 -148 134c-52 0 -112 -20 -164 -51l-36 31l54 300h316v-60h-263l-41 -207c43 26 96 43 147 43z" />
    <glyph glyph-name="six.osf" horiz-adv-x="551" 
d="M289 384c124 0 208 -90 208 -195c0 -97 -72 -198 -215 -198c-144 0 -223 94 -223 268c0 135 36 354 244 354c73 0 145 -26 185 -115l-57 -25c-28 59 -76 79 -129 79c-124 0 -177 -130 -174 -250c30 48 93 82 161 82zM279 52c92 0 153 63 153 138c0 74 -60 133 -145 135
c-72 0 -156 -40 -158 -123c0 -97 70 -149 150 -150z" />
    <glyph glyph-name="seven.osf" horiz-adv-x="483" 
d="M22 473h456v-6l-336 -599h-74l306 545h-352v60z" />
    <glyph glyph-name="eight.osf" horiz-adv-x="553" 
d="M375 350c77 -25 128 -92 128 -170c0 -110 -96 -189 -226 -189c-131 0 -227 79 -227 188c0 78 50 146 127 171c-43 23 -72 64 -72 117c0 83 71 146 172 146c100 0 172 -63 172 -146c0 -54 -29 -95 -74 -117zM277 554c-60 0 -106 -40 -106 -92c0 -50 44 -90 106 -91
c61 1 106 41 106 91c0 52 -46 92 -106 92zM277 51c92 0 160 58 160 132c0 76 -71 135 -160 135c-91 0 -161 -59 -161 -134c0 -76 70 -133 161 -133z" />
    <glyph glyph-name="nine.osf" horiz-adv-x="538" 
d="M261 477c145 0 224 -106 224 -268c0 -135 -36 -354 -245 -354c-73 0 -145 25 -185 115l57 24c28 -59 76 -79 129 -79c123 0 178 129 175 248c-31 -48 -94 -80 -161 -80c-125 0 -209 90 -209 196c0 96 72 198 215 198zM257 143c71 0 156 39 158 122c0 98 -70 150 -151 151
c-91 0 -152 -64 -152 -139c0 -74 60 -133 145 -134z" />
    <glyph glyph-name="zero.tf" horiz-adv-x="580" 
d="M290 -10c-186 0 -234 152 -234 338c0 187 48 338 234 338c187 0 234 -151 234 -338c0 -186 -47 -338 -234 -338zM290 51c137 0 170 126 170 277c0 152 -33 277 -170 277c-136 0 -170 -125 -170 -277c0 -151 34 -277 170 -277z" />
    <glyph glyph-name="one.tf" horiz-adv-x="580" 
d="M344 61h123v-61h-302v61h115v510l-142 -61v63l202 93h4v-605z" />
    <glyph glyph-name="two.tf" horiz-adv-x="580" 
d="M196 62h291v-62h-399v27l260 313c39 48 67 100 67 139c0 76 -55 126 -134 126c-73 0 -128 -39 -139 -102l-58 14c16 92 93 149 197 149c117 0 198 -74 198 -187c0 -55 -32 -118 -74 -168z" />
    <glyph glyph-name="three.tf" horiz-adv-x="580" 
d="M378 354c70 -20 121 -84 121 -167c0 -118 -96 -196 -229 -196c-91 0 -171 50 -208 131l53 29c30 -61 89 -99 153 -99c95 0 168 53 168 133c0 83 -65 139 -151 139h-67v56h64c72 0 120 46 120 113s-52 112 -129 112c-52 0 -104 -28 -129 -69l-46 36c33 56 103 94 176 94
c115 0 192 -69 192 -172c0 -62 -34 -115 -88 -140z" />
    <glyph glyph-name="four.tf" horiz-adv-x="580" 
d="M531 200v-61h-99v-139h-63v139h-345v15l395 504h13v-458h99zM130 200h239v305z" />
    <glyph glyph-name="five.tf" horiz-adv-x="580" 
d="M306 412c122 0 209 -81 209 -205c0 -131 -96 -217 -225 -217c-106 0 -187 57 -230 138l54 29c32 -61 92 -106 172 -106c95 0 166 62 166 155c0 90 -68 149 -157 149c-55 0 -119 -23 -174 -56l-37 33l58 326h330v-61h-278l-43 -230c48 28 103 45 155 45z" />
    <glyph glyph-name="six.tf" horiz-adv-x="580" 
d="M303 417c131 0 219 -98 219 -212c0 -104 -75 -215 -226 -215c-152 0 -233 101 -233 291c0 141 35 385 256 385c76 0 151 -27 194 -125l-58 -24c-30 66 -81 88 -137 88c-133 0 -190 -147 -186 -278c31 52 98 90 171 90zM293 52c98 0 163 70 163 154c0 83 -64 149 -154 150
c-77 0 -166 -44 -169 -137c0 -108 74 -166 160 -167z" />
    <glyph glyph-name="seven.tf" horiz-adv-x="580" 
d="M92 658h432v-7l-358 -651h-75l328 597h-327v61z" />
    <glyph glyph-name="eight.tf" horiz-adv-x="580" 
d="M393 382c81 -29 135 -102 135 -187c0 -118 -101 -205 -238 -205c-138 0 -238 87 -238 204c0 86 52 159 134 188c-45 24 -75 69 -75 127c0 89 73 157 179 157c105 0 180 -68 180 -157c0 -58 -30 -102 -77 -127zM290 606c-64 0 -113 -45 -113 -102c0 -56 47 -100 113 -101
c65 1 114 44 114 101s-50 102 -114 102zM290 51c99 0 171 65 171 147c0 85 -76 151 -171 151c-97 -2 -171 -66 -171 -150s74 -148 171 -148z" />
    <glyph glyph-name="nine.tf" horiz-adv-x="580" 
d="M283 666c152 0 235 -115 235 -290c0 -142 -36 -386 -257 -386c-77 0 -152 27 -194 125l57 24c31 -66 81 -88 138 -88c131 0 189 145 186 276c-32 -54 -100 -88 -171 -88c-131 0 -220 98 -220 213c0 103 75 214 226 214zM278 300c76 0 166 44 169 137
c0 108 -74 167 -160 168c-99 0 -164 -71 -164 -155c0 -82 64 -148 155 -150z" />
    <glyph glyph-name="zero.tosf" horiz-adv-x="580" 
d="M290 -10c-138 0 -230 98 -230 244s92 243 230 243c139 0 231 -97 231 -243s-92 -244 -231 -244zM290 51c100 0 168 73 168 183c0 109 -68 182 -168 182s-167 -73 -167 -182c0 -110 67 -183 167 -183z" />
    <glyph glyph-name="one.tosf" horiz-adv-x="580" 
d="M350 476h4v-476h-64v389l-118 -43v60z" />
    <glyph glyph-name="two.tosf" horiz-adv-x="580" 
d="M243 64h214v-64h-338v27l225 222c26 25 43 46 43 82c0 47 -43 82 -104 82c-53 0 -97 -28 -105 -76l-62 11c12 81 86 129 169 129c97 0 168 -60 168 -146c0 -61 -31 -97 -75 -141z" />
    <glyph glyph-name="three.tosf" horiz-adv-x="580" 
d="M373 190c67 -19 115 -78 115 -154c0 -109 -91 -181 -218 -181c-87 0 -162 46 -198 119l52 30c28 -55 83 -88 144 -88c89 0 157 48 157 120c0 73 -61 123 -142 123h-63v56h60c68 0 113 41 113 102c0 59 -49 99 -120 99c-50 0 -98 -25 -122 -62l-46 36c33 52 99 87 169 87
c109 0 183 -64 183 -159c0 -57 -33 -106 -84 -128z" />
    <glyph glyph-name="four.tosf" horiz-adv-x="580" 
d="M541 50v-60h-129v-128h-63v128h-320v16l369 461h14v-417h129zM133 50h216v270z" />
    <glyph glyph-name="five.tosf" horiz-adv-x="580" 
d="M306 243c116 0 199 -75 199 -190c0 -121 -93 -200 -216 -200c-100 0 -177 52 -219 125l53 31c30 -55 88 -96 162 -96c90 0 156 56 156 140c0 81 -64 134 -148 134c-52 0 -111 -20 -163 -51l-37 31l55 300h315v-60h-263l-40 -207c43 26 96 43 146 43z" />
    <glyph glyph-name="six.tosf" horiz-adv-x="580" 
d="M304 384c123 0 208 -90 208 -195c0 -98 -72 -198 -216 -198s-223 93 -223 268c0 134 36 354 244 354c74 0 145 -27 186 -115l-57 -25c-28 59 -76 79 -129 79c-125 0 -179 -131 -175 -252c30 49 93 84 162 84zM293 52c92 0 153 63 153 138c0 74 -60 133 -145 134
c-71 0 -156 -39 -158 -123c0 -96 70 -148 150 -149z" />
    <glyph glyph-name="seven.tosf" horiz-adv-x="580" 
d="M71 473h456v-6l-336 -599h-75l307 545h-352v60z" />
    <glyph glyph-name="eight.tosf" horiz-adv-x="580" 
d="M389 350c77 -25 128 -92 128 -170c0 -110 -97 -189 -227 -189c-131 0 -227 79 -227 188c0 78 50 146 127 171c-43 23 -71 64 -71 117c0 83 71 146 171 146c101 0 173 -63 173 -146c0 -54 -30 -95 -74 -117zM290 554c-60 0 -105 -40 -105 -92c0 -50 43 -90 105 -91
c61 1 107 41 107 91c0 52 -46 92 -107 92zM290 51c93 0 160 58 160 132c0 76 -70 135 -160 135c-91 0 -160 -59 -160 -134c0 -76 69 -133 160 -133z" />
    <glyph glyph-name="nine.tosf" horiz-adv-x="580" 
d="M283 477c144 0 223 -106 223 -268c0 -135 -36 -354 -244 -354c-74 0 -145 25 -185 115l56 24c28 -59 76 -79 129 -79c124 0 178 129 176 249c-30 -49 -94 -81 -162 -81c-124 0 -209 90 -209 196c0 96 72 198 216 198zM278 143c71 0 156 39 158 122c0 98 -70 150 -150 151
c-92 0 -153 -64 -153 -139c0 -74 60 -133 145 -134z" />
    <glyph glyph-name="zero.zero" horiz-adv-x="595" 
d="M298 666c186 0 233 -151 233 -338c0 -186 -47 -338 -233 -338s-235 152 -235 338c0 187 49 338 235 338zM298 605c-137 0 -171 -125 -171 -277c0 -76 9 -145 35 -196l221 450c-23 15 -51 23 -85 23zM298 51c136 0 170 126 170 277c0 84 -10 160 -43 211l-224 -457
c24 -20 56 -31 97 -31z" />
    <glyph glyph-name="zero.osf.zero" horiz-adv-x="567" 
d="M283 477c139 0 232 -97 232 -243s-93 -244 -232 -244c-138 0 -230 98 -230 244s92 243 230 243zM117 234c0 -65 23 -117 62 -149l159 323c-17 5 -35 8 -55 8c-100 0 -166 -73 -166 -182zM283 51c101 0 168 73 168 183c0 64 -23 115 -62 147l-159 -322c16 -5 34 -8 53 -8z
" />
    <glyph glyph-name="zero.tf.zero" horiz-adv-x="580" 
d="M290 666c187 0 234 -151 234 -338c0 -186 -47 -338 -234 -338c-186 0 -234 152 -234 338c0 187 48 338 234 338zM290 605c-136 0 -170 -125 -170 -277c0 -76 9 -145 34 -195l222 449c-23 15 -51 23 -86 23zM290 51c137 0 170 126 170 277c0 84 -10 159 -42 210l-224 -456
c24 -20 55 -31 96 -31z" />
    <glyph glyph-name="zero.tosf.zero" horiz-adv-x="580" 
d="M290 477c139 0 231 -97 231 -243s-92 -244 -231 -244c-138 0 -230 98 -230 244s92 243 230 243zM123 234c0 -65 23 -117 63 -148l159 322c-17 5 -35 8 -55 8c-100 0 -167 -73 -167 -182zM290 51c100 0 168 73 168 183c0 64 -23 115 -63 147l-158 -322c16 -5 34 -8 53 -8z
" />
    <glyph glyph-name="zero.subs" horiz-adv-x="349" 
d="M175 -165c-104 0 -132 82 -132 186c0 105 28 188 132 188c103 0 131 -83 131 -188c0 -104 -28 -186 -131 -186zM175 -114c59 0 76 59 76 135c0 77 -17 137 -76 137s-77 -60 -77 -137c0 -76 18 -135 77 -135z" />
    <glyph glyph-name="one.subs" horiz-adv-x="226" 
d="M162 209h5v-369h-54v295l-85 -35v51z" />
    <glyph glyph-name="two.subs" horiz-adv-x="312" 
d="M124 -109h146v-51h-233v30l151 180c15 18 24 35 24 54c0 32 -26 54 -61 54c-33 0 -57 -21 -64 -55l-51 9c12 58 53 97 118 97c68 0 113 -43 113 -106c0 -36 -15 -64 -37 -90z" />
    <glyph glyph-name="three.subs" horiz-adv-x="319" 
d="M211 37c41 -14 69 -49 69 -95c0 -63 -57 -107 -135 -107c-50 0 -92 21 -116 60l37 30c17 -25 44 -41 76 -41c48 0 81 26 81 64c0 37 -29 62 -70 62h-36v42h24c41 0 66 25 64 57c-1 29 -26 50 -63 50c-28 0 -56 -15 -70 -35l-30 34c25 30 62 51 107 51
c64 0 112 -38 112 -98c0 -31 -19 -59 -50 -74z" />
    <glyph glyph-name="four.subs" horiz-adv-x="349" 
d="M319 -39v-49h-59v-72h-55v72h-182v18l197 274h40v-243h59zM98 -39h107v151z" />
    <glyph glyph-name="five.subs" horiz-adv-x="329" 
d="M179 79c67 0 115 -51 115 -118c0 -78 -64 -126 -136 -126c-48 0 -100 26 -125 67l42 29c16 -27 50 -45 80 -45c49 0 83 30 83 76c0 41 -30 71 -75 71c-29 0 -64 -12 -89 -29l-30 19l32 181h193v-51h-147l-20 -95c21 13 49 21 77 21z" />
    </font>
</defs>
</svg>
